{"glyphs":{"0":{"ha":756,"x_min":60,"x_max":696,"o":"m 232 722 q 202 675 232 722 q 172 457 172 628 q 231 190 172 286 q 380 93 289 93 q 527 188 471 93 q 583 456 583 282 q 524 723 583 631 q 378 815 465 815 q 232 722 292 815 m 378 919 q 450 919 378 919 q 609 795 522 919 q 696 458 696 671 q 613 117 696 244 q 381 -11 529 -11 q 146 117 232 -11 q 60 458 60 244 q 147 795 60 671 q 378 919 233 919 z "},"1":{"ha":449,"x_min":25,"x_max":343,"o":"m 343 0 l 235 0 l 235 789 l 25 660 l 25 778 l 240 908 l 343 908 l 343 0 z "},"2":{"ha":686,"x_min":53,"x_max":626,"o":"m 626 0 l 53 0 l 53 93 q 483 635 483 418 q 433 767 483 721 q 299 814 383 814 q 82 732 189 814 l 82 842 q 306 918 181 918 q 514 847 431 918 q 597 646 597 776 q 204 96 597 400 l 626 96 l 626 0 z "},"3":{"ha":647,"x_min":53,"x_max":576,"o":"m 576 250 q 499 65 576 139 q 285 -8 421 -8 q 53 38 149 -8 l 53 147 q 260 93 156 93 q 415 139 365 93 q 464 258 464 185 q 409 372 464 332 q 251 411 354 411 l 193 411 l 193 507 l 251 507 q 383 551 329 507 q 436 668 436 594 q 390 779 436 742 q 256 817 344 817 q 81 760 168 817 l 81 867 q 281 918 161 918 q 476 849 401 918 q 550 679 550 781 q 513 547 550 606 q 404 460 476 489 q 530 387 483 442 q 576 250 576 332 z "},"4":{"ha":750,"x_min":58,"x_max":717,"o":"m 582 0 l 474 0 l 474 221 l 58 221 l 58 317 l 404 908 l 582 908 l 582 317 l 717 317 l 717 221 l 582 221 l 582 0 m 474 317 l 474 843 l 169 317 l 474 317 z "},"5":{"ha":707,"x_min":82,"x_max":644,"o":"m 343 554 q 563 481 482 554 q 644 278 644 407 q 556 69 644 149 q 323 -11 468 -11 q 82 36 178 -11 l 82 144 q 297 92 171 92 q 531 288 531 92 q 476 410 531 367 q 328 454 422 454 q 126 406 235 454 l 126 908 l 582 908 l 582 813 l 235 813 l 235 540 q 343 554 297 554 z "},"6":{"ha":731,"x_min":72,"x_max":681,"o":"m 182 385 q 246 162 188 238 q 389 86 304 86 q 520 144 474 86 q 567 293 567 203 q 520 435 567 383 q 399 486 474 486 q 182 385 274 486 m 408 585 q 473 585 408 585 q 609 506 538 585 q 681 292 681 426 q 602 71 681 157 q 394 -15 524 -15 q 156 103 239 -15 q 72 411 72 221 q 183 786 72 638 q 489 935 294 935 q 617 914 551 935 l 617 807 q 490 833 557 833 q 282 735 360 833 q 186 489 204 638 q 408 585 278 585 z "},"7":{"ha":626,"x_min":17,"x_max":610,"o":"m 17 813 l 17 908 l 610 908 l 610 813 l 233 0 l 117 0 l 493 813 l 17 813 z "},"8":{"ha":744,"x_min":71,"x_max":674,"o":"m 370 821 q 330 821 370 821 q 243 775 289 821 q 197 657 197 729 q 247 544 197 585 q 371 504 296 504 q 493 547 446 504 q 540 660 540 589 q 496 776 540 732 q 370 821 451 821 m 369 403 q 322 402 369 403 q 228 353 275 401 q 182 238 182 306 q 231 128 182 171 q 370 86 279 86 q 511 132 461 86 q 561 245 561 178 q 513 358 561 313 q 369 403 464 404 m 674 236 q 586 56 674 124 q 369 -11 499 -11 q 156 54 240 -11 q 71 229 71 119 q 115 369 71 311 q 235 453 158 426 q 86 663 86 510 q 169 851 86 783 q 369 918 253 918 q 568 852 485 918 q 651 661 651 786 q 613 537 651 590 q 506 456 574 483 q 674 236 674 404 z "},"9":{"ha":700,"x_min":50,"x_max":642,"o":"m 642 518 q 542 130 642 271 q 246 -11 443 -11 q 89 15 165 -11 l 89 124 q 242 92 161 92 q 528 407 493 92 q 322 325 458 325 q 131 406 211 325 q 50 619 50 488 q 126 835 50 750 q 335 919 203 919 q 565 806 488 919 q 642 518 642 692 m 350 422 q 533 511 464 422 l 533 518 q 487 734 533 650 q 338 818 440 818 q 211 765 258 818 q 164 619 164 713 q 214 474 164 525 q 350 422 264 422 z "}," ":{"ha":339,"x_min":0,"x_max":0,"o":""},"!":{"ha":349,"x_min":90,"x_max":256,"o":"m 172 153 q 190 153 172 153 q 231 128 207 153 q 256 70 256 104 q 232 13 256 36 q 172 -11 208 -11 q 113 13 136 -11 q 90 70 90 36 q 114 128 90 104 q 172 153 138 153 m 228 283 l 121 283 l 121 936 l 228 936 l 228 283 z "},"\"":{"ha":410,"x_min":61,"x_max":349,"o":"m 160 617 l 61 617 l 61 946 l 160 946 l 160 617 m 349 617 l 251 617 l 251 946 l 349 946 l 349 617 z "},"#":{"ha":986,"x_min":74,"x_max":913,"o":"m 590 324 l 651 610 l 403 610 l 342 324 l 590 324 m 74 236 l 74 324 l 243 324 l 303 610 l 149 610 l 149 699 l 322 699 l 372 936 l 472 936 l 422 699 l 671 699 l 721 936 l 819 936 l 769 699 l 913 699 l 913 610 l 751 610 l 692 324 l 840 324 l 840 236 l 674 236 l 624 0 l 522 0 l 572 236 l 324 236 l 274 0 l 175 0 l 225 236 l 74 236 z "},"$":{"ha":701,"x_min":74,"x_max":631,"o":"m 367 -151 l 271 -151 l 271 -7 q 78 50 157 4 l 78 171 q 325 94 179 94 q 463 134 413 94 q 514 246 514 174 q 501 305 514 279 q 452 354 488 331 q 397 388 417 378 q 340 414 376 399 q 274 442 303 429 q 212 474 244 456 q 144 524 179 493 q 74 693 74 585 q 149 868 74 801 q 342 943 225 935 l 342 1088 l 438 1088 l 438 940 q 579 901 519 931 l 579 783 q 394 839 494 839 q 243 799 293 839 q 193 696 193 760 q 206 635 193 661 q 256 586 219 610 q 349 534 304 554 q 424 501 394 514 q 486 469 453 488 q 557 419 519 450 q 631 247 631 360 q 558 68 631 135 q 367 -8 485 1 l 367 -151 z "},"%":{"ha":1176,"x_min":68,"x_max":1108,"o":"m 801 298 q 782 280 801 298 q 764 210 764 261 q 801 122 764 158 q 889 86 838 86 q 977 122 940 86 q 1014 210 1014 158 q 978 298 1014 261 q 890 335 942 335 q 801 298 838 335 m 1044 365 q 1076 333 1044 365 q 1108 210 1108 300 q 1044 55 1108 119 q 888 -10 979 -10 q 733 55 797 -10 q 669 210 669 119 q 733 366 669 301 q 888 431 797 431 q 1044 365 979 431 m 200 803 q 182 785 200 803 q 164 715 164 767 q 200 627 164 664 q 288 590 236 590 q 376 627 339 590 q 413 715 413 664 q 376 803 413 767 q 288 839 339 839 q 200 803 236 839 m 288 935 q 333 935 288 935 q 443 870 378 935 q 508 715 508 806 q 443 559 508 624 q 288 494 378 494 q 133 559 197 494 q 68 715 68 624 q 133 870 68 806 q 288 935 197 935 m 390 -1 l 286 -1 l 782 924 l 889 924 l 390 -1 z "},"&":{"ha":976,"x_min":90,"x_max":974,"o":"m 204 238 q 204 207 204 238 q 269 133 204 175 q 451 90 335 90 q 654 158 567 90 l 379 415 q 247 342 290 382 q 204 238 204 301 m 731 88 q 451 -11 618 -11 q 187 60 283 -11 q 90 244 90 132 q 310 485 90 401 q 214 610 244 556 q 183 726 183 665 q 254 894 183 831 q 443 958 325 958 q 633 890 561 958 q 706 718 706 821 q 485 456 706 554 l 719 238 q 758 372 751 293 l 864 372 q 797 165 856 253 l 974 0 l 825 0 l 731 88 m 447 858 q 413 858 447 858 q 338 823 379 858 q 297 734 297 788 q 323 637 297 681 q 415 525 349 593 q 551 613 508 568 q 593 717 593 658 q 554 817 593 776 q 447 858 515 858 z "},"'":{"ha":221,"x_min":61,"x_max":160,"o":"m 160 617 l 61 617 l 61 946 l 160 946 l 160 617 z "},"(":{"ha":431,"x_min":100,"x_max":444,"o":"m 100 363 q 157 693 100 532 q 313 982 214 854 l 433 982 q 215 356 215 688 q 444 -272 215 24 l 322 -272 q 100 363 100 11 z "},")":{"ha":431,"x_min":-14,"x_max":332,"o":"m -14 -272 q 215 357 215 24 q -3 982 215 690 l 119 982 q 275 693 218 854 q 332 363 332 532 q 108 -272 332 13 l -14 -272 z "},"*":{"ha":567,"x_min":40,"x_max":525,"o":"m 217 676 q 167 685 190 676 l 40 726 l 67 813 l 196 771 q 251 739 222 763 q 238 803 238 764 l 238 936 l 326 936 l 326 803 q 315 742 326 767 q 369 772 336 763 l 497 813 l 525 728 l 397 686 q 347 678 375 678 l 338 678 q 382 636 364 664 l 460 528 l 389 475 l 310 583 q 283 638 290 611 q 257 582 276 610 l 178 475 l 106 526 l 185 636 q 228 676 207 665 l 217 676 z "},"+":{"ha":768,"x_min":79,"x_max":690,"o":"m 690 422 l 431 422 l 431 160 l 328 160 l 328 422 l 79 422 l 79 522 l 328 522 l 328 785 l 431 785 l 431 522 l 690 522 l 690 422 z "},",":{"ha":313,"x_min":-11,"x_max":264,"o":"m 85 -171 l -11 -171 l 118 140 l 264 140 l 85 -171 z "},"-":{"ha":483,"x_min":79,"x_max":404,"o":"m 404 325 l 79 325 l 79 421 l 404 421 l 404 325 z "},".":{"ha":231,"x_min":33,"x_max":197,"o":"m 174 129 q 185 117 174 129 q 197 71 197 106 q 174 13 197 36 q 115 -11 150 -11 q 57 13 81 -11 q 33 71 33 36 q 57 129 33 106 q 115 153 81 153 q 174 129 150 153 z "},"/":{"ha":560,"x_min":-12,"x_max":606,"o":"m 99 -142 l -12 -142 l 493 982 l 606 982 l 99 -142 z "},":":{"ha":326,"x_min":82,"x_max":244,"o":"m 221 138 q 233 126 221 138 q 244 79 244 114 q 221 22 244 44 q 163 -1 197 -1 q 105 22 128 -1 q 82 79 82 44 q 105 138 82 114 q 163 161 128 161 q 221 138 197 161 m 163 608 q 180 608 163 608 q 221 585 197 608 q 244 527 244 561 q 221 470 244 493 q 163 447 197 447 q 105 470 128 447 q 82 527 82 493 q 105 585 82 561 q 163 608 128 608 z "},";":{"ha":313,"x_min":-11,"x_max":264,"o":"m 178 607 q 195 607 178 607 q 236 583 213 607 q 260 526 260 560 q 236 469 260 492 q 178 446 213 446 q 120 469 143 446 q 97 526 97 492 q 120 583 97 560 q 178 607 143 607 m 85 -171 l -11 -171 l 118 140 l 264 140 l 85 -171 z "},"<":{"ha":732,"x_min":79,"x_max":664,"o":"m 664 272 l 664 158 l 79 421 l 79 526 l 664 788 l 664 675 l 194 475 l 664 272 z "},"=":{"ha":768,"x_min":79,"x_max":690,"o":"m 690 285 l 79 285 l 79 381 l 690 381 l 690 285 m 690 565 l 79 565 l 79 660 l 690 660 l 690 565 z "},">":{"ha":732,"x_min":68,"x_max":653,"o":"m 653 421 l 68 158 l 68 272 l 536 475 l 68 675 l 68 788 l 653 526 l 653 421 z "},"?":{"ha":628,"x_min":63,"x_max":575,"o":"m 247 153 q 264 153 247 153 q 306 128 281 153 q 331 70 331 104 q 306 13 331 36 q 247 -11 282 -11 q 188 13 211 -11 q 165 70 165 36 q 189 128 165 104 q 247 153 213 153 m 194 514 q 392 558 322 514 q 461 681 461 601 q 415 804 461 760 q 271 849 369 849 q 63 779 172 849 l 63 890 q 285 947 153 947 q 496 880 417 947 q 575 694 575 813 q 493 510 575 575 q 303 435 411 444 l 301 283 l 196 283 l 194 514 z "},"@":{"ha":1257,"x_min":83,"x_max":1192,"o":"m 461 283 q 461 243 461 283 q 499 159 461 203 q 594 115 536 115 q 701 154 651 115 q 772 263 750 193 q 778 339 775 313 q 628 485 756 485 q 508 424 556 485 q 461 283 461 363 m 789 488 q 794 569 789 503 l 886 569 l 865 378 q 860 258 860 304 q 951 118 860 118 q 1053 185 1013 118 q 1094 360 1094 253 q 977 653 1094 549 q 669 758 860 758 q 334 619 479 758 q 189 277 189 479 q 302 -32 189 75 q 566 -139 415 -139 q 825 -79 717 -139 l 819 -186 q 575 -233 726 -233 q 216 -91 349 -233 q 83 272 83 51 q 258 686 83 521 q 682 851 433 851 q 1044 718 896 851 q 1192 367 1192 585 q 1117 118 1192 207 q 946 29 1042 29 q 783 149 818 29 q 578 25 710 25 q 416 98 475 25 q 357 288 357 171 q 434 491 357 406 q 624 576 511 576 q 789 488 736 576 z "},"A":{"ha":900,"x_min":49,"x_max":851,"o":"m 169 0 l 49 0 l 375 936 l 531 936 l 851 0 l 731 0 l 649 246 l 253 246 l 169 0 m 453 846 q 285 342 433 775 l 617 342 l 453 846 z "},"B":{"ha":793,"x_min":107,"x_max":733,"o":"m 411 425 l 219 425 l 219 96 l 432 96 q 569 137 521 96 q 617 257 617 178 q 563 381 617 336 q 411 425 510 425 m 389 840 l 219 840 l 219 521 l 369 521 q 536 568 482 521 q 590 685 590 615 q 540 798 590 756 q 389 840 489 840 m 449 0 l 107 0 l 107 936 l 389 936 q 620 869 533 936 q 707 690 707 803 q 662 551 707 610 q 546 476 617 492 q 678 406 624 464 q 733 243 733 349 q 659 69 733 138 q 449 0 585 0 z "},"C":{"ha":836,"x_min":67,"x_max":778,"o":"m 542 -11 q 199 119 331 -11 q 67 466 67 249 q 201 816 67 683 q 538 949 335 949 q 775 899 683 949 l 775 783 q 665 829 714 815 q 538 843 617 843 q 285 740 386 843 q 185 469 185 638 q 285 197 185 300 q 550 94 385 94 q 778 165 683 94 l 778 47 q 542 -11 692 -11 z "},"D":{"ha":918,"x_min":107,"x_max":857,"o":"m 383 836 l 221 836 l 221 99 l 389 99 q 651 206 563 99 q 740 471 740 314 q 641 732 740 628 q 383 836 542 836 m 390 0 l 107 0 l 107 936 l 385 936 q 724 808 592 936 q 857 476 857 679 q 734 136 857 272 q 390 0 611 0 z "},"E":{"ha":696,"x_min":107,"x_max":629,"o":"m 629 0 l 107 0 l 107 936 l 622 936 l 622 838 l 219 838 l 219 517 l 575 517 l 575 418 l 219 418 l 219 99 l 629 99 l 629 0 z "},"F":{"ha":679,"x_min":107,"x_max":621,"o":"m 572 407 l 219 407 l 219 0 l 107 0 l 107 936 l 621 936 l 621 838 l 219 838 l 219 506 l 572 506 l 572 407 z "},"G":{"ha":931,"x_min":67,"x_max":838,"o":"m 547 -11 q 199 117 331 -11 q 67 464 67 246 q 198 817 67 682 q 529 953 329 953 q 803 889 694 953 l 803 768 q 535 843 689 843 q 283 741 382 843 q 185 467 185 639 q 282 197 185 296 q 550 97 379 97 q 725 135 644 97 l 725 426 l 519 426 l 519 525 l 838 525 l 838 78 l 836 78 l 838 74 q 547 -11 725 -11 z "},"H":{"ha":893,"x_min":107,"x_max":786,"o":"m 786 0 l 674 0 l 674 424 l 219 424 l 219 0 l 107 0 l 107 936 l 219 936 l 219 525 l 674 525 l 674 936 l 786 936 l 786 0 z "},"I":{"ha":343,"x_min":115,"x_max":228,"o":"m 228 0 l 115 0 l 115 936 l 228 936 l 228 0 z "},"J":{"ha":497,"x_min":42,"x_max":392,"o":"m 392 240 q 174 0 392 0 q 42 31 96 0 l 42 139 q 158 103 97 103 q 279 231 279 103 l 279 936 l 392 936 l 392 240 z "},"K":{"ha":796,"x_min":107,"x_max":757,"o":"m 219 0 l 107 0 l 107 936 l 219 936 l 219 0 m 757 0 l 611 0 l 242 463 l 599 936 l 738 936 l 381 463 l 757 0 z "},"L":{"ha":663,"x_min":107,"x_max":618,"o":"m 618 0 l 107 0 l 107 936 l 219 936 l 219 101 l 618 101 l 618 0 z "},"M":{"ha":1190,"x_min":97,"x_max":1094,"o":"m 210 0 l 97 0 l 165 936 l 308 936 l 432 594 l 582 158 q 869 936 676 426 l 1013 936 l 1094 0 l 982 0 l 917 785 q 635 21 826 532 l 528 21 l 263 776 q 210 0 263 739 z "},"N":{"ha":935,"x_min":107,"x_max":828,"o":"m 219 0 l 107 0 l 107 936 l 249 936 l 483 542 l 721 136 q 715 540 715 271 l 715 936 l 828 936 l 828 0 l 686 0 q 213 801 297 649 q 219 394 219 657 l 219 0 z "},"O":{"ha":972,"x_min":67,"x_max":907,"o":"m 487 849 q 416 849 487 849 q 265 748 344 849 q 185 473 185 647 q 267 197 185 299 q 490 96 350 96 q 709 196 631 96 q 788 472 788 296 q 708 749 788 649 q 487 849 629 849 m 488 954 q 586 954 488 954 q 795 824 683 954 q 907 473 907 694 q 794 120 907 251 q 489 -11 681 -11 q 182 121 297 -11 q 67 473 67 253 q 180 824 67 693 q 488 954 293 954 z "},"P":{"ha":757,"x_min":107,"x_max":703,"o":"m 354 840 l 219 840 l 219 440 l 364 440 q 529 495 469 440 q 589 640 589 550 q 528 785 589 729 q 354 840 467 840 m 364 344 l 219 344 l 219 0 l 107 0 l 107 936 l 353 936 q 609 852 515 936 q 703 639 703 768 q 610 427 703 510 q 364 344 517 344 z "},"Q":{"ha":985,"x_min":67,"x_max":949,"o":"m 487 849 q 416 849 487 849 q 265 748 344 849 q 185 473 185 647 q 267 197 185 299 q 490 96 350 96 q 709 196 631 96 q 788 472 788 296 q 708 749 788 649 q 487 849 629 849 m 907 472 q 845 195 907 311 q 671 26 783 79 l 949 -146 l 826 -197 l 549 -7 q 488 -11 519 -11 q 182 121 297 -11 q 67 473 67 253 q 180 824 67 693 q 488 954 293 954 q 795 824 683 954 q 907 472 907 694 z "},"R":{"ha":761,"x_min":107,"x_max":729,"o":"m 365 369 l 219 369 l 219 0 l 107 0 l 107 936 l 342 936 q 588 860 504 936 q 672 649 672 783 q 621 483 669 551 q 483 388 572 415 l 729 0 l 594 0 l 365 369 m 349 839 l 219 839 l 219 465 l 361 465 q 508 517 457 465 q 558 651 558 569 q 349 839 558 839 z "},"S":{"ha":728,"x_min":92,"x_max":649,"o":"m 649 249 q 564 58 649 125 q 339 -10 479 -10 q 96 50 199 -10 l 96 171 q 343 94 197 94 q 481 133 431 94 q 531 246 531 172 q 481 344 531 307 q 351 417 425 386 q 247 465 278 449 q 172 514 215 482 q 92 694 92 578 q 177 877 92 810 q 388 944 263 944 q 597 901 513 944 l 597 783 q 411 839 513 839 q 260 799 310 839 q 210 696 210 760 q 269 586 210 628 q 381 527 314 557 q 472 485 447 497 q 537 448 497 474 q 597 397 576 422 q 649 249 649 335 z "},"T":{"ha":669,"x_min":25,"x_max":643,"o":"m 643 838 l 390 838 l 390 0 l 278 0 l 278 838 l 25 838 l 25 936 l 643 936 l 643 838 z "},"U":{"ha":896,"x_min":106,"x_max":790,"o":"m 790 356 q 699 82 790 175 q 447 -11 608 -11 q 196 80 286 -11 q 106 344 106 171 l 106 936 l 218 936 l 218 346 q 280 156 218 217 q 446 94 342 94 q 678 353 678 94 l 678 936 l 790 936 l 790 356 z "},"V":{"ha":885,"x_min":50,"x_max":835,"o":"m 508 0 l 367 0 l 50 936 l 171 936 l 293 565 l 439 101 q 714 936 510 332 l 835 936 l 508 0 z "},"W":{"ha":1303,"x_min":50,"x_max":1253,"o":"m 438 0 l 294 0 l 50 936 l 168 936 l 256 589 l 371 118 q 600 922 450 410 l 713 922 l 815 589 l 957 114 q 1139 936 1010 365 l 1253 936 l 1033 0 l 889 0 l 658 764 q 438 0 618 610 z "},"X":{"ha":851,"x_min":54,"x_max":797,"o":"m 188 0 l 54 0 l 356 472 l 71 936 l 203 936 l 418 574 l 633 936 l 767 936 l 483 472 l 797 0 l 665 0 l 421 376 l 188 0 z "},"Y":{"ha":824,"x_min":36,"x_max":788,"o":"m 467 0 l 354 0 l 354 347 l 36 936 l 167 936 q 410 450 385 514 q 657 936 417 471 l 788 936 l 467 349 l 467 0 z "},"Z":{"ha":790,"x_min":72,"x_max":718,"o":"m 718 0 l 72 0 l 72 93 l 567 840 l 79 840 l 79 936 l 697 936 l 697 844 l 203 96 l 718 96 l 718 0 z "},"[":{"ha":431,"x_min":107,"x_max":426,"o":"m 426 -254 l 107 -254 l 107 982 l 426 982 l 426 885 l 215 885 l 215 -154 l 426 -154 l 426 -254 z "},"\\":{"ha":558,"x_min":-46,"x_max":572,"o":"m 572 -143 l 461 -143 l -46 982 l 67 982 l 572 -143 z "},"]":{"ha":431,"x_min":4,"x_max":324,"o":"m 324 -254 l 4 -254 l 4 -154 l 215 -154 l 215 885 l 4 885 l 4 982 l 324 982 l 324 -254 z "},"^":{"ha":640,"x_min":63,"x_max":578,"o":"m 172 461 l 63 461 l 260 825 l 386 825 l 578 461 l 468 461 l 322 750 l 172 461 z "},"_":{"ha":779,"x_min":39,"x_max":740,"o":"m 740 -139 l 39 -139 l 39 -43 l 740 -43 l 740 -139 z "},"`":{"ha":585,"x_min":160,"x_max":428,"o":"m 428 892 l 332 892 l 160 1108 l 292 1108 l 428 892 z "},"a":{"ha":683,"x_min":65,"x_max":590,"o":"m 285 -7 q 126 51 186 -7 q 65 205 65 110 q 142 356 65 300 q 353 413 219 413 l 481 413 l 481 449 q 443 574 481 532 q 305 617 406 617 q 117 557 204 617 l 117 667 q 325 715 196 715 q 590 446 590 715 l 590 0 l 482 0 l 482 83 q 285 -7 428 -7 m 181 203 q 181 176 181 203 q 215 117 181 150 q 321 85 250 85 q 436 127 392 85 q 481 235 481 169 l 481 325 l 358 325 q 225 290 269 325 q 181 203 181 256 z "},"b":{"ha":792,"x_min":106,"x_max":732,"o":"m 422 615 q 381 615 422 615 q 278 553 340 615 q 215 353 215 490 q 276 153 215 217 q 422 89 336 89 q 563 160 507 89 q 618 353 618 231 q 560 545 618 475 q 422 615 503 615 m 215 0 l 106 0 l 106 982 l 215 982 l 215 599 q 427 715 292 715 q 647 613 563 715 q 732 354 732 511 q 652 93 732 197 q 431 -11 572 -11 q 215 104 290 -11 l 215 0 z "},"c":{"ha":654,"x_min":60,"x_max":586,"o":"m 422 -15 q 158 91 256 -15 q 60 349 60 197 q 158 608 60 500 q 425 717 256 717 q 586 678 515 717 l 586 574 q 436 617 522 617 q 245 540 317 617 q 174 349 174 463 q 243 159 175 235 q 436 83 311 83 q 586 129 517 83 l 586 25 q 422 -15 519 -15 z "},"d":{"ha":788,"x_min":60,"x_max":686,"o":"m 686 0 l 576 0 l 576 104 q 360 -11 501 -11 q 140 93 219 -11 q 60 354 60 197 q 144 613 60 511 q 365 715 229 715 q 576 597 500 715 l 576 982 l 686 982 l 686 0 m 370 615 q 330 615 370 615 q 231 545 289 615 q 174 353 174 475 q 229 160 174 231 q 370 89 285 89 q 516 153 456 89 q 576 353 576 217 q 514 553 576 490 q 370 615 451 615 z "},"e":{"ha":725,"x_min":60,"x_max":660,"o":"m 550 425 q 503 565 550 513 q 374 617 456 617 q 238 560 293 617 q 172 397 182 503 l 550 397 l 550 425 m 415 -7 q 158 91 256 -7 q 60 353 60 189 q 147 615 60 518 q 369 713 235 713 q 582 628 504 713 q 660 388 660 543 q 653 306 660 343 l 172 306 q 251 146 185 201 q 431 90 318 90 q 615 139 544 90 l 615 36 q 415 -7 533 -7 z "},"f":{"ha":457,"x_min":42,"x_max":438,"o":"m 428 615 l 272 615 l 272 0 l 163 0 l 163 615 l 42 615 l 42 704 l 163 704 l 163 769 q 217 932 163 872 q 369 992 272 992 q 438 982 403 992 l 438 882 q 367 893 404 893 q 301 863 329 893 q 272 768 272 832 l 272 704 l 428 704 l 428 615 z "},"g":{"ha":763,"x_min":61,"x_max":669,"o":"m 363 615 q 322 615 363 615 q 228 544 281 615 q 175 356 175 472 q 233 177 175 239 q 367 115 292 115 q 501 174 442 115 q 560 359 560 233 q 503 550 560 485 q 363 615 446 615 m 669 57 q 581 -185 669 -104 q 358 -267 492 -267 q 133 -224 224 -267 l 133 -114 q 333 -165 222 -165 q 560 58 560 -165 l 560 138 q 361 18 490 18 q 147 107 232 18 q 61 353 61 196 q 140 613 61 511 q 356 714 219 714 q 560 588 492 714 l 560 704 l 669 704 l 669 57 z "},"h":{"ha":750,"x_min":101,"x_max":657,"o":"m 657 0 l 547 0 l 547 456 q 508 574 547 532 q 397 615 468 615 q 268 556 326 615 q 210 385 210 496 l 210 0 l 101 0 l 101 982 l 210 982 l 210 582 q 432 714 272 714 q 595 651 533 714 q 657 482 657 589 l 657 0 z "},"i":{"ha":324,"x_min":90,"x_max":233,"o":"m 213 976 q 223 966 213 976 q 233 925 233 956 q 213 874 233 894 q 161 854 192 854 q 110 874 131 854 q 90 925 90 894 q 110 976 90 956 q 161 997 131 997 q 213 976 192 997 m 217 0 l 107 0 l 107 704 l 217 704 l 217 0 z "},"j":{"ha":317,"x_min":-64,"x_max":233,"o":"m 213 976 q 223 966 213 976 q 233 925 233 956 q 213 874 233 894 q 161 854 192 854 q 110 874 131 854 q 90 925 90 894 q 110 976 90 956 q 161 997 131 997 q 213 976 192 997 m 217 -76 q 169 -219 217 -168 q 36 -271 121 -271 q -64 -250 -10 -271 l -64 -153 q 31 -175 -11 -175 q 108 -74 108 -175 l 108 704 l 217 704 l 217 -76 z "},"k":{"ha":667,"x_min":101,"x_max":639,"o":"m 353 369 l 639 0 l 507 0 l 224 369 l 500 704 l 631 704 l 353 369 m 210 0 l 101 0 l 101 976 l 210 976 l 210 0 z "},"l":{"ha":324,"x_min":107,"x_max":217,"o":"m 217 0 l 107 0 l 107 982 l 217 982 l 217 0 z "},"m":{"ha":1136,"x_min":101,"x_max":1043,"o":"m 1043 0 l 933 0 l 933 456 q 799 615 933 615 q 679 555 732 615 q 626 385 626 494 l 626 0 l 517 0 l 517 456 q 382 615 517 615 q 263 555 315 615 q 210 385 210 494 l 210 0 l 101 0 l 101 704 l 210 704 l 210 590 q 408 714 268 714 q 614 576 571 714 q 699 678 644 643 q 822 714 754 714 q 988 651 932 714 q 1043 483 1043 589 l 1043 0 z "},"n":{"ha":750,"x_min":101,"x_max":657,"o":"m 657 0 l 547 0 l 547 456 q 508 574 547 533 q 397 615 468 615 q 267 554 325 615 q 210 385 210 493 l 210 0 l 101 0 l 101 704 l 210 704 l 210 582 q 432 714 272 714 q 596 651 535 714 q 657 485 657 589 l 657 0 z "},"o":{"ha":781,"x_min":60,"x_max":721,"o":"m 393 617 q 340 617 393 617 q 231 539 288 617 q 174 350 174 461 q 232 162 174 239 q 392 85 290 85 q 550 160 493 85 q 607 351 607 236 q 553 541 607 465 q 393 617 499 617 m 394 714 q 471 714 394 714 q 634 611 547 714 q 721 351 721 508 q 632 90 721 193 q 390 -12 543 -12 q 148 90 236 -12 q 60 348 60 192 q 151 609 60 504 q 394 714 242 714 z "},"p":{"ha":788,"x_min":101,"x_max":728,"o":"m 418 615 q 376 615 418 615 q 272 553 333 615 q 210 354 210 492 q 272 153 210 217 q 417 89 335 89 q 557 159 500 89 q 614 351 614 229 q 558 544 614 474 q 418 615 503 615 m 210 -274 l 101 -274 l 101 704 l 210 704 l 210 597 q 426 715 283 715 q 648 613 568 715 q 728 353 728 511 q 644 92 728 196 q 423 -11 560 -11 q 210 107 286 -11 l 210 -274 z "},"q":{"ha":788,"x_min":60,"x_max":686,"o":"m 686 -274 l 576 -274 l 576 106 q 364 -11 500 -11 q 144 92 228 -11 q 60 353 60 196 q 140 613 60 511 q 361 715 221 715 q 576 600 501 715 l 576 704 l 686 704 l 686 -274 m 369 615 q 327 615 369 615 q 229 544 285 615 q 174 351 174 474 q 231 159 174 229 q 370 89 288 89 q 515 152 453 89 q 576 353 576 215 q 515 553 576 492 q 369 615 454 615 z "},"r":{"ha":453,"x_min":100,"x_max":440,"o":"m 210 0 l 100 0 l 101 704 l 210 704 l 210 581 q 401 711 265 711 q 440 708 426 711 l 440 600 q 381 610 411 610 q 258 542 307 610 q 210 385 210 474 l 210 0 z "},"s":{"ha":572,"x_min":78,"x_max":525,"o":"m 347 390 q 386 373 347 390 q 475 311 425 357 q 525 181 525 265 q 462 44 525 97 q 280 -8 399 -8 q 82 35 161 -8 l 82 142 q 282 86 175 86 q 379 111 346 86 q 413 183 413 136 q 376 257 413 229 q 256 317 339 285 q 126 396 174 350 q 78 524 78 442 q 144 659 78 607 q 314 711 210 711 q 485 681 418 711 l 485 576 q 310 615 421 615 q 222 590 254 615 q 189 531 189 564 q 199 480 189 499 q 236 443 208 461 q 347 390 269 422 z "},"t":{"ha":513,"x_min":31,"x_max":454,"o":"m 351 -7 q 143 206 143 -7 l 143 615 l 31 615 l 31 704 l 143 704 l 143 879 l 253 879 l 253 704 l 447 704 l 447 615 l 253 615 l 253 203 q 358 90 253 90 q 454 122 413 90 l 454 18 q 351 -7 408 -7 z "},"u":{"ha":750,"x_min":93,"x_max":649,"o":"m 649 0 l 539 0 l 539 122 q 318 -8 483 -8 q 153 53 214 -8 q 93 219 93 115 l 93 704 l 203 704 l 203 247 q 242 131 203 171 q 358 90 281 90 q 487 151 435 90 q 539 317 539 213 l 539 704 l 649 704 l 649 0 z "},"v":{"ha":701,"x_min":35,"x_max":667,"o":"m 415 0 l 281 0 l 35 704 l 149 704 l 349 86 q 453 407 361 146 l 553 704 l 667 704 l 415 0 z "},"w":{"ha":1100,"x_min":35,"x_max":1065,"o":"m 386 0 l 251 0 l 35 704 l 151 704 q 318 107 289 235 q 486 704 333 175 l 603 704 l 775 106 q 953 704 793 179 l 1065 704 l 843 0 l 708 0 l 642 231 l 544 582 q 386 0 528 514 z "},"x":{"ha":664,"x_min":35,"x_max":629,"o":"m 156 0 l 35 0 l 271 361 l 49 706 l 175 706 l 335 442 l 496 706 l 621 706 l 393 360 l 629 0 l 503 0 l 332 278 l 156 0 z "},"y":{"ha":685,"x_min":11,"x_max":661,"o":"m 108 -242 q 50 -235 72 -242 l 50 -136 q 97 -142 71 -142 q 296 18 238 -142 l 11 704 l 135 704 l 350 153 q 543 704 361 192 l 661 704 l 407 18 q 278 -183 353 -125 q 108 -242 204 -242 z "},"z":{"ha":629,"x_min":61,"x_max":568,"o":"m 568 0 l 61 0 l 61 86 l 418 607 l 75 607 l 75 704 l 549 704 l 549 624 l 188 99 l 568 99 l 568 0 z "},"{":{"ha":464,"x_min":67,"x_max":446,"o":"m 381 -262 q 252 -206 304 -262 q 200 -56 200 -150 q 215 47 200 -18 q 229 143 229 113 q 107 308 229 283 q 67 311 94 311 l 67 418 q 197 475 158 418 q 229 583 229 519 q 215 679 229 614 q 200 782 200 744 q 253 933 200 876 q 381 990 306 990 q 446 979 410 990 l 446 871 q 400 883 422 883 q 335 854 357 883 q 313 785 313 825 q 327 674 313 744 q 342 563 342 603 q 298 431 342 485 q 172 364 254 376 q 298 297 254 351 q 342 165 342 242 q 327 53 342 124 q 313 -58 313 -18 q 335 -128 313 -99 q 400 -157 357 -157 q 446 -144 422 -157 l 446 -251 q 381 -262 417 -262 z "},"|":{"ha":317,"x_min":108,"x_max":208,"o":"m 208 -269 l 108 -269 l 108 965 l 208 965 l 208 -269 z "},"}":{"ha":464,"x_min":18,"x_max":397,"o":"m 264 -56 q 212 -206 264 -150 q 83 -262 160 -262 q 18 -251 47 -262 l 18 -144 q 74 -157 42 -157 q 129 -128 107 -157 q 151 -58 151 -99 q 138 53 151 -18 q 124 165 124 124 q 167 297 124 242 q 292 364 211 351 q 167 431 211 376 q 124 563 124 485 q 138 674 124 604 q 151 785 151 744 q 129 854 151 825 q 74 883 107 883 q 18 871 42 883 l 18 979 q 83 990 54 990 q 211 933 158 990 q 264 782 264 876 q 249 679 264 744 q 235 583 235 614 q 267 475 235 519 q 397 418 306 418 l 397 311 q 264 251 304 311 q 235 143 235 207 q 249 47 235 113 q 264 -56 264 -18 z "},"~":{"ha":832,"x_min":50,"x_max":782,"o":"m 283 372 q 124 276 190 372 l 50 340 q 267 472 144 472 q 435 421 342 472 q 574 369 529 369 q 700 453 651 369 l 782 394 q 583 269 701 269 q 420 321 518 269 q 283 372 322 372 z "}," ":{"ha":339,"x_min":0,"x_max":0,"o":""},"¡":{"ha":349,"x_min":90,"x_max":256,"o":"m 172 718 q 190 718 172 718 q 232 694 208 718 q 256 637 256 671 q 231 578 256 603 q 172 554 207 554 q 114 578 138 554 q 90 638 90 603 q 113 695 90 672 q 172 718 136 718 m 228 -229 l 121 -229 l 121 424 l 228 424 l 228 -229 z "},"¢":{"ha":628,"x_min":64,"x_max":572,"o":"m 464 -154 l 368 -154 l 368 -7 q 144 111 225 11 q 64 348 64 211 q 145 587 64 485 q 368 708 226 689 l 368 854 l 464 854 l 464 711 q 572 681 522 704 l 572 578 q 442 613 507 613 q 249 537 321 613 q 176 349 178 461 q 247 163 178 236 q 442 89 315 89 q 572 122 514 89 l 572 19 q 464 -10 526 -3 l 464 -154 z "},"£":{"ha":725,"x_min":85,"x_max":671,"o":"m 671 0 l 85 0 l 85 92 q 193 185 164 129 q 222 346 222 240 q 219 406 222 364 l 92 406 l 92 493 l 210 493 q 199 624 199 588 q 273 840 199 764 q 482 915 347 915 q 632 881 563 915 l 632 772 q 493 811 565 811 q 311 629 311 811 q 322 493 311 588 l 572 493 l 572 406 l 331 406 q 333 347 333 367 q 305 185 333 240 q 224 96 276 129 l 671 96 l 671 0 z "},"¤":{"ha":754,"x_min":47,"x_max":707,"o":"m 377 642 q 332 642 377 642 q 229 583 288 642 q 171 434 171 524 q 229 285 171 344 q 377 226 288 226 q 525 285 467 226 q 583 433 583 343 q 525 582 583 522 q 377 642 467 642 m 129 254 q 76 428 76 328 q 132 607 76 529 l 47 692 l 118 760 l 201 675 q 380 732 281 732 q 557 681 479 732 l 638 760 l 707 692 l 626 611 q 679 436 679 533 q 621 258 679 339 l 707 174 l 638 106 l 551 190 q 373 136 474 136 q 199 186 272 136 l 118 106 l 47 174 l 129 254 z "},"¥":{"ha":813,"x_min":46,"x_max":763,"o":"m 707 218 l 460 218 l 460 0 l 346 0 l 346 218 l 100 218 l 100 299 l 346 299 l 346 351 l 308 421 l 100 421 l 100 503 l 264 503 l 46 908 l 174 908 l 403 461 l 635 908 l 763 908 l 542 503 l 707 503 l 707 421 l 497 421 l 460 353 l 460 299 l 707 299 l 707 218 z "},"¦":{"ha":317,"x_min":108,"x_max":208,"o":"m 208 -247 l 108 -247 l 108 213 l 208 213 l 208 -247 m 208 510 l 108 510 l 108 969 l 208 969 l 208 510 z "},"§":{"ha":711,"x_min":71,"x_max":636,"o":"m 576 118 q 633 -31 633 57 q 549 -217 633 -151 q 325 -282 465 -282 q 82 -221 185 -282 l 82 -100 q 329 -178 185 -178 q 469 -140 419 -178 q 518 -39 518 -103 q 476 60 518 25 q 362 127 435 94 q 271 168 289 160 q 213 198 253 176 q 154 238 172 219 q 113 283 136 256 q 71 419 71 331 q 129 572 71 507 q 76 706 76 625 q 160 883 76 821 q 369 944 244 944 q 579 901 494 944 l 579 783 q 392 839 494 839 q 193 710 193 839 q 235 626 193 656 q 324 578 271 600 q 412 542 378 557 q 472 513 446 526 q 533 475 497 500 q 589 425 569 450 q 636 273 636 364 q 576 118 636 182 m 492 182 q 526 283 526 224 q 483 377 526 342 q 386 438 440 413 q 287 483 332 464 q 219 513 242 501 q 183 427 183 472 q 197 356 183 382 q 242 306 210 329 q 377 234 292 271 q 492 182 463 197 z "},"¨":{"ha":585,"x_min":81,"x_max":504,"o":"m 203 1055 q 214 1045 203 1055 q 224 1004 224 1035 q 203 953 224 974 q 153 932 183 932 q 101 953 122 932 q 81 1004 81 974 q 101 1055 81 1035 q 153 1075 122 1075 q 203 1055 183 1075 m 483 1055 q 494 1045 483 1055 q 504 1004 504 1035 q 483 953 504 974 q 432 932 463 932 q 381 953 401 932 q 361 1004 361 974 q 381 1055 361 1035 q 432 1075 401 1075 q 483 1055 463 1075 z "},"©":{"ha":1078,"x_min":60,"x_max":1018,"o":"m 267 742 q 210 685 267 742 q 153 467 153 628 q 267 192 153 306 q 540 79 381 79 q 814 192 700 79 q 928 467 928 306 q 814 742 928 628 q 540 856 700 856 q 267 742 381 856 m 539 947 q 638 947 539 947 q 877 806 736 947 q 1018 467 1018 664 q 877 129 1018 271 q 539 -12 736 -12 q 201 129 342 -12 q 60 467 60 271 q 201 806 60 664 q 539 947 342 947 m 571 204 q 381 280 451 204 q 310 464 310 356 q 381 650 311 572 q 572 728 451 728 q 688 700 638 728 l 688 610 q 571 642 639 642 q 455 592 503 642 q 408 466 407 543 q 456 339 408 389 q 573 289 503 289 q 688 324 643 289 l 688 233 q 571 204 643 204 z "},"ª":{"ha":486,"x_min":3,"x_max":444,"o":"m 189 539 q 54 585 106 539 q 3 715 3 632 q 68 845 3 797 q 247 893 133 893 l 351 893 l 351 922 q 320 1029 351 993 q 206 1065 289 1065 q 46 1014 122 1065 l 46 1104 q 228 1147 119 1147 q 444 919 444 1147 l 444 544 l 354 544 l 354 619 q 189 539 293 539 m 99 714 q 128 644 99 671 q 216 618 158 618 q 313 653 274 618 q 351 735 351 688 l 351 817 l 264 817 q 99 714 99 817 z "},"«":{"ha":667,"x_min":38,"x_max":625,"o":"m 367 126 l 246 126 l 38 351 l 246 576 l 367 576 l 164 351 l 367 126 m 422 351 l 625 126 l 504 126 l 296 351 l 504 576 l 625 576 l 422 351 z "},"¬":{"ha":763,"x_min":35,"x_max":711,"o":"m 711 222 l 610 222 l 610 475 l 35 475 l 35 574 l 711 574 l 711 222 z "},"­":{"ha":483,"x_min":79,"x_max":404,"o":"m 404 325 l 79 325 l 79 421 l 404 421 l 404 325 z "},"®":{"ha":624,"x_min":14,"x_max":610,"o":"m 145 965 q 114 932 145 965 q 82 796 82 900 q 145 628 82 692 q 313 564 208 564 q 482 628 418 564 q 546 797 546 693 q 482 965 546 900 q 313 1029 418 1029 q 145 965 208 1029 m 526 1010 q 568 967 526 1010 q 610 796 610 925 q 526 583 610 667 q 312 500 442 500 q 98 583 182 500 q 14 796 14 667 q 98 1010 14 925 q 312 1094 182 1094 q 526 1010 442 1094 m 313 904 l 282 904 l 282 815 l 317 815 q 357 860 357 815 q 313 904 357 904 m 282 657 l 221 657 l 221 954 l 306 954 q 419 860 419 954 q 369 776 419 800 l 444 657 l 372 657 l 308 765 l 282 765 l 282 657 z "},"¯":{"ha":585,"x_min":96,"x_max":488,"o":"m 488 963 l 96 963 l 96 1040 l 488 1040 l 488 963 z "},"°":{"ha":493,"x_min":42,"x_max":451,"o":"m 162 823 q 145 805 162 823 q 129 738 129 788 q 164 653 129 688 q 249 618 199 618 q 331 653 299 618 q 363 738 363 688 q 328 823 363 788 q 244 858 294 858 q 162 823 194 858 m 394 883 q 423 856 394 883 q 451 740 451 828 q 392 594 451 653 q 244 536 332 536 q 99 592 156 536 q 42 735 42 647 q 101 881 42 824 q 248 939 160 939 q 394 883 336 939 z "},"±":{"ha":768,"x_min":79,"x_max":690,"o":"m 690 42 l 79 42 l 79 139 l 690 139 l 690 42 m 690 460 l 431 460 l 431 225 l 328 225 l 328 460 l 79 460 l 79 556 l 328 556 l 328 790 l 431 790 l 431 556 l 690 556 l 690 460 z "},"²":{"ha":507,"x_min":65,"x_max":453,"o":"m 453 544 l 65 544 l 65 613 q 340 958 340 819 q 310 1039 340 1013 q 233 1065 281 1065 q 85 1006 158 1065 l 85 1101 q 239 1147 160 1147 q 375 1099 318 1147 q 432 967 432 1051 q 365 793 432 883 q 189 621 299 703 l 453 621 l 453 544 z "},"³":{"ha":451,"x_min":49,"x_max":403,"o":"m 276 849 q 365 804 328 844 q 403 698 403 764 q 351 585 403 632 q 208 539 300 539 q 49 574 115 539 l 49 657 q 186 618 118 618 q 313 710 313 618 q 277 782 313 756 q 176 808 242 808 l 143 808 l 143 885 l 176 885 q 260 910 226 885 q 294 979 294 935 q 193 1067 294 1067 q 65 1024 132 1067 l 65 1111 q 207 1147 126 1147 q 337 1101 288 1147 q 386 993 386 1054 q 357 896 386 932 q 276 849 328 860 z "},"´":{"ha":585,"x_min":160,"x_max":428,"o":"m 256 892 l 160 892 l 297 1108 l 428 1108 l 256 892 z "},"µ":{"ha":758,"x_min":101,"x_max":657,"o":"m 210 -249 l 101 -249 l 101 704 l 210 704 l 210 247 q 260 132 210 174 q 384 90 311 90 q 502 151 457 90 q 547 317 547 211 l 547 704 l 657 704 l 657 0 l 547 0 l 547 107 q 363 -8 497 -8 q 210 44 271 -8 l 210 -249 z "},"¶":{"ha":757,"x_min":36,"x_max":656,"o":"m 656 -206 l 557 -206 l 557 936 l 656 936 l 656 -206 m 397 -206 l 299 -206 l 299 474 q 105 539 174 474 q 36 700 36 604 q 106 866 36 796 q 304 936 176 936 l 397 936 l 397 -206 z "},"·":{"ha":322,"x_min":79,"x_max":243,"o":"m 219 501 q 231 490 219 501 q 243 443 243 478 q 219 385 243 408 q 161 361 196 361 q 103 385 126 361 q 79 443 79 408 q 103 501 79 478 q 161 525 126 525 q 219 501 196 525 z "},"¸":{"ha":585,"x_min":188,"x_max":396,"o":"m 371 -71 q 396 -175 396 -106 q 342 -296 396 -244 q 188 -350 289 -347 l 188 -269 q 304 -171 304 -261 q 272 -71 304 -124 l 371 -71 z "},"¹":{"ha":347,"x_min":14,"x_max":249,"o":"m 249 544 l 163 544 l 163 1040 l 14 958 l 14 1049 l 176 1142 l 249 1142 l 249 544 z "},"º":{"ha":522,"x_min":-8,"x_max":529,"o":"m 133 1002 q 110 969 133 1002 q 88 842 88 936 q 134 682 88 747 q 263 617 181 617 q 389 681 344 617 q 433 842 433 744 q 392 1004 433 940 q 264 1068 350 1068 q 133 1002 178 1068 m 264 1150 q 326 1150 264 1150 q 459 1063 389 1150 q 529 842 529 976 q 458 622 529 708 q 260 536 386 536 q 63 622 135 536 q -8 840 -8 708 q 65 1061 -8 972 q 264 1150 139 1150 z "},"»":{"ha":669,"x_min":40,"x_max":629,"o":"m 161 126 l 40 126 l 244 351 l 40 576 l 161 576 l 371 351 l 161 126 m 629 351 l 419 126 l 299 126 l 503 351 l 299 576 l 419 576 l 629 351 z "},"¼":{"ha":1156,"x_min":90,"x_max":1093,"o":"m 1007 0 l 922 0 l 922 138 l 649 138 l 649 208 l 876 596 l 1007 596 l 1007 208 l 1093 208 l 1093 138 l 1007 138 l 1007 0 m 922 208 l 922 528 l 738 208 l 922 208 m 326 390 l 239 390 l 239 886 l 90 804 l 90 894 l 254 988 l 326 988 l 326 390 m 299 0 l 200 0 l 826 989 l 925 989 l 299 0 z "},"½":{"ha":1157,"x_min":90,"x_max":1101,"o":"m 1101 0 l 714 0 l 714 68 q 910 247 832 156 q 989 414 989 339 q 959 494 989 468 q 882 521 929 521 q 733 461 807 521 l 733 557 q 888 603 808 603 q 1024 555 967 603 q 1082 423 1082 507 q 1015 249 1082 339 q 839 76 949 158 l 1101 76 l 1101 0 m 326 390 l 239 390 l 239 886 l 90 804 l 90 894 l 254 988 l 326 988 l 326 390 m 299 0 l 200 0 l 826 989 l 925 989 l 299 0 z "},"¾":{"ha":1203,"x_min":100,"x_max":1171,"o":"m 1085 0 l 1000 0 l 1000 138 l 726 138 l 726 208 l 954 596 l 1085 596 l 1085 208 l 1171 208 l 1171 138 l 1085 138 l 1085 0 m 1000 208 l 1000 526 l 815 208 l 1000 208 m 328 694 q 417 650 379 690 q 454 544 454 610 q 403 431 454 478 q 259 385 351 385 q 100 419 167 385 l 100 503 q 238 464 169 464 q 364 556 364 464 q 328 628 364 601 q 228 654 293 654 l 194 654 l 194 731 l 228 731 q 312 756 278 731 q 346 825 346 781 q 244 913 346 913 q 117 869 183 913 l 117 957 q 258 993 178 993 q 388 947 339 993 q 438 839 438 900 q 408 742 438 778 q 328 694 379 706 m 378 0 l 278 0 l 904 989 l 1003 989 l 378 0 z "},"¿":{"ha":628,"x_min":63,"x_max":575,"o":"m 449 695 q 461 684 449 695 q 472 638 472 672 q 449 578 472 603 q 392 554 426 554 q 332 578 357 554 q 307 638 307 603 q 331 695 307 672 q 391 718 356 718 q 449 695 426 718 m 575 -183 q 353 -240 485 -240 q 142 -173 221 -240 q 63 13 63 -106 q 144 197 63 132 q 335 272 226 263 l 336 424 l 442 424 l 443 193 q 246 149 315 193 q 176 26 176 106 q 222 -97 176 -53 q 368 -140 268 -140 q 575 -72 468 -140 l 575 -183 z "},"À":{"ha":900,"x_min":49,"x_max":851,"o":"m 492 1010 l 396 1010 l 224 1226 l 356 1226 l 492 1010 m 169 0 l 49 0 l 375 936 l 531 936 l 851 0 l 731 0 l 649 246 l 253 246 l 169 0 m 453 846 q 285 342 433 775 l 617 342 l 453 846 z "},"Á":{"ha":900,"x_min":49,"x_max":851,"o":"m 511 1010 l 415 1010 l 553 1226 l 683 1226 l 511 1010 m 169 0 l 49 0 l 375 936 l 531 936 l 851 0 l 731 0 l 649 246 l 253 246 l 169 0 m 453 846 q 285 342 433 775 l 617 342 l 453 846 z "},"Â":{"ha":900,"x_min":49,"x_max":851,"o":"m 336 1010 l 225 1010 l 401 1226 l 507 1226 l 683 1010 l 572 1010 l 454 1156 l 336 1010 m 169 0 l 49 0 l 375 936 l 531 936 l 851 0 l 731 0 l 649 246 l 253 246 l 169 0 m 453 846 q 285 342 433 775 l 617 342 l 453 846 z "},"Ã":{"ha":900,"x_min":49,"x_max":851,"o":"m 372 1113 q 278 1046 315 1113 l 218 1097 q 276 1167 238 1139 q 357 1196 314 1196 q 460 1165 400 1196 q 544 1135 519 1135 q 619 1194 592 1135 l 688 1147 q 550 1051 643 1051 q 453 1082 513 1051 q 372 1113 394 1113 m 169 0 l 49 0 l 375 936 l 531 936 l 851 0 l 731 0 l 649 246 l 253 246 l 169 0 m 453 846 q 285 342 433 775 l 617 342 l 453 846 z "},"Ä":{"ha":900,"x_min":49,"x_max":851,"o":"m 366 1170 q 376 1160 366 1170 q 386 1119 386 1150 q 366 1068 386 1089 q 315 1047 346 1047 q 264 1068 285 1047 q 243 1119 243 1089 q 264 1170 243 1150 q 315 1190 285 1190 q 366 1170 346 1190 m 646 1170 q 656 1160 646 1170 q 667 1119 667 1150 q 646 1068 667 1089 q 594 1047 625 1047 q 544 1068 564 1047 q 524 1119 524 1089 q 544 1170 524 1150 q 594 1190 564 1190 q 646 1170 625 1190 m 169 0 l 49 0 l 375 936 l 531 936 l 851 0 l 731 0 l 649 246 l 253 246 l 169 0 m 453 846 q 285 342 433 775 l 617 342 l 453 846 z "},"Å":{"ha":900,"x_min":49,"x_max":851,"o":"m 455 1219 q 439 1219 455 1219 q 402 1198 424 1219 q 381 1145 381 1176 q 402 1092 381 1114 q 454 1069 424 1069 q 507 1092 485 1069 q 529 1144 529 1114 q 508 1197 529 1175 q 455 1219 486 1219 m 558 1248 q 580 1226 558 1248 q 601 1143 601 1204 q 558 1039 601 1082 q 454 996 515 996 q 350 1039 393 996 q 307 1143 307 1082 q 350 1248 307 1204 q 454 1292 393 1292 q 558 1248 515 1292 m 169 0 l 49 0 l 375 936 l 531 936 l 851 0 l 731 0 l 649 246 l 253 246 l 169 0 m 453 846 q 285 342 433 775 l 617 342 l 453 846 z "},"Æ":{"ha":1221,"x_min":32,"x_max":1154,"o":"m 633 342 l 633 847 q 350 342 543 676 l 633 342 m 1146 936 l 1146 838 l 744 838 l 744 517 l 1100 517 l 1100 418 l 744 418 l 744 99 l 1154 99 l 1154 0 l 633 0 l 633 246 l 294 246 l 153 0 l 32 0 l 564 936 l 1146 936 z "},"Ç":{"ha":836,"x_min":67,"x_max":778,"o":"m 561 -71 q 586 -175 586 -106 q 533 -296 586 -244 q 378 -350 479 -347 l 378 -269 q 494 -171 494 -261 q 463 -71 494 -124 l 561 -71 m 542 -11 q 199 119 331 -11 q 67 466 67 249 q 201 816 67 683 q 538 949 335 949 q 775 899 683 949 l 775 783 q 665 829 714 815 q 538 843 617 843 q 285 740 386 843 q 185 469 185 638 q 285 197 185 300 q 550 94 385 94 q 778 165 683 94 l 778 47 q 542 -11 692 -11 z "},"È":{"ha":696,"x_min":107,"x_max":629,"o":"m 444 1008 l 349 1008 l 176 1225 l 308 1225 l 444 1008 m 629 0 l 107 0 l 107 936 l 622 936 l 622 838 l 219 838 l 219 517 l 575 517 l 575 418 l 219 418 l 219 99 l 629 99 l 629 0 z "},"É":{"ha":696,"x_min":107,"x_max":629,"o":"m 435 1010 l 339 1010 l 476 1226 l 607 1226 l 435 1010 m 629 0 l 107 0 l 107 936 l 622 936 l 622 838 l 219 838 l 219 517 l 575 517 l 575 418 l 219 418 l 219 99 l 629 99 l 629 0 z "},"Ê":{"ha":696,"x_min":107,"x_max":629,"o":"m 261 1010 l 150 1010 l 326 1226 l 432 1226 l 608 1010 l 497 1010 l 379 1156 l 261 1010 m 629 0 l 107 0 l 107 936 l 622 936 l 622 838 l 219 838 l 219 517 l 575 517 l 575 418 l 219 418 l 219 99 l 629 99 l 629 0 z "},"Ë":{"ha":696,"x_min":107,"x_max":629,"o":"m 284 1169 q 294 1159 284 1169 q 304 1118 304 1149 q 284 1067 304 1088 q 233 1046 264 1046 q 182 1067 203 1046 q 161 1118 161 1088 q 182 1169 161 1149 q 233 1189 203 1189 q 284 1169 264 1189 m 564 1169 q 574 1159 564 1169 q 585 1118 585 1149 q 564 1067 585 1088 q 513 1046 543 1046 q 462 1067 482 1046 q 442 1118 442 1088 q 462 1169 442 1149 q 513 1189 482 1189 q 564 1169 543 1189 m 629 0 l 107 0 l 107 936 l 622 936 l 622 838 l 219 838 l 219 517 l 575 517 l 575 418 l 219 418 l 219 99 l 629 99 l 629 0 z "},"Ì":{"ha":343,"x_min":-56,"x_max":228,"o":"m 213 1010 l 117 1010 l -56 1226 l 76 1226 l 213 1010 m 228 0 l 115 0 l 115 936 l 228 936 l 228 0 z "},"Í":{"ha":343,"x_min":115,"x_max":397,"o":"m 225 1010 l 129 1010 l 267 1226 l 397 1226 l 225 1010 m 228 0 l 115 0 l 115 936 l 228 936 l 228 0 z "},"Î":{"ha":343,"x_min":-57,"x_max":401,"o":"m 54 1010 l -57 1010 l 119 1226 l 225 1226 l 401 1010 l 290 1010 l 172 1156 l 54 1010 m 228 0 l 115 0 l 115 936 l 228 936 l 228 0 z "},"Ï":{"ha":343,"x_min":-37,"x_max":386,"o":"m 85 1170 q 95 1160 85 1170 q 106 1119 106 1150 q 85 1068 106 1089 q 35 1047 65 1047 q -17 1068 4 1047 q -37 1119 -37 1089 q -17 1170 -37 1150 q 35 1190 4 1190 q 85 1170 65 1190 m 365 1170 q 376 1160 365 1170 q 386 1119 386 1150 q 365 1068 386 1089 q 314 1047 344 1047 q 263 1068 283 1047 q 243 1119 243 1089 q 263 1170 243 1150 q 314 1190 283 1190 q 365 1170 344 1190 m 228 0 l 115 0 l 115 936 l 228 936 l 228 0 z "},"Ð":{"ha":1014,"x_min":85,"x_max":953,"o":"m 560 422 l 317 422 l 317 99 l 486 99 q 644 129 575 99 q 753 214 713 160 q 836 474 836 321 q 738 732 836 628 q 479 836 639 836 l 317 836 l 317 517 l 560 517 l 560 422 m 486 0 l 203 0 l 203 422 l 85 422 l 85 517 l 203 517 l 203 936 l 481 936 q 821 808 689 936 q 953 476 953 679 q 830 136 953 272 q 486 0 707 0 z "},"Ñ":{"ha":935,"x_min":107,"x_max":828,"o":"m 399 1113 q 304 1046 342 1113 l 244 1097 q 302 1167 264 1139 q 383 1196 340 1196 q 486 1165 426 1196 q 571 1135 546 1135 q 646 1194 618 1135 l 714 1147 q 576 1051 669 1051 q 480 1082 539 1051 q 399 1113 421 1113 m 219 0 l 107 0 l 107 936 l 249 936 l 483 542 l 721 136 q 715 540 715 271 l 715 936 l 828 936 l 828 0 l 686 0 q 213 801 297 649 q 219 394 219 657 l 219 0 z "},"Ò":{"ha":972,"x_min":67,"x_max":907,"o":"m 546 1010 l 450 1010 l 278 1226 l 410 1226 l 546 1010 m 487 849 q 416 849 487 849 q 265 748 344 849 q 185 473 185 647 q 267 197 185 299 q 490 96 350 96 q 709 196 631 96 q 788 472 788 296 q 708 749 788 649 q 487 849 629 849 m 488 954 q 586 954 488 954 q 795 824 683 954 q 907 473 907 694 q 794 120 907 251 q 489 -11 681 -11 q 182 121 297 -11 q 67 473 67 253 q 180 824 67 693 q 488 954 293 954 z "},"Ó":{"ha":972,"x_min":67,"x_max":907,"o":"m 546 1010 l 450 1010 l 588 1226 l 718 1226 l 546 1010 m 487 849 q 416 849 487 849 q 265 748 344 849 q 185 473 185 647 q 267 197 185 299 q 490 96 350 96 q 709 196 631 96 q 788 472 788 296 q 708 749 788 649 q 487 849 629 849 m 488 954 q 586 954 488 954 q 795 824 683 954 q 907 473 907 694 q 794 120 907 251 q 489 -11 681 -11 q 182 121 297 -11 q 67 473 67 253 q 180 824 67 693 q 488 954 293 954 z "},"Ô":{"ha":972,"x_min":67,"x_max":907,"o":"m 378 1010 l 267 1010 l 443 1226 l 549 1226 l 725 1010 l 614 1010 l 496 1156 l 378 1010 m 487 849 q 416 849 487 849 q 265 748 344 849 q 185 473 185 647 q 267 197 185 299 q 490 96 350 96 q 709 196 631 96 q 788 472 788 296 q 708 749 788 649 q 487 849 629 849 m 488 954 q 586 954 488 954 q 795 824 683 954 q 907 473 907 694 q 794 120 907 251 q 489 -11 681 -11 q 182 121 297 -11 q 67 473 67 253 q 180 824 67 693 q 488 954 293 954 z "},"Õ":{"ha":972,"x_min":67,"x_max":907,"o":"m 408 1114 q 314 1047 351 1114 l 254 1099 q 312 1169 274 1140 q 393 1197 350 1197 q 496 1167 436 1197 q 581 1136 556 1136 q 656 1196 628 1136 l 724 1149 q 586 1053 679 1053 q 490 1083 549 1053 q 408 1114 431 1114 m 487 849 q 416 849 487 849 q 265 748 344 849 q 185 473 185 647 q 267 197 185 299 q 490 96 350 96 q 709 196 631 96 q 788 472 788 296 q 708 749 788 649 q 487 849 629 849 m 488 954 q 586 954 488 954 q 795 824 683 954 q 907 473 907 694 q 794 120 907 251 q 489 -11 681 -11 q 182 121 297 -11 q 67 473 67 253 q 180 824 67 693 q 488 954 293 954 z "},"Ö":{"ha":972,"x_min":67,"x_max":907,"o":"m 403 1170 q 414 1160 403 1170 q 424 1119 424 1150 q 403 1068 424 1089 q 353 1047 383 1047 q 301 1068 322 1047 q 281 1119 281 1089 q 301 1170 281 1150 q 353 1190 322 1190 q 403 1170 383 1190 m 683 1170 q 694 1160 683 1170 q 704 1119 704 1150 q 683 1068 704 1089 q 632 1047 663 1047 q 581 1068 601 1047 q 561 1119 561 1089 q 581 1170 561 1150 q 632 1190 601 1190 q 683 1170 663 1190 m 487 849 q 416 849 487 849 q 265 748 344 849 q 185 473 185 647 q 267 197 185 299 q 490 96 350 96 q 709 196 631 96 q 788 472 788 296 q 708 749 788 649 q 487 849 629 849 m 488 954 q 586 954 488 954 q 795 824 683 954 q 907 473 907 694 q 794 120 907 251 q 489 -11 681 -11 q 182 121 297 -11 q 67 473 67 253 q 180 824 67 693 q 488 954 293 954 z "},"×":{"ha":682,"x_min":82,"x_max":599,"o":"m 594 292 l 524 221 l 340 403 l 158 221 l 88 293 l 269 474 l 82 660 l 153 729 l 340 544 l 528 731 l 599 660 l 411 474 l 594 292 z "},"Ø":{"ha":938,"x_min":57,"x_max":899,"o":"m 479 93 q 701 194 622 93 q 781 459 781 294 q 722 719 781 624 l 300 153 q 479 93 375 93 m 476 850 q 254 749 335 850 q 174 487 174 649 q 235 226 174 325 l 657 793 q 476 850 585 850 m 794 814 q 897 468 897 685 q 784 120 897 251 q 479 -11 671 -11 q 233 64 339 -11 l 176 -12 l 57 -12 l 164 131 q 57 478 57 264 q 170 824 57 693 q 476 954 283 954 q 722 882 622 954 l 776 954 l 899 954 l 794 814 z "},"Ù":{"ha":896,"x_min":106,"x_max":790,"o":"m 500 1010 l 404 1010 l 232 1226 l 364 1226 l 500 1010 m 790 356 q 699 82 790 175 q 447 -11 608 -11 q 196 80 286 -11 q 106 344 106 171 l 106 936 l 218 936 l 218 346 q 280 156 218 217 q 446 94 342 94 q 678 353 678 94 l 678 936 l 790 936 l 790 356 z "},"Ú":{"ha":896,"x_min":106,"x_max":790,"o":"m 513 1010 l 417 1010 l 554 1226 l 685 1226 l 513 1010 m 790 356 q 699 82 790 175 q 447 -11 608 -11 q 196 80 286 -11 q 106 344 106 171 l 106 936 l 218 936 l 218 346 q 280 156 218 217 q 446 94 342 94 q 678 353 678 94 l 678 936 l 790 936 l 790 356 z "},"Û":{"ha":896,"x_min":106,"x_max":790,"o":"m 332 1010 l 221 1010 l 397 1226 l 503 1226 l 679 1010 l 568 1010 l 450 1156 l 332 1010 m 790 356 q 699 82 790 175 q 447 -11 608 -11 q 196 80 286 -11 q 106 344 106 171 l 106 936 l 218 936 l 218 346 q 280 156 218 217 q 446 94 342 94 q 678 353 678 94 l 678 936 l 790 936 l 790 356 z "},"Ü":{"ha":896,"x_min":106,"x_max":790,"o":"m 360 1170 q 370 1160 360 1170 q 381 1119 381 1150 q 360 1068 381 1089 q 310 1047 340 1047 q 258 1068 279 1047 q 238 1119 238 1089 q 258 1170 238 1150 q 310 1190 279 1190 q 360 1170 340 1190 m 640 1170 q 651 1160 640 1170 q 661 1119 661 1150 q 640 1068 661 1089 q 589 1047 619 1047 q 538 1068 558 1047 q 518 1119 518 1089 q 538 1170 518 1150 q 589 1190 558 1190 q 640 1170 619 1190 m 790 356 q 699 82 790 175 q 447 -11 608 -11 q 196 80 286 -11 q 106 344 106 171 l 106 936 l 218 936 l 218 346 q 280 156 218 217 q 446 94 342 94 q 678 353 678 94 l 678 936 l 790 936 l 790 356 z "},"Ý":{"ha":824,"x_min":36,"x_max":788,"o":"m 483 1008 l 388 1008 l 525 1225 l 656 1225 l 483 1008 m 467 0 l 354 0 l 354 347 l 36 936 l 167 936 q 410 450 385 514 q 657 936 417 471 l 788 936 l 467 349 l 467 0 z "},"Þ":{"ha":744,"x_min":107,"x_max":692,"o":"m 346 668 l 219 668 l 219 268 l 357 268 q 522 322 467 268 q 578 465 578 375 q 521 612 578 556 q 346 668 464 668 m 353 172 l 219 172 l 219 0 l 107 0 l 107 936 l 219 936 l 219 764 l 342 764 q 601 681 511 764 q 692 467 692 599 q 602 253 692 335 q 353 172 513 172 z "},"ß":{"ha":751,"x_min":106,"x_max":711,"o":"m 711 190 q 649 47 711 103 q 478 -10 588 -10 q 358 8 401 -10 l 358 114 q 474 86 413 86 q 569 113 535 86 q 603 180 603 140 q 581 250 603 219 q 529 305 560 281 q 468 354 499 329 q 394 489 394 414 q 412 561 394 526 q 451 617 429 596 q 490 672 472 639 q 507 749 507 706 q 469 825 507 793 q 371 857 432 857 q 215 692 215 857 l 215 0 l 106 0 l 106 689 q 178 890 106 822 q 367 958 251 958 q 551 896 483 958 q 618 744 618 833 q 591 637 618 683 q 538 558 564 590 q 511 499 511 525 q 532 448 511 472 q 582 401 553 424 q 640 351 611 378 q 690 282 669 324 q 711 190 711 240 z "},"à":{"ha":683,"x_min":65,"x_max":590,"o":"m 404 778 l 308 778 l 136 994 l 268 994 l 404 778 m 285 -7 q 126 51 186 -7 q 65 205 65 110 q 142 356 65 300 q 353 413 219 413 l 481 413 l 481 449 q 443 574 481 532 q 305 617 406 617 q 117 557 204 617 l 117 667 q 325 715 196 715 q 590 446 590 715 l 590 0 l 482 0 l 482 83 q 285 -7 428 -7 m 181 203 q 181 176 181 203 q 215 117 181 150 q 321 85 250 85 q 436 127 392 85 q 481 235 481 169 l 481 325 l 358 325 q 225 290 269 325 q 181 203 181 256 z "},"á":{"ha":683,"x_min":65,"x_max":590,"o":"m 406 778 l 310 778 l 447 994 l 578 994 l 406 778 m 285 -7 q 126 51 186 -7 q 65 205 65 110 q 142 356 65 300 q 353 413 219 413 l 481 413 l 481 449 q 443 574 481 532 q 305 617 406 617 q 117 557 204 617 l 117 667 q 325 715 196 715 q 590 446 590 715 l 590 0 l 482 0 l 482 83 q 285 -7 428 -7 m 181 203 q 181 176 181 203 q 215 117 181 150 q 321 85 250 85 q 436 127 392 85 q 481 235 481 169 l 481 325 l 358 325 q 225 290 269 325 q 181 203 181 256 z "},"â":{"ha":683,"x_min":65,"x_max":590,"o":"m 235 776 l 124 776 l 300 993 l 406 993 l 582 776 l 471 776 l 353 922 l 235 776 m 285 -7 q 126 51 186 -7 q 65 205 65 110 q 142 356 65 300 q 353 413 219 413 l 481 413 l 481 449 q 443 574 481 532 q 305 617 406 617 q 117 557 204 617 l 117 667 q 325 715 196 715 q 590 446 590 715 l 590 0 l 482 0 l 482 83 q 285 -7 428 -7 m 181 203 q 181 176 181 203 q 215 117 181 150 q 321 85 250 85 q 436 127 392 85 q 481 235 481 169 l 481 325 l 358 325 q 225 290 269 325 q 181 203 181 256 z "},"ã":{"ha":683,"x_min":65,"x_max":590,"o":"m 267 881 q 172 814 210 881 l 113 865 q 170 935 132 907 q 251 964 208 964 q 354 933 294 964 q 439 903 414 903 q 514 963 486 903 l 582 915 q 444 819 538 819 q 348 850 407 819 q 267 881 289 881 m 285 -7 q 126 51 186 -7 q 65 205 65 110 q 142 356 65 300 q 353 413 219 413 l 481 413 l 481 449 q 443 574 481 532 q 305 617 406 617 q 117 557 204 617 l 117 667 q 325 715 196 715 q 590 446 590 715 l 590 0 l 482 0 l 482 83 q 285 -7 428 -7 m 181 203 q 181 176 181 203 q 215 117 181 150 q 321 85 250 85 q 436 127 392 85 q 481 235 481 169 l 481 325 l 358 325 q 225 290 269 325 q 181 203 181 256 z "},"ä":{"ha":683,"x_min":65,"x_max":590,"o":"m 262 934 q 272 924 262 934 q 282 883 282 914 q 262 832 282 853 q 211 811 242 811 q 160 832 181 811 q 139 883 139 853 q 160 934 139 914 q 211 954 181 954 q 262 934 242 954 m 542 934 q 552 924 542 934 q 563 883 563 914 q 542 832 563 853 q 490 811 521 811 q 440 832 460 811 q 419 883 419 853 q 440 934 419 914 q 490 954 460 954 q 542 934 521 954 m 285 -7 q 126 51 186 -7 q 65 205 65 110 q 142 356 65 300 q 353 413 219 413 l 481 413 l 481 449 q 443 574 481 532 q 305 617 406 617 q 117 557 204 617 l 117 667 q 325 715 196 715 q 590 446 590 715 l 590 0 l 482 0 l 482 83 q 285 -7 428 -7 m 181 203 q 181 176 181 203 q 215 117 181 150 q 321 85 250 85 q 436 127 392 85 q 481 235 481 169 l 481 325 l 358 325 q 225 290 269 325 q 181 203 181 256 z "},"å":{"ha":683,"x_min":65,"x_max":590,"o":"m 355 988 q 339 988 355 988 q 302 966 324 988 q 281 913 281 944 q 302 860 281 882 q 354 838 324 838 q 407 860 385 838 q 429 913 429 882 q 408 966 429 944 q 355 988 386 988 m 458 1016 q 480 994 458 1016 q 501 911 501 972 q 458 807 501 850 q 354 764 415 764 q 250 807 293 764 q 207 911 207 850 q 250 1016 207 972 q 354 1060 293 1060 q 458 1016 415 1060 m 285 -7 q 126 51 186 -7 q 65 205 65 110 q 142 356 65 300 q 353 413 219 413 l 481 413 l 481 449 q 443 574 481 532 q 305 617 406 617 q 117 557 204 617 l 117 667 q 325 715 196 715 q 590 446 590 715 l 590 0 l 482 0 l 482 83 q 285 -7 428 -7 m 181 203 q 181 176 181 203 q 215 117 181 150 q 321 85 250 85 q 436 127 392 85 q 481 235 481 169 l 481 325 l 358 325 q 225 290 269 325 q 181 203 181 256 z "},"æ":{"ha":1138,"x_min":72,"x_max":1082,"o":"m 924 567 q 900 592 924 567 q 799 617 876 617 q 665 561 721 617 q 596 397 608 506 l 974 397 l 974 425 q 924 567 972 517 m 186 201 q 222 119 186 150 q 325 89 257 89 q 440 132 393 89 q 488 246 488 175 l 488 322 l 383 322 q 186 201 186 322 m 550 138 q 458 33 524 74 q 295 -7 393 -7 q 135 48 197 -7 q 72 201 72 103 q 150 357 72 300 q 363 414 228 414 l 488 414 l 488 449 q 450 574 488 532 q 313 617 413 617 q 124 558 213 617 l 124 665 q 328 715 204 715 q 557 590 507 715 q 800 713 639 713 q 1009 627 936 713 q 1082 382 1082 542 q 1075 306 1082 343 l 597 306 q 678 146 610 201 q 853 90 746 90 q 1032 139 961 90 l 1032 36 q 850 -7 953 -7 q 669 32 747 -7 q 550 138 592 71 z "},"ç":{"ha":654,"x_min":60,"x_max":586,"o":"m 446 -71 q 471 -175 471 -106 q 417 -296 471 -244 q 263 -350 364 -347 l 263 -269 q 379 -171 379 -261 q 347 -71 379 -124 l 446 -71 m 422 -15 q 158 91 256 -15 q 60 349 60 197 q 158 608 60 500 q 425 717 256 717 q 586 678 515 717 l 586 574 q 436 617 522 617 q 245 540 317 617 q 174 349 174 463 q 243 159 175 235 q 436 83 311 83 q 586 129 517 83 l 586 25 q 422 -15 519 -15 z "},"è":{"ha":725,"x_min":60,"x_max":660,"o":"m 442 778 l 346 778 l 174 994 l 306 994 l 442 778 m 550 425 q 503 565 550 513 q 374 617 456 617 q 238 560 293 617 q 172 397 182 503 l 550 397 l 550 425 m 415 -7 q 158 91 256 -7 q 60 353 60 189 q 147 615 60 518 q 369 713 235 713 q 582 628 504 713 q 660 388 660 543 q 653 306 660 343 l 172 306 q 251 146 185 201 q 431 90 318 90 q 615 139 544 90 l 615 36 q 415 -7 533 -7 z "},"é":{"ha":725,"x_min":60,"x_max":660,"o":"m 444 778 l 349 778 l 486 994 l 617 994 l 444 778 m 550 425 q 503 565 550 513 q 374 617 456 617 q 238 560 293 617 q 172 397 182 503 l 550 397 l 550 425 m 415 -7 q 158 91 256 -7 q 60 353 60 189 q 147 615 60 518 q 369 713 235 713 q 582 628 504 713 q 660 388 660 543 q 653 306 660 343 l 172 306 q 251 146 185 201 q 431 90 318 90 q 615 139 544 90 l 615 36 q 415 -7 533 -7 z "},"ê":{"ha":725,"x_min":60,"x_max":660,"o":"m 272 778 l 161 778 l 338 994 l 443 994 l 619 778 l 508 778 l 390 924 l 272 778 m 550 425 q 503 565 550 513 q 374 617 456 617 q 238 560 293 617 q 172 397 182 503 l 550 397 l 550 425 m 415 -7 q 158 91 256 -7 q 60 353 60 189 q 147 615 60 518 q 369 713 235 713 q 582 628 504 713 q 660 388 660 543 q 653 306 660 343 l 172 306 q 251 146 185 201 q 431 90 318 90 q 615 139 544 90 l 615 36 q 415 -7 533 -7 z "},"ë":{"ha":725,"x_min":60,"x_max":660,"o":"m 302 938 q 312 928 302 938 q 322 888 322 918 q 302 836 322 857 q 251 815 282 815 q 200 836 221 815 q 179 888 179 857 q 200 938 179 918 q 251 958 221 958 q 302 938 282 958 m 582 938 q 592 928 582 938 q 603 888 603 918 q 582 836 603 857 q 531 815 561 815 q 480 836 500 815 q 460 888 460 857 q 480 938 460 918 q 531 958 500 958 q 582 938 561 958 m 550 425 q 503 565 550 513 q 374 617 456 617 q 238 560 293 617 q 172 397 182 503 l 550 397 l 550 425 m 415 -7 q 158 91 256 -7 q 60 353 60 189 q 147 615 60 518 q 369 713 235 713 q 582 628 504 713 q 660 388 660 543 q 653 306 660 343 l 172 306 q 251 146 185 201 q 431 90 318 90 q 615 139 544 90 l 615 36 q 415 -7 533 -7 z "},"ì":{"ha":324,"x_min":-67,"x_max":217,"o":"m 201 776 l 106 776 l -67 993 l 65 993 l 201 776 m 217 0 l 107 0 l 107 704 l 217 704 l 217 0 z "},"í":{"ha":324,"x_min":107,"x_max":390,"o":"m 218 778 l 122 778 l 260 994 l 390 994 l 218 778 m 217 0 l 107 0 l 107 704 l 217 704 l 217 0 z "},"î":{"ha":324,"x_min":-67,"x_max":392,"o":"m 44 778 l -67 778 l 110 994 l 215 994 l 392 778 l 281 778 l 163 924 l 44 778 m 217 0 l 107 0 l 107 704 l 217 704 l 217 0 z "},"ï":{"ha":324,"x_min":-50,"x_max":374,"o":"m 73 940 q 83 930 73 940 q 93 889 93 919 q 73 838 93 858 q 22 817 53 817 q -29 838 -8 817 q -50 889 -50 858 q -29 940 -50 919 q 22 960 -8 960 q 73 940 53 960 m 353 940 q 363 930 353 940 q 374 889 374 919 q 353 838 374 858 q 301 817 332 817 q 251 838 271 817 q 231 889 231 858 q 251 940 231 919 q 301 960 271 960 q 353 940 332 960 m 217 0 l 107 0 l 107 704 l 217 704 l 217 0 z "},"ð":{"ha":718,"x_min":53,"x_max":654,"o":"m 167 279 q 167 235 167 279 q 218 140 167 192 q 351 89 269 89 q 488 153 432 89 q 550 356 544 218 q 340 465 467 465 q 216 416 265 465 q 167 279 167 367 m 654 374 q 572 86 654 185 q 353 -12 490 -12 q 135 74 217 -12 q 53 287 53 160 q 135 490 53 414 q 338 567 217 567 q 542 472 460 567 q 418 744 517 619 l 224 644 l 224 729 l 365 801 q 182 936 283 883 l 354 936 q 458 850 410 900 l 628 936 l 628 851 l 510 790 q 654 374 654 604 z "},"ñ":{"ha":750,"x_min":101,"x_max":657,"o":"m 308 881 q 214 814 251 881 l 154 865 q 212 935 174 907 q 293 964 250 964 q 396 933 336 964 q 481 903 456 903 q 556 963 528 903 l 624 915 q 486 819 579 819 q 390 850 449 819 q 308 881 331 881 m 657 0 l 547 0 l 547 456 q 508 574 547 533 q 397 615 468 615 q 267 554 325 615 q 210 385 210 493 l 210 0 l 101 0 l 101 704 l 210 704 l 210 582 q 432 714 272 714 q 596 651 535 714 q 657 485 657 589 l 657 0 z "},"ò":{"ha":781,"x_min":60,"x_max":721,"o":"m 442 778 l 346 778 l 174 994 l 306 994 l 442 778 m 393 617 q 340 617 393 617 q 231 539 288 617 q 174 350 174 461 q 232 162 174 239 q 392 85 290 85 q 550 160 493 85 q 607 351 607 236 q 553 541 607 465 q 393 617 499 617 m 394 714 q 471 714 394 714 q 634 611 547 714 q 721 351 721 508 q 632 90 721 193 q 390 -12 543 -12 q 148 90 236 -12 q 60 348 60 192 q 151 609 60 504 q 394 714 242 714 z "},"ó":{"ha":781,"x_min":60,"x_max":721,"o":"m 454 778 l 358 778 l 496 994 l 626 994 l 454 778 m 393 617 q 340 617 393 617 q 231 539 288 617 q 174 350 174 461 q 232 162 174 239 q 392 85 290 85 q 550 160 493 85 q 607 351 607 236 q 553 541 607 465 q 393 617 499 617 m 394 714 q 471 714 394 714 q 634 611 547 714 q 721 351 721 508 q 632 90 721 193 q 390 -12 543 -12 q 148 90 236 -12 q 60 348 60 192 q 151 609 60 504 q 394 714 242 714 z "},"ô":{"ha":781,"x_min":60,"x_max":721,"o":"m 276 776 l 165 776 l 342 993 l 447 993 l 624 776 l 513 776 l 394 922 l 276 776 m 393 617 q 340 617 393 617 q 231 539 288 617 q 174 350 174 461 q 232 162 174 239 q 392 85 290 85 q 550 160 493 85 q 607 351 607 236 q 553 541 607 465 q 393 617 499 617 m 394 714 q 471 714 394 714 q 634 611 547 714 q 721 351 721 508 q 632 90 721 193 q 390 -12 543 -12 q 148 90 236 -12 q 60 348 60 192 q 151 609 60 504 q 394 714 242 714 z "},"õ":{"ha":781,"x_min":60,"x_max":721,"o":"m 314 881 q 219 814 257 881 l 160 865 q 217 935 179 907 q 299 964 256 964 q 401 933 342 964 q 486 903 461 903 q 561 963 533 903 l 629 915 q 492 819 585 819 q 395 850 454 819 q 314 881 336 881 m 393 617 q 340 617 393 617 q 231 539 288 617 q 174 350 174 461 q 232 162 174 239 q 392 85 290 85 q 550 160 493 85 q 607 351 607 236 q 553 541 607 465 q 393 617 499 617 m 394 714 q 471 714 394 714 q 634 611 547 714 q 721 351 721 508 q 632 90 721 193 q 390 -12 543 -12 q 148 90 236 -12 q 60 348 60 192 q 151 609 60 504 q 394 714 242 714 z "},"ö":{"ha":781,"x_min":60,"x_max":721,"o":"m 313 935 q 323 925 313 935 q 333 885 333 915 q 313 833 333 854 q 263 813 293 813 q 211 833 232 813 q 190 885 190 854 q 211 935 190 915 q 263 956 232 956 q 313 935 293 956 m 593 935 q 603 925 593 935 q 614 885 614 915 q 593 833 614 854 q 542 813 572 813 q 491 833 511 813 q 471 885 471 854 q 491 935 471 915 q 542 956 511 956 q 593 935 572 956 m 393 617 q 340 617 393 617 q 231 539 288 617 q 174 350 174 461 q 232 162 174 239 q 392 85 290 85 q 550 160 493 85 q 607 351 607 236 q 553 541 607 465 q 393 617 499 617 m 394 714 q 471 714 394 714 q 634 611 547 714 q 721 351 721 508 q 632 90 721 193 q 390 -12 543 -12 q 148 90 236 -12 q 60 348 60 192 q 151 609 60 504 q 394 714 242 714 z "},"÷":{"ha":768,"x_min":79,"x_max":690,"o":"m 383 793 q 398 793 383 793 q 434 772 413 793 q 456 720 456 750 q 434 669 456 690 q 383 647 413 647 q 331 669 353 647 q 310 720 310 690 q 331 772 310 750 q 383 793 353 793 m 383 297 q 398 297 383 297 q 434 276 413 297 q 456 224 456 254 q 434 173 456 194 q 383 151 413 151 q 331 173 353 151 q 310 224 310 194 q 331 276 310 254 q 383 297 353 297 m 690 422 l 79 422 l 79 522 l 690 522 l 690 422 z "},"ø":{"ha":782,"x_min":78,"x_max":740,"o":"m 407 76 q 575 154 517 76 q 633 340 633 232 q 594 521 633 449 l 288 114 q 407 76 340 76 m 406 625 q 243 545 301 625 q 185 359 185 465 q 226 185 185 253 l 532 590 q 406 625 479 625 m 658 606 q 740 349 740 504 q 651 90 740 193 q 407 -12 563 -12 q 229 36 307 -12 l 192 -12 l 78 -12 l 160 97 q 78 349 78 196 q 169 608 78 503 q 407 714 261 714 q 589 665 511 714 l 625 714 l 740 714 l 658 606 z "},"ù":{"ha":750,"x_min":93,"x_max":649,"o":"m 422 776 l 326 776 l 154 993 l 286 993 l 422 776 m 649 0 l 539 0 l 539 122 q 318 -8 483 -8 q 153 53 214 -8 q 93 219 93 115 l 93 704 l 203 704 l 203 247 q 242 131 203 171 q 358 90 281 90 q 487 151 435 90 q 539 317 539 213 l 539 704 l 649 704 l 649 0 z "},"ú":{"ha":750,"x_min":93,"x_max":649,"o":"m 429 778 l 333 778 l 471 994 l 601 994 l 429 778 m 649 0 l 539 0 l 539 122 q 318 -8 483 -8 q 153 53 214 -8 q 93 219 93 115 l 93 704 l 203 704 l 203 247 q 242 131 203 171 q 358 90 281 90 q 487 151 435 90 q 539 317 539 213 l 539 704 l 649 704 l 649 0 z "},"û":{"ha":750,"x_min":93,"x_max":649,"o":"m 256 778 l 144 778 l 321 994 l 426 994 l 603 778 l 492 778 l 374 924 l 256 778 m 649 0 l 539 0 l 539 122 q 318 -8 483 -8 q 153 53 214 -8 q 93 219 93 115 l 93 704 l 203 704 l 203 247 q 242 131 203 171 q 358 90 281 90 q 487 151 435 90 q 539 317 539 213 l 539 704 l 649 704 l 649 0 z "},"ü":{"ha":750,"x_min":93,"x_max":649,"o":"m 287 935 q 297 925 287 935 q 307 885 307 915 q 287 833 307 854 q 236 813 267 813 q 185 833 206 813 q 164 885 164 854 q 185 935 164 915 q 236 956 206 956 q 287 935 267 956 m 567 935 q 577 925 567 935 q 588 885 588 915 q 567 833 588 854 q 515 813 546 813 q 465 833 485 813 q 444 885 444 854 q 465 935 444 915 q 515 956 485 956 q 567 935 546 956 m 649 0 l 539 0 l 539 122 q 318 -8 483 -8 q 153 53 214 -8 q 93 219 93 115 l 93 704 l 203 704 l 203 247 q 242 131 203 171 q 358 90 281 90 q 487 151 435 90 q 539 317 539 213 l 539 704 l 649 704 l 649 0 z "},"ý":{"ha":685,"x_min":11,"x_max":661,"o":"m 404 778 l 308 778 l 446 994 l 576 994 l 404 778 m 108 -242 q 50 -235 72 -242 l 50 -136 q 97 -142 71 -142 q 296 18 238 -142 l 11 704 l 135 704 l 350 153 q 543 704 361 192 l 661 704 l 407 18 q 278 -183 353 -125 q 108 -242 204 -242 z "},"þ":{"ha":788,"x_min":101,"x_max":728,"o":"m 418 615 q 376 615 418 615 q 272 553 333 615 q 210 354 210 492 q 272 153 210 217 q 417 89 335 89 q 557 159 500 89 q 614 351 614 229 q 558 544 614 474 q 418 615 503 615 m 210 -274 l 101 -274 l 101 982 l 210 982 l 210 597 q 426 715 283 715 q 648 613 568 715 q 728 353 728 511 q 644 92 728 196 q 423 -11 560 -11 q 210 107 286 -11 l 210 -274 z "},"ÿ":{"ha":685,"x_min":11,"x_max":661,"o":"m 266 935 q 276 925 266 935 q 286 885 286 915 q 266 833 286 854 q 215 813 246 813 q 164 833 185 813 q 143 885 143 854 q 164 935 143 915 q 215 956 185 956 q 266 935 246 956 m 546 935 q 556 925 546 935 q 567 885 567 915 q 546 833 567 854 q 494 813 525 813 q 444 833 464 813 q 424 885 424 854 q 444 935 424 915 q 494 956 464 956 q 546 935 525 956 m 108 -242 q 50 -235 72 -242 l 50 -136 q 97 -142 71 -142 q 296 18 238 -142 l 11 704 l 135 704 l 350 153 q 543 704 361 192 l 661 704 l 407 18 q 278 -183 353 -125 q 108 -242 204 -242 z "},"Ā":{"ha":900,"x_min":49,"x_max":851,"o":"m 650 1079 l 258 1079 l 258 1157 l 650 1157 l 650 1079 m 169 0 l 49 0 l 375 936 l 531 936 l 851 0 l 731 0 l 649 246 l 253 246 l 169 0 m 453 846 q 285 342 433 775 l 617 342 l 453 846 z "},"ā":{"ha":683,"x_min":65,"x_max":590,"o":"m 539 847 l 147 847 l 147 925 l 539 925 l 539 847 m 285 -7 q 126 51 186 -7 q 65 205 65 110 q 142 356 65 300 q 353 413 219 413 l 481 413 l 481 449 q 443 574 481 532 q 305 617 406 617 q 117 557 204 617 l 117 667 q 325 715 196 715 q 590 446 590 715 l 590 0 l 482 0 l 482 83 q 285 -7 428 -7 m 181 203 q 181 176 181 203 q 215 117 181 150 q 321 85 250 85 q 436 127 392 85 q 481 235 481 169 l 481 325 l 358 325 q 225 290 269 325 q 181 203 181 256 z "},"Ă":{"ha":900,"x_min":49,"x_max":851,"o":"m 681 1225 q 624 1064 681 1124 q 453 1004 567 1004 q 281 1064 339 1004 q 224 1225 224 1124 l 314 1225 q 347 1122 314 1161 q 452 1083 381 1083 q 557 1122 524 1083 q 590 1225 590 1161 l 681 1225 m 169 0 l 49 0 l 375 936 l 531 936 l 851 0 l 731 0 l 649 246 l 253 246 l 169 0 m 453 846 q 285 342 433 775 l 617 342 l 453 846 z "},"ă":{"ha":683,"x_min":65,"x_max":590,"o":"m 575 993 q 518 832 575 892 q 347 772 461 772 q 176 832 233 772 q 118 993 118 892 l 208 993 q 242 890 208 929 q 347 851 275 851 q 451 890 418 851 q 485 993 485 929 l 575 993 m 285 -7 q 126 51 186 -7 q 65 205 65 110 q 142 356 65 300 q 353 413 219 413 l 481 413 l 481 449 q 443 574 481 532 q 305 617 406 617 q 117 557 204 617 l 117 667 q 325 715 196 715 q 590 446 590 715 l 590 0 l 482 0 l 482 83 q 285 -7 428 -7 m 181 203 q 181 176 181 203 q 215 117 181 150 q 321 85 250 85 q 436 127 392 85 q 481 235 481 169 l 481 325 l 358 325 q 225 290 269 325 q 181 203 181 256 z "},"Ą":{"ha":897,"x_min":47,"x_max":879,"o":"m 879 -308 q 762 -336 836 -336 q 643 -293 688 -336 q 599 -183 599 -250 q 725 14 599 -67 l 647 246 l 251 246 l 168 0 l 47 0 l 374 936 l 529 936 l 850 0 q 694 -174 694 -76 q 718 -235 694 -214 q 789 -256 742 -256 q 879 -225 836 -256 l 879 -308 m 451 846 q 283 342 432 775 l 615 342 l 451 846 z "},"ą":{"ha":682,"x_min":65,"x_max":619,"o":"m 619 -308 q 502 -336 576 -336 q 383 -293 428 -336 q 339 -185 339 -250 q 379 -68 339 -121 q 482 22 419 -15 l 482 88 q 285 -7 411 -7 q 126 49 186 -7 q 65 203 65 106 q 143 357 65 300 q 356 414 221 414 l 481 414 l 481 449 q 443 574 481 532 q 306 617 406 617 q 117 558 206 617 l 117 665 q 325 715 197 715 q 590 446 590 715 l 590 0 q 435 -174 435 -76 q 458 -235 435 -214 q 529 -256 482 -256 q 619 -225 576 -256 l 619 -308 m 179 201 q 215 119 179 150 q 319 89 250 89 q 434 129 388 89 q 481 225 481 169 l 481 322 l 376 322 q 179 201 179 322 z "},"Ć":{"ha":836,"x_min":67,"x_max":778,"o":"m 554 1010 l 458 1010 l 596 1226 l 726 1226 l 554 1010 m 542 -11 q 199 119 331 -11 q 67 466 67 249 q 201 816 67 683 q 538 949 335 949 q 775 899 683 949 l 775 783 q 665 829 714 815 q 538 843 617 843 q 285 740 386 843 q 185 469 185 638 q 285 197 185 300 q 550 94 385 94 q 778 165 683 94 l 778 47 q 542 -11 692 -11 z "},"ć":{"ha":654,"x_min":60,"x_max":628,"o":"m 456 776 l 360 776 l 497 993 l 628 993 l 456 776 m 422 -15 q 158 91 256 -15 q 60 349 60 197 q 158 608 60 500 q 425 717 256 717 q 586 678 515 717 l 586 574 q 436 617 522 617 q 245 540 317 617 q 174 349 174 463 q 243 159 175 235 q 436 83 311 83 q 586 129 517 83 l 586 25 q 422 -15 519 -15 z "},"Č":{"ha":836,"x_min":67,"x_max":778,"o":"m 578 1010 l 472 1010 l 296 1226 l 407 1226 l 526 1081 l 643 1226 l 754 1226 l 578 1010 m 542 -11 q 199 119 331 -11 q 67 466 67 249 q 201 816 67 683 q 538 949 335 949 q 775 899 683 949 l 775 783 q 665 829 714 815 q 538 843 617 843 q 285 740 386 843 q 185 469 185 638 q 285 197 185 300 q 550 94 385 94 q 778 165 683 94 l 778 47 q 542 -11 692 -11 z "},"č":{"ha":654,"x_min":60,"x_max":611,"o":"m 435 778 l 329 778 l 153 994 l 264 994 l 383 849 l 500 994 l 611 994 l 435 778 m 422 -15 q 158 91 256 -15 q 60 349 60 197 q 158 608 60 500 q 425 717 256 717 q 586 678 515 717 l 586 574 q 436 617 522 617 q 245 540 317 617 q 174 349 174 463 q 243 159 175 235 q 436 83 311 83 q 586 129 517 83 l 586 25 q 422 -15 519 -15 z "},"Ď":{"ha":918,"x_min":107,"x_max":857,"o":"m 478 1008 l 372 1008 l 196 1225 l 307 1225 l 426 1079 l 543 1225 l 654 1225 l 478 1008 m 383 836 l 221 836 l 221 99 l 389 99 q 651 206 563 99 q 740 471 740 314 q 641 732 740 628 q 383 836 542 836 m 390 0 l 107 0 l 107 936 l 385 936 q 724 808 592 936 q 857 476 857 679 q 734 136 857 272 q 390 0 611 0 z "},"ď":{"ha":917,"x_min":60,"x_max":1011,"o":"m 857 715 l 767 715 l 883 982 l 1011 982 l 857 715 m 686 0 l 576 0 l 576 104 q 360 -11 501 -11 q 140 93 219 -11 q 60 354 60 197 q 144 613 60 511 q 365 715 229 715 q 576 597 500 715 l 576 982 l 686 982 l 686 0 m 370 615 q 330 615 370 615 q 231 545 289 615 q 174 353 174 475 q 229 160 174 231 q 370 89 285 89 q 516 153 456 89 q 576 353 576 217 q 514 553 576 490 q 370 615 451 615 z "},"Đ":{"ha":1014,"x_min":85,"x_max":953,"o":"m 560 422 l 317 422 l 317 99 l 486 99 q 644 129 575 99 q 753 214 713 160 q 836 474 836 321 q 738 732 836 628 q 479 836 639 836 l 317 836 l 317 517 l 560 517 l 560 422 m 486 0 l 203 0 l 203 422 l 85 422 l 85 517 l 203 517 l 203 936 l 481 936 q 821 808 689 936 q 953 476 953 679 q 830 136 953 272 q 486 0 707 0 z "},"đ":{"ha":788,"x_min":60,"x_max":785,"o":"m 686 0 l 576 0 l 576 104 q 360 -11 501 -11 q 140 93 219 -11 q 60 354 60 197 q 144 613 60 511 q 365 715 229 715 q 576 597 500 715 l 576 815 l 308 815 l 308 892 l 576 892 l 576 982 l 686 982 l 686 892 l 785 892 l 785 815 l 686 815 l 686 0 m 370 615 q 330 615 370 615 q 231 545 289 615 q 174 353 174 475 q 229 160 174 231 q 370 89 285 89 q 516 153 456 89 q 576 353 576 217 q 514 553 576 490 q 370 615 451 615 z "},"Ē":{"ha":696,"x_min":107,"x_max":629,"o":"m 561 1081 l 169 1081 l 169 1158 l 561 1158 l 561 1081 m 629 0 l 107 0 l 107 936 l 622 936 l 622 838 l 219 838 l 219 517 l 575 517 l 575 418 l 219 418 l 219 99 l 629 99 l 629 0 z "},"ē":{"ha":725,"x_min":60,"x_max":660,"o":"m 579 847 l 188 847 l 188 925 l 579 925 l 579 847 m 550 425 q 503 565 550 513 q 374 617 456 617 q 238 560 293 617 q 172 397 182 503 l 550 397 l 550 425 m 415 -7 q 158 91 256 -7 q 60 353 60 189 q 147 615 60 518 q 369 713 235 713 q 582 628 504 713 q 660 388 660 543 q 653 306 660 343 l 172 306 q 251 146 185 201 q 431 90 318 90 q 615 139 544 90 l 615 36 q 415 -7 533 -7 z "},"Ė":{"ha":696,"x_min":107,"x_max":629,"o":"m 433 1172 q 443 1161 433 1172 q 453 1121 453 1151 q 433 1069 453 1090 q 382 1049 413 1049 q 331 1069 351 1049 q 310 1121 310 1090 q 331 1172 310 1151 q 382 1192 351 1192 q 433 1172 413 1192 m 629 0 l 107 0 l 107 936 l 622 936 l 622 838 l 219 838 l 219 517 l 575 517 l 575 418 l 219 418 l 219 99 l 629 99 l 629 0 z "},"ė":{"ha":725,"x_min":60,"x_max":660,"o":"m 442 938 q 452 928 442 938 q 463 888 463 918 q 442 836 463 857 q 392 815 422 815 q 340 836 361 815 q 319 888 319 857 q 340 938 319 918 q 392 958 361 958 q 442 938 422 958 m 550 425 q 503 565 550 513 q 374 617 456 617 q 238 560 293 617 q 172 397 182 503 l 550 397 l 550 425 m 415 -7 q 158 91 256 -7 q 60 353 60 189 q 147 615 60 518 q 369 713 235 713 q 582 628 504 713 q 660 388 660 543 q 653 306 660 343 l 172 306 q 251 146 185 201 q 431 90 318 90 q 615 139 544 90 l 615 36 q 415 -7 533 -7 z "},"Ę":{"ha":696,"x_min":107,"x_max":629,"o":"m 533 -310 q 416 -336 489 -336 q 299 -293 343 -336 q 254 -183 254 -250 q 363 0 254 -81 l 107 0 l 107 936 l 622 936 l 622 838 l 219 838 l 219 517 l 575 517 l 575 418 l 219 418 l 219 99 l 629 99 l 629 0 l 506 0 q 349 -174 349 -78 q 373 -235 349 -214 q 445 -256 397 -256 q 533 -225 493 -256 l 533 -310 z "},"ę":{"ha":725,"x_min":60,"x_max":660,"o":"m 536 -304 q 419 -331 492 -331 q 301 -287 346 -331 q 257 -178 257 -244 q 354 -3 257 -82 q 140 111 219 17 q 60 362 60 206 q 147 615 60 518 q 369 713 235 713 q 582 628 504 713 q 660 388 660 543 q 653 306 660 343 l 172 306 q 251 146 185 201 q 431 90 318 90 q 615 139 544 90 l 615 36 q 497 0 568 11 q 351 -168 351 -76 q 376 -229 351 -208 q 448 -250 400 -250 q 536 -219 496 -250 l 536 -304 m 550 425 q 503 565 550 513 q 374 617 456 617 q 238 560 293 617 q 172 397 182 503 l 550 397 l 550 425 z "},"Ě":{"ha":696,"x_min":107,"x_max":629,"o":"m 429 1008 l 324 1008 l 147 1225 l 258 1225 l 378 1079 l 494 1225 l 606 1225 l 429 1008 m 629 0 l 107 0 l 107 936 l 622 936 l 622 838 l 219 838 l 219 517 l 575 517 l 575 418 l 219 418 l 219 99 l 629 99 l 629 0 z "},"ě":{"ha":725,"x_min":60,"x_max":660,"o":"m 433 778 l 328 778 l 151 994 l 263 994 l 382 849 l 499 994 l 610 994 l 433 778 m 550 425 q 503 565 550 513 q 374 617 456 617 q 238 560 293 617 q 172 397 182 503 l 550 397 l 550 425 m 415 -7 q 158 91 256 -7 q 60 353 60 189 q 147 615 60 518 q 369 713 235 713 q 582 628 504 713 q 660 388 660 543 q 653 306 660 343 l 172 306 q 251 146 185 201 q 431 90 318 90 q 615 139 544 90 l 615 36 q 415 -7 533 -7 z "},"Ğ":{"ha":931,"x_min":67,"x_max":838,"o":"m 740 1226 q 683 1065 740 1125 q 513 1006 626 1006 q 341 1065 399 1006 q 283 1226 283 1125 l 374 1226 q 407 1124 374 1163 q 512 1085 440 1085 q 617 1124 583 1085 q 650 1226 650 1163 l 740 1226 m 547 -11 q 199 117 331 -11 q 67 464 67 246 q 198 817 67 682 q 529 953 329 953 q 803 889 694 953 l 803 768 q 535 843 689 843 q 283 741 382 843 q 185 467 185 639 q 282 197 185 296 q 550 97 379 97 q 725 135 644 97 l 725 426 l 519 426 l 519 525 l 838 525 l 838 78 l 836 78 l 838 74 q 547 -11 725 -11 z "},"ğ":{"ha":763,"x_min":61,"x_max":669,"o":"m 633 994 q 576 833 633 893 q 406 774 519 774 q 234 833 292 774 q 176 994 176 893 l 267 994 q 300 892 267 931 q 405 853 333 853 q 510 892 476 853 q 543 994 543 931 l 633 994 m 363 615 q 322 615 363 615 q 228 544 281 615 q 175 356 175 472 q 233 177 175 239 q 367 115 292 115 q 501 174 442 115 q 560 359 560 233 q 503 550 560 485 q 363 615 446 615 m 669 57 q 581 -185 669 -104 q 358 -267 492 -267 q 133 -224 224 -267 l 133 -114 q 333 -165 222 -165 q 560 58 560 -165 l 560 138 q 361 18 490 18 q 147 107 232 18 q 61 353 61 196 q 140 613 61 511 q 356 714 219 714 q 560 588 492 714 l 560 704 l 669 704 l 669 57 z "},"Ģ":{"ha":931,"x_min":67,"x_max":838,"o":"m 431 -337 l 340 -337 l 457 -71 l 585 -71 l 431 -337 m 547 -11 q 199 117 331 -11 q 67 464 67 246 q 198 817 67 682 q 529 953 329 953 q 803 889 694 953 l 803 768 q 535 843 689 843 q 283 741 382 843 q 185 467 185 639 q 282 197 185 296 q 550 97 379 97 q 725 135 644 97 l 725 426 l 519 426 l 519 525 l 838 525 l 838 78 l 836 78 l 838 74 q 547 -11 725 -11 z "},"ģ":{"ha":763,"x_min":61,"x_max":669,"o":"m 490 778 l 364 778 l 518 1044 l 608 1044 l 490 778 m 363 615 q 322 615 363 615 q 228 544 281 615 q 175 356 175 472 q 233 177 175 239 q 367 115 292 115 q 501 174 442 115 q 560 359 560 233 q 503 550 560 485 q 363 615 446 615 m 669 57 q 581 -185 669 -104 q 358 -267 492 -267 q 133 -224 224 -267 l 133 -114 q 333 -165 222 -165 q 560 58 560 -165 l 560 138 q 361 18 490 18 q 147 107 232 18 q 61 353 61 196 q 140 613 61 511 q 356 714 219 714 q 560 588 492 714 l 560 704 l 669 704 l 669 57 z "},"Ī":{"ha":343,"x_min":-24,"x_max":368,"o":"m 368 1079 l -24 1079 l -24 1157 l 368 1157 l 368 1079 m 228 0 l 115 0 l 115 936 l 228 936 l 228 0 z "},"ī":{"ha":324,"x_min":-33,"x_max":358,"o":"m 358 847 l -33 847 l -33 925 l 358 925 l 358 847 m 217 0 l 107 0 l 107 704 l 217 704 l 217 0 z "},"Į":{"ha":343,"x_min":-22,"x_max":257,"o":"m 257 -310 q 140 -336 213 -336 q 22 -293 67 -336 q -22 -183 -22 -250 q 115 19 -22 -64 l 115 936 l 228 936 l 228 1 l 229 0 q 72 -174 72 -78 q 97 -235 72 -214 q 169 -256 121 -256 q 257 -225 217 -256 l 257 -310 z "},"į":{"ha":324,"x_min":-35,"x_max":244,"o":"m 244 -310 q 127 -336 200 -336 q 10 -293 54 -336 q -35 -185 -35 -250 q 5 -67 -35 -121 q 107 22 44 -14 l 107 704 l 217 704 l 217 0 q 60 -174 60 -78 q 84 -235 60 -214 q 156 -256 108 -256 q 244 -225 204 -256 l 244 -310 m 213 976 q 223 966 213 976 q 233 925 233 956 q 213 874 233 894 q 161 854 192 854 q 110 874 131 854 q 90 925 90 894 q 110 976 90 956 q 161 997 131 997 q 213 976 192 997 z "},"İ":{"ha":343,"x_min":101,"x_max":244,"o":"m 224 1173 q 234 1163 224 1173 q 244 1122 244 1153 q 224 1071 244 1092 q 174 1050 204 1050 q 122 1071 143 1050 q 101 1122 101 1092 q 122 1173 101 1153 q 174 1193 143 1193 q 224 1173 204 1193 m 228 0 l 115 0 l 115 936 l 228 936 l 228 0 z "},"ı":{"ha":324,"x_min":107,"x_max":217,"o":"m 217 0 l 107 0 l 107 704 l 217 704 l 217 0 z "},"Ķ":{"ha":796,"x_min":107,"x_max":757,"o":"m 219 0 l 107 0 l 107 936 l 219 936 l 219 0 m 319 -337 l 229 -337 l 347 -71 l 474 -71 l 319 -337 m 757 0 l 611 0 l 242 463 l 599 936 l 738 936 l 381 463 l 757 0 z "},"ķ":{"ha":667,"x_min":101,"x_max":639,"o":"m 253 -337 l 163 -337 l 281 -71 l 407 -71 l 253 -337 m 353 369 l 639 0 l 507 0 l 224 369 l 500 704 l 631 704 l 353 369 m 210 0 l 101 0 l 101 976 l 210 976 l 210 0 z "},"Ĺ":{"ha":663,"x_min":107,"x_max":622,"o":"m 450 1010 l 354 1010 l 492 1226 l 622 1226 l 450 1010 m 618 0 l 107 0 l 107 936 l 219 936 l 219 101 l 618 101 l 618 0 z "},"ĺ":{"ha":324,"x_min":107,"x_max":385,"o":"m 213 1056 l 117 1056 l 254 1272 l 385 1272 l 213 1056 m 217 0 l 107 0 l 107 982 l 217 982 l 217 0 z "},"Ļ":{"ha":663,"x_min":107,"x_max":618,"o":"m 618 0 l 107 0 l 107 936 l 219 936 l 219 101 l 618 101 l 618 0 m 283 -337 l 193 -337 l 310 -71 l 438 -71 l 283 -337 z "},"ļ":{"ha":324,"x_min":-18,"x_max":226,"o":"m 72 -337 l -18 -337 l 99 -71 l 226 -71 l 72 -337 m 217 0 l 107 0 l 107 982 l 217 982 l 217 0 z "},"Ľ":{"ha":663,"x_min":107,"x_max":618,"o":"m 435 707 l 344 707 l 463 974 l 589 974 l 435 707 m 618 0 l 107 0 l 107 936 l 219 936 l 219 101 l 618 101 l 618 0 z "},"ľ":{"ha":360,"x_min":107,"x_max":554,"o":"m 400 715 l 310 715 l 428 982 l 554 982 l 400 715 m 217 0 l 107 0 l 107 982 l 217 982 l 217 0 z "},"Ł":{"ha":694,"x_min":40,"x_max":646,"o":"m 247 101 l 646 101 l 646 0 l 135 0 l 135 340 l 40 275 l 40 382 l 135 447 l 135 936 l 247 936 l 247 525 l 456 669 l 456 561 l 247 418 l 247 101 z "},"ł":{"ha":404,"x_min":46,"x_max":363,"o":"m 250 0 l 140 0 l 140 422 l 46 356 l 46 463 l 140 529 l 140 982 l 250 982 l 250 607 l 363 688 l 363 579 l 250 500 l 250 0 z "},"Ń":{"ha":935,"x_min":107,"x_max":828,"o":"m 549 1008 l 453 1008 l 590 1225 l 721 1225 l 549 1008 m 219 0 l 107 0 l 107 936 l 249 936 l 483 542 l 721 136 q 715 540 715 271 l 715 936 l 828 936 l 828 0 l 686 0 q 213 801 297 649 q 219 394 219 657 l 219 0 z "},"ń":{"ha":750,"x_min":101,"x_max":657,"o":"m 465 778 l 369 778 l 507 994 l 638 994 l 465 778 m 657 0 l 547 0 l 547 456 q 508 574 547 533 q 397 615 468 615 q 267 554 325 615 q 210 385 210 493 l 210 0 l 101 0 l 101 704 l 210 704 l 210 582 q 432 714 272 714 q 596 651 535 714 q 657 485 657 589 l 657 0 z "},"Ņ":{"ha":935,"x_min":107,"x_max":828,"o":"m 393 -337 l 303 -337 l 419 -71 l 547 -71 l 393 -337 m 219 0 l 107 0 l 107 936 l 249 936 l 483 542 l 721 136 q 715 540 715 271 l 715 936 l 828 936 l 828 0 l 686 0 q 213 801 297 649 q 219 394 219 657 l 219 0 z "},"ņ":{"ha":750,"x_min":101,"x_max":657,"o":"m 297 -337 l 207 -337 l 324 -71 l 451 -71 l 297 -337 m 657 0 l 547 0 l 547 456 q 508 574 547 533 q 397 615 468 615 q 267 554 325 615 q 210 385 210 493 l 210 0 l 101 0 l 101 704 l 210 704 l 210 582 q 432 714 272 714 q 596 651 535 714 q 657 485 657 589 l 657 0 z "},"Ň":{"ha":935,"x_min":107,"x_max":828,"o":"m 543 1010 l 438 1010 l 261 1226 l 372 1226 l 492 1081 l 608 1226 l 719 1226 l 543 1010 m 219 0 l 107 0 l 107 936 l 249 936 l 483 542 l 721 136 q 715 540 715 271 l 715 936 l 828 936 l 828 0 l 686 0 q 213 801 297 649 q 219 394 219 657 l 219 0 z "},"ň":{"ha":750,"x_min":101,"x_max":657,"o":"m 451 778 l 346 778 l 169 994 l 281 994 l 400 849 l 517 994 l 628 994 l 451 778 m 657 0 l 547 0 l 547 456 q 508 574 547 533 q 397 615 468 615 q 267 554 325 615 q 210 385 210 493 l 210 0 l 101 0 l 101 704 l 210 704 l 210 582 q 432 714 272 714 q 596 651 535 714 q 657 485 657 589 l 657 0 z "},"Ō":{"ha":972,"x_min":67,"x_max":907,"o":"m 683 1079 l 292 1079 l 292 1157 l 683 1157 l 683 1079 m 487 849 q 416 849 487 849 q 265 748 344 849 q 185 473 185 647 q 267 197 185 299 q 490 96 350 96 q 709 196 631 96 q 788 472 788 296 q 708 749 788 649 q 487 849 629 849 m 488 954 q 586 954 488 954 q 795 824 683 954 q 907 473 907 694 q 794 120 907 251 q 489 -11 681 -11 q 182 121 297 -11 q 67 473 67 253 q 180 824 67 693 q 488 954 293 954 z "},"ō":{"ha":781,"x_min":60,"x_max":721,"o":"m 590 847 l 199 847 l 199 925 l 590 925 l 590 847 m 393 617 q 340 617 393 617 q 231 539 288 617 q 174 350 174 461 q 232 162 174 239 q 392 85 290 85 q 550 160 493 85 q 607 351 607 236 q 553 541 607 465 q 393 617 499 617 m 394 714 q 471 714 394 714 q 634 611 547 714 q 721 351 721 508 q 632 90 721 193 q 390 -12 543 -12 q 148 90 236 -12 q 60 348 60 192 q 151 609 60 504 q 394 714 242 714 z "},"Ő":{"ha":972,"x_min":67,"x_max":907,"o":"m 442 1010 l 357 1010 l 490 1226 l 618 1226 l 442 1010 m 658 1010 l 574 1010 l 714 1226 l 844 1226 l 658 1010 m 487 849 q 416 849 487 849 q 265 748 344 849 q 185 473 185 647 q 267 197 185 299 q 490 96 350 96 q 709 196 631 96 q 788 472 788 296 q 708 749 788 649 q 487 849 629 849 m 488 954 q 586 954 488 954 q 795 824 683 954 q 907 473 907 694 q 794 120 907 251 q 489 -11 681 -11 q 182 121 297 -11 q 67 473 67 253 q 180 824 67 693 q 488 954 293 954 z "},"ő":{"ha":781,"x_min":60,"x_max":756,"o":"m 353 778 l 268 778 l 401 994 l 529 994 l 353 778 m 569 778 l 485 778 l 625 994 l 756 994 l 569 778 m 393 617 q 340 617 393 617 q 231 539 288 617 q 174 350 174 461 q 232 162 174 239 q 392 85 290 85 q 550 160 493 85 q 607 351 607 236 q 553 541 607 465 q 393 617 499 617 m 394 714 q 471 714 394 714 q 634 611 547 714 q 721 351 721 508 q 632 90 721 193 q 390 -12 543 -12 q 148 90 236 -12 q 60 348 60 192 q 151 609 60 504 q 394 714 242 714 z "},"Œ":{"ha":1365,"x_min":67,"x_max":1299,"o":"m 1299 0 l 776 0 l 776 122 q 479 -11 667 -11 q 179 120 292 -11 q 67 472 67 251 q 177 824 67 693 q 478 954 288 954 q 776 822 668 954 l 776 936 l 1292 936 l 1292 838 l 886 838 l 886 517 l 1244 517 l 1244 418 l 886 418 l 886 99 l 1299 99 l 1299 0 m 481 849 q 410 849 481 849 q 262 749 339 849 q 185 473 185 649 q 265 197 185 297 q 483 96 344 96 q 699 196 622 96 q 776 472 776 296 q 699 749 776 649 q 481 849 622 849 z "},"œ":{"ha":1239,"x_min":60,"x_max":1181,"o":"m 933 -7 q 642 138 740 -7 q 376 -12 560 -12 q 143 89 226 -12 q 60 348 60 190 q 146 610 60 506 q 376 714 232 714 q 639 572 557 714 q 897 713 726 713 q 1107 627 1033 713 q 1181 382 1181 542 q 1174 306 1181 343 l 694 306 q 775 146 707 201 q 951 90 843 90 q 1131 139 1060 90 l 1131 36 q 933 -7 1049 -7 m 1022 568 q 999 592 1022 568 q 897 617 975 617 q 763 561 819 617 q 694 397 706 506 l 1071 397 l 1071 428 q 1022 568 1069 519 m 376 617 q 225 540 276 617 q 174 351 174 464 q 227 161 174 238 q 381 85 281 85 q 531 159 481 85 q 582 349 582 233 q 376 617 582 617 z "},"Ŕ":{"ha":761,"x_min":107,"x_max":729,"o":"m 424 1010 l 328 1010 l 465 1226 l 596 1226 l 424 1010 m 365 369 l 219 369 l 219 0 l 107 0 l 107 936 l 342 936 q 588 860 504 936 q 672 649 672 783 q 621 483 669 551 q 483 388 572 415 l 729 0 l 594 0 l 365 369 m 349 839 l 219 839 l 219 465 l 361 465 q 508 517 457 465 q 558 651 558 569 q 349 839 558 839 z "},"ŕ":{"ha":453,"x_min":100,"x_max":501,"o":"m 329 778 l 233 778 l 371 994 l 501 994 l 329 778 m 210 0 l 100 0 l 101 704 l 210 704 l 210 581 q 401 711 265 711 q 440 708 426 711 l 440 600 q 381 610 411 610 q 258 542 307 610 q 210 385 210 474 l 210 0 z "},"Ŗ":{"ha":761,"x_min":107,"x_max":729,"o":"m 308 -337 l 218 -337 l 336 -71 l 463 -71 l 308 -337 m 365 369 l 219 369 l 219 0 l 107 0 l 107 936 l 342 936 q 588 860 504 936 q 672 649 672 783 q 621 483 669 551 q 483 388 572 415 l 729 0 l 594 0 l 365 369 m 349 839 l 219 839 l 219 465 l 361 465 q 508 517 457 465 q 558 651 558 569 q 349 839 558 839 z "},"ŗ":{"ha":453,"x_min":-28,"x_max":440,"o":"m 210 0 l 100 0 l 101 704 l 210 704 l 210 581 q 401 711 265 711 q 440 708 426 711 l 440 600 q 381 610 411 610 q 258 542 307 610 q 210 385 210 474 l 210 0 m 63 -337 l -28 -337 l 89 -71 l 217 -71 l 63 -337 z "},"Ř":{"ha":761,"x_min":107,"x_max":729,"o":"m 439 1008 l 333 1008 l 157 1225 l 268 1225 l 388 1079 l 504 1225 l 615 1225 l 439 1008 m 365 369 l 219 369 l 219 0 l 107 0 l 107 936 l 342 936 q 588 860 504 936 q 672 649 672 783 q 621 483 669 551 q 483 388 572 415 l 729 0 l 594 0 l 365 369 m 349 839 l 219 839 l 219 465 l 361 465 q 508 517 457 465 q 558 651 558 569 q 349 839 558 839 z "},"ř":{"ha":453,"x_min":51,"x_max":510,"o":"m 333 776 l 228 776 l 51 993 l 163 993 l 282 847 l 399 993 l 510 993 l 333 776 m 210 0 l 100 0 l 101 704 l 210 704 l 210 581 q 401 711 265 711 q 440 708 426 711 l 440 600 q 381 610 411 610 q 258 542 307 610 q 210 385 210 474 l 210 0 z "},"Ś":{"ha":728,"x_min":92,"x_max":649,"o":"m 439 1008 l 343 1008 l 481 1225 l 611 1225 l 439 1008 m 649 249 q 564 58 649 125 q 339 -10 479 -10 q 96 50 199 -10 l 96 171 q 343 94 197 94 q 481 133 431 94 q 531 246 531 172 q 481 344 531 307 q 351 417 425 386 q 247 465 278 449 q 172 514 215 482 q 92 694 92 578 q 177 877 92 810 q 388 944 263 944 q 597 901 513 944 l 597 783 q 411 839 513 839 q 260 799 310 839 q 210 696 210 760 q 269 586 210 628 q 381 527 314 557 q 472 485 447 497 q 537 448 497 474 q 597 397 576 422 q 649 249 649 335 z "},"ś":{"ha":572,"x_min":78,"x_max":529,"o":"m 357 778 l 261 778 l 399 994 l 529 994 l 357 778 m 347 390 q 386 373 347 390 q 475 311 425 357 q 525 181 525 265 q 462 44 525 97 q 280 -8 399 -8 q 82 35 161 -8 l 82 142 q 282 86 175 86 q 379 111 346 86 q 413 183 413 136 q 376 257 413 229 q 256 317 339 285 q 126 396 174 350 q 78 524 78 442 q 144 659 78 607 q 314 711 210 711 q 485 681 418 711 l 485 576 q 310 615 421 615 q 222 590 254 615 q 189 531 189 564 q 199 480 189 499 q 236 443 208 461 q 347 390 269 422 z "},"Ş":{"ha":728,"x_min":92,"x_max":649,"o":"m 410 -71 q 435 -175 435 -106 q 381 -296 435 -244 q 226 -350 328 -347 l 226 -269 q 343 -171 343 -261 q 311 -71 343 -124 l 410 -71 m 649 249 q 564 58 649 125 q 339 -10 479 -10 q 96 50 199 -10 l 96 171 q 343 94 197 94 q 481 133 431 94 q 531 246 531 172 q 481 344 531 307 q 351 417 425 386 q 247 465 278 449 q 172 514 215 482 q 92 694 92 578 q 177 877 92 810 q 388 944 263 944 q 597 901 513 944 l 597 783 q 411 839 513 839 q 260 799 310 839 q 210 696 210 760 q 269 586 210 628 q 381 527 314 557 q 472 485 447 497 q 537 448 497 474 q 597 397 576 422 q 649 249 649 335 z "},"ş":{"ha":572,"x_min":78,"x_max":525,"o":"m 360 -71 q 385 -175 385 -106 q 331 -296 385 -244 q 176 -350 278 -347 l 176 -269 q 293 -171 293 -261 q 261 -71 293 -124 l 360 -71 m 347 390 q 386 373 347 390 q 475 311 425 357 q 525 181 525 265 q 462 44 525 97 q 280 -8 399 -8 q 82 35 161 -8 l 82 142 q 282 86 175 86 q 379 111 346 86 q 413 183 413 136 q 376 257 413 229 q 256 317 339 285 q 126 396 174 350 q 78 524 78 442 q 144 659 78 607 q 314 711 210 711 q 485 681 418 711 l 485 576 q 310 615 421 615 q 222 590 254 615 q 189 531 189 564 q 199 480 189 499 q 236 443 208 461 q 347 390 269 422 z "},"Š":{"ha":728,"x_min":92,"x_max":649,"o":"m 418 1008 l 313 1008 l 136 1225 l 247 1225 l 367 1079 l 483 1225 l 594 1225 l 418 1008 m 649 249 q 564 58 649 125 q 339 -10 479 -10 q 96 50 199 -10 l 96 171 q 343 94 197 94 q 481 133 431 94 q 531 246 531 172 q 481 344 531 307 q 351 417 425 386 q 247 465 278 449 q 172 514 215 482 q 92 694 92 578 q 177 877 92 810 q 388 944 263 944 q 597 901 513 944 l 597 783 q 411 839 513 839 q 260 799 310 839 q 210 696 210 760 q 269 586 210 628 q 381 527 314 557 q 472 485 447 497 q 537 448 497 474 q 597 397 576 422 q 649 249 649 335 z "},"š":{"ha":572,"x_min":78,"x_max":550,"o":"m 374 778 l 268 778 l 92 994 l 203 994 l 322 849 l 439 994 l 550 994 l 374 778 m 347 390 q 386 373 347 390 q 475 311 425 357 q 525 181 525 265 q 462 44 525 97 q 280 -8 399 -8 q 82 35 161 -8 l 82 142 q 282 86 175 86 q 379 111 346 86 q 413 183 413 136 q 376 257 413 229 q 256 317 339 285 q 126 396 174 350 q 78 524 78 442 q 144 659 78 607 q 314 711 210 711 q 485 681 418 711 l 485 576 q 310 615 421 615 q 222 590 254 615 q 189 531 189 564 q 199 480 189 499 q 236 443 208 461 q 347 390 269 422 z "},"Ţ":{"ha":669,"x_min":25,"x_max":643,"o":"m 385 -71 q 410 -175 410 -106 q 356 -296 410 -244 q 201 -350 303 -347 l 201 -269 q 318 -171 318 -261 q 286 -71 318 -124 l 385 -71 m 643 838 l 390 838 l 390 0 l 278 0 l 278 838 l 25 838 l 25 936 l 643 936 l 643 838 z "},"ţ":{"ha":513,"x_min":31,"x_max":454,"o":"m 324 -71 q 349 -175 349 -106 q 295 -296 349 -244 q 140 -350 242 -347 l 140 -269 q 257 -171 257 -261 q 225 -71 257 -124 l 324 -71 m 351 -7 q 143 206 143 -7 l 143 615 l 31 615 l 31 704 l 143 704 l 143 879 l 253 879 l 253 704 l 447 704 l 447 615 l 253 615 l 253 203 q 358 90 253 90 q 454 122 413 90 l 454 18 q 351 -7 408 -7 z "},"Ť":{"ha":669,"x_min":25,"x_max":643,"o":"m 388 1010 l 282 1010 l 106 1226 l 217 1226 l 336 1081 l 453 1226 l 564 1226 l 388 1010 m 643 838 l 390 838 l 390 0 l 278 0 l 278 838 l 25 838 l 25 936 l 643 936 l 643 838 z "},"ť":{"ha":513,"x_min":31,"x_max":579,"o":"m 425 788 l 335 788 l 453 1056 l 579 1056 l 425 788 m 351 -7 q 143 206 143 -7 l 143 615 l 31 615 l 31 704 l 143 704 l 143 879 l 253 879 l 253 704 l 447 704 l 447 615 l 253 615 l 253 203 q 358 90 253 90 q 454 122 413 90 l 454 18 q 351 -7 408 -7 z "},"Ū":{"ha":896,"x_min":106,"x_max":790,"o":"m 649 1079 l 257 1079 l 257 1157 l 649 1157 l 649 1079 m 790 356 q 699 82 790 175 q 447 -11 608 -11 q 196 80 286 -11 q 106 344 106 171 l 106 936 l 218 936 l 218 346 q 280 156 218 217 q 446 94 342 94 q 678 353 678 94 l 678 936 l 790 936 l 790 356 z "},"ū":{"ha":750,"x_min":93,"x_max":649,"o":"m 567 847 l 175 847 l 175 925 l 567 925 l 567 847 m 649 0 l 539 0 l 539 122 q 318 -8 483 -8 q 153 53 214 -8 q 93 219 93 115 l 93 704 l 203 704 l 203 247 q 242 131 203 171 q 358 90 281 90 q 487 151 435 90 q 539 317 539 213 l 539 704 l 649 704 l 649 0 z "},"Ů":{"ha":896,"x_min":106,"x_max":790,"o":"m 452 1218 q 436 1218 452 1218 q 399 1197 421 1218 q 378 1144 378 1175 q 399 1090 378 1113 q 451 1068 421 1068 q 504 1090 482 1068 q 526 1144 526 1113 q 505 1197 526 1175 q 452 1218 483 1218 m 556 1247 q 577 1225 556 1247 q 599 1142 599 1203 q 556 1038 599 1081 q 451 994 513 994 q 347 1038 390 994 q 304 1142 304 1081 q 347 1247 304 1203 q 451 1290 390 1290 q 556 1247 513 1290 m 790 356 q 699 82 790 175 q 447 -11 608 -11 q 196 80 286 -11 q 106 344 106 171 l 106 936 l 218 936 l 218 346 q 280 156 218 217 q 446 94 342 94 q 678 353 678 94 l 678 936 l 790 936 l 790 356 z "},"ů":{"ha":750,"x_min":93,"x_max":649,"o":"m 383 988 q 367 988 383 988 q 330 966 351 988 q 308 913 308 944 q 330 860 308 882 q 382 838 351 838 q 435 860 413 838 q 457 913 457 882 q 435 966 457 944 q 383 988 414 988 m 486 1016 q 508 994 486 1016 q 529 911 529 972 q 486 807 529 850 q 382 764 443 764 q 278 807 321 764 q 235 911 235 850 q 278 1016 235 972 q 382 1060 321 1060 q 486 1016 443 1060 m 649 0 l 539 0 l 539 122 q 318 -8 483 -8 q 153 53 214 -8 q 93 219 93 115 l 93 704 l 203 704 l 203 247 q 242 131 203 171 q 358 90 281 90 q 487 151 435 90 q 539 317 539 213 l 539 704 l 649 704 l 649 0 z "},"Ű":{"ha":896,"x_min":106,"x_max":790,"o":"m 378 1010 l 293 1010 l 426 1226 l 554 1226 l 378 1010 m 594 1010 l 510 1010 l 650 1226 l 781 1226 l 594 1010 m 790 356 q 699 82 790 175 q 447 -11 608 -11 q 196 80 286 -11 q 106 344 106 171 l 106 936 l 218 936 l 218 346 q 280 156 218 217 q 446 94 342 94 q 678 353 678 94 l 678 936 l 790 936 l 790 356 z "},"ű":{"ha":750,"x_min":93,"x_max":713,"o":"m 310 778 l 225 778 l 358 994 l 486 994 l 310 778 m 526 778 l 442 778 l 582 994 l 713 994 l 526 778 m 649 0 l 539 0 l 539 122 q 318 -8 483 -8 q 153 53 214 -8 q 93 219 93 115 l 93 704 l 203 704 l 203 247 q 242 131 203 171 q 358 90 281 90 q 487 151 435 90 q 539 317 539 213 l 539 704 l 649 704 l 649 0 z "},"Ų":{"ha":896,"x_min":106,"x_max":790,"o":"m 790 356 q 582 10 790 78 q 426 -164 426 -68 q 451 -225 426 -204 q 523 -246 475 -246 q 611 -215 571 -246 l 611 -300 q 494 -326 567 -326 q 376 -283 421 -326 q 332 -174 332 -240 q 415 -10 332 -86 q 188 89 269 -1 q 106 344 106 179 l 106 936 l 218 936 l 218 346 q 280 156 218 217 q 446 94 342 94 q 678 353 678 94 l 678 936 l 790 936 l 790 356 z "},"ų":{"ha":750,"x_min":93,"x_max":676,"o":"m 676 -310 q 559 -336 632 -336 q 442 -293 486 -336 q 397 -185 397 -250 q 437 -67 397 -121 q 539 22 476 -14 l 539 122 q 318 -8 483 -8 q 153 53 214 -8 q 93 219 93 115 l 93 704 l 203 704 l 203 247 q 242 131 203 171 q 358 90 281 90 q 487 151 435 90 q 539 317 539 213 l 539 704 l 649 704 l 649 0 q 492 -174 492 -78 q 516 -235 492 -214 q 588 -256 540 -256 q 676 -225 636 -256 l 676 -310 z "},"Ÿ":{"ha":824,"x_min":36,"x_max":788,"o":"m 324 1169 q 334 1159 324 1169 q 344 1118 344 1149 q 324 1067 344 1088 q 274 1046 304 1046 q 222 1067 243 1046 q 201 1118 201 1088 q 222 1169 201 1149 q 274 1189 243 1189 q 324 1169 304 1189 m 604 1169 q 615 1159 604 1169 q 625 1118 625 1149 q 604 1067 625 1088 q 553 1046 583 1046 q 502 1067 522 1046 q 482 1118 482 1088 q 502 1169 482 1149 q 553 1189 522 1189 q 604 1169 583 1189 m 467 0 l 354 0 l 354 347 l 36 936 l 167 936 q 410 450 385 514 q 657 936 417 471 l 788 936 l 467 349 l 467 0 z "},"Ź":{"ha":790,"x_min":72,"x_max":718,"o":"m 461 1010 l 365 1010 l 503 1226 l 633 1226 l 461 1010 m 718 0 l 72 0 l 72 93 l 567 840 l 79 840 l 79 936 l 697 936 l 697 844 l 203 96 l 718 96 l 718 0 z "},"ź":{"ha":629,"x_min":61,"x_max":568,"o":"m 374 778 l 278 778 l 415 994 l 546 994 l 374 778 m 568 0 l 61 0 l 61 86 l 418 607 l 75 607 l 75 704 l 549 704 l 549 624 l 188 99 l 568 99 l 568 0 z "},"Ż":{"ha":790,"x_min":72,"x_max":718,"o":"m 456 1173 q 466 1163 456 1173 q 476 1122 476 1153 q 456 1071 476 1092 q 406 1050 436 1050 q 354 1071 375 1050 q 333 1122 333 1092 q 354 1173 333 1153 q 406 1193 375 1193 q 456 1173 436 1193 m 718 0 l 72 0 l 72 93 l 567 840 l 79 840 l 79 936 l 697 936 l 697 844 l 203 96 l 718 96 l 718 0 z "},"ż":{"ha":629,"x_min":61,"x_max":568,"o":"m 388 937 q 398 927 388 937 q 408 886 408 917 q 388 835 408 856 q 338 814 368 814 q 286 835 307 814 q 265 886 265 856 q 286 937 265 917 q 338 957 307 957 q 388 937 368 957 m 568 0 l 61 0 l 61 86 l 418 607 l 75 607 l 75 704 l 549 704 l 549 624 l 188 99 l 568 99 l 568 0 z "},"Ž":{"ha":790,"x_min":72,"x_max":718,"o":"m 446 1010 l 340 1010 l 164 1226 l 275 1226 l 394 1081 l 511 1226 l 622 1226 l 446 1010 m 718 0 l 72 0 l 72 93 l 567 840 l 79 840 l 79 936 l 697 936 l 697 844 l 203 96 l 718 96 l 718 0 z "},"ž":{"ha":629,"x_min":61,"x_max":568,"o":"m 389 778 l 283 778 l 107 994 l 218 994 l 338 849 l 454 994 l 565 994 l 389 778 m 568 0 l 61 0 l 61 86 l 418 607 l 75 607 l 75 704 l 549 704 l 549 624 l 188 99 l 568 99 l 568 0 z "},"ƒ":{"ha":544,"x_min":-92,"x_max":574,"o":"m 3 -357 q -92 -343 -54 -357 l -92 -243 q -8 -258 -54 -258 q 119 -100 90 -258 l 210 426 l 75 426 l 75 515 l 225 515 l 257 700 q 331 883 278 821 q 482 946 385 946 q 574 933 539 946 l 574 833 q 494 847 536 847 q 365 689 393 847 l 335 515 l 472 515 l 472 426 l 319 426 l 226 -111 q 153 -294 206 -232 q 3 -357 100 -357 z "},"Ș":{"ha":728,"x_min":92,"x_max":649,"o":"m 279 -337 l 189 -337 l 306 -71 l 433 -71 l 279 -337 m 649 249 q 564 58 649 125 q 339 -10 479 -10 q 96 50 199 -10 l 96 171 q 343 94 197 94 q 481 133 431 94 q 531 246 531 172 q 481 344 531 307 q 351 417 425 386 q 247 465 278 449 q 172 514 215 482 q 92 694 92 578 q 177 877 92 810 q 388 944 263 944 q 597 901 513 944 l 597 783 q 411 839 513 839 q 260 799 310 839 q 210 696 210 760 q 269 586 210 628 q 381 527 314 557 q 472 485 447 497 q 537 448 497 474 q 597 397 576 422 q 649 249 649 335 z "},"ș":{"ha":572,"x_min":78,"x_max":525,"o":"m 211 -337 l 121 -337 l 238 -71 l 365 -71 l 211 -337 m 347 390 q 386 373 347 390 q 475 311 425 357 q 525 181 525 265 q 462 44 525 97 q 280 -8 399 -8 q 82 35 161 -8 l 82 142 q 282 86 175 86 q 379 111 346 86 q 413 183 413 136 q 376 257 413 229 q 256 317 339 285 q 126 396 174 350 q 78 524 78 442 q 144 659 78 607 q 314 711 210 711 q 485 681 418 711 l 485 576 q 310 615 421 615 q 222 590 254 615 q 189 531 189 564 q 199 480 189 499 q 236 443 208 461 q 347 390 269 422 z "},"Ț":{"ha":669,"x_min":25,"x_max":643,"o":"m 643 838 l 390 838 l 390 0 l 278 0 l 278 838 l 25 838 l 25 936 l 643 936 l 643 838 m 240 -337 l 150 -337 l 267 -71 l 394 -71 l 240 -337 z "},"ț":{"ha":513,"x_min":31,"x_max":454,"o":"m 246 -337 l 156 -337 l 272 -71 l 400 -71 l 246 -337 m 351 -7 q 143 206 143 -7 l 143 615 l 31 615 l 31 704 l 143 704 l 143 879 l 253 879 l 253 704 l 447 704 l 447 615 l 253 615 l 253 203 q 358 90 253 90 q 454 122 413 90 l 454 18 q 351 -7 408 -7 z "},"ˆ":{"ha":585,"x_min":63,"x_max":521,"o":"m 174 892 l 63 892 l 239 1108 l 344 1108 l 521 892 l 410 892 l 292 1038 l 174 892 z "},"ˇ":{"ha":585,"x_min":63,"x_max":521,"o":"m 344 892 l 239 892 l 63 1108 l 174 1108 l 293 963 l 410 1108 l 521 1108 l 344 892 z "},"ˉ":{"ha":585,"x_min":96,"x_max":488,"o":"m 488 963 l 96 963 l 96 1040 l 488 1040 l 488 963 z "},"˘":{"ha":585,"x_min":64,"x_max":521,"o":"m 521 1108 q 464 947 521 1007 q 293 888 407 888 q 122 947 179 888 q 64 1108 64 1007 l 154 1108 q 188 1006 154 1044 q 292 967 221 967 q 397 1006 364 967 q 431 1108 431 1044 l 521 1108 z "},"˙":{"ha":585,"x_min":221,"x_max":364,"o":"m 344 1056 q 354 1046 344 1056 q 364 1006 364 1036 q 344 954 364 975 q 293 933 324 933 q 242 954 263 933 q 221 1006 221 975 q 242 1056 221 1036 q 293 1076 263 1076 q 344 1056 324 1076 z "},"˚":{"ha":585,"x_min":144,"x_max":439,"o":"m 292 1076 q 276 1076 292 1076 q 240 1055 261 1076 q 218 1002 218 1033 q 240 949 218 971 q 292 926 261 926 q 344 949 322 926 q 367 1002 367 971 q 344 1055 367 1033 q 292 1076 322 1076 m 396 1105 q 417 1083 396 1105 q 439 1000 439 1061 q 396 896 439 939 q 292 853 353 853 q 188 896 231 853 q 144 1000 144 939 q 188 1105 144 1061 q 292 1149 231 1149 q 396 1105 353 1149 z "},"˛":{"ha":585,"x_min":153,"x_max":432,"o":"m 432 -294 q 315 -321 388 -321 q 197 -278 242 -321 q 153 -161 153 -235 q 216 -24 153 -87 q 361 68 279 40 l 404 15 q 247 -158 247 -62 q 272 -219 247 -199 q 344 -240 296 -240 q 432 -210 392 -240 l 432 -294 z "},"˜":{"ha":585,"x_min":69,"x_max":539,"o":"m 224 975 q 129 908 167 975 l 69 960 q 127 1030 89 1001 q 208 1058 165 1058 q 311 1028 251 1058 q 396 997 371 997 q 471 1057 443 997 l 539 1010 q 401 914 494 914 q 305 944 364 914 q 224 975 246 975 z "},"˝":{"ha":585,"x_min":49,"x_max":536,"o":"m 133 892 l 49 892 l 182 1108 l 310 1108 l 133 892 m 350 892 l 265 892 l 406 1108 l 536 1108 l 350 892 z "},"π":{"ha":808,"x_min":33,"x_max":783,"o":"m 783 615 l 651 615 l 651 0 l 542 0 l 542 615 l 276 615 l 276 229 q 220 51 276 103 q 57 0 164 0 l 57 96 q 142 122 118 96 q 167 225 167 149 l 167 615 l 33 615 l 33 704 l 783 704 l 783 615 z "},"।":{"ha":476,"x_min":222,"x_max":332,"o":"m 332 0 l 222 0 l 222 892 l 332 892 l 332 0 z "},"॥":{"ha":778,"x_min":222,"x_max":632,"o":"m 332 0 l 222 0 l 222 892 l 332 892 l 332 0 m 632 0 l 524 0 l 524 892 l 632 892 l 632 0 z "},"ഁ":{"ha":0,"x_min":-483,"x_max":122,"o":"m -176 1293 q -157 1293 -176 1293 q -115 1270 -137 1293 q -92 1208 -92 1247 q -114 1145 -92 1168 q -176 1122 -136 1122 q -240 1146 -217 1122 q -262 1208 -262 1169 q -239 1270 -262 1247 q -176 1293 -215 1293 m 122 1182 q 42 974 122 1049 q -180 899 -39 899 q -402 974 -321 899 q -483 1182 -483 1049 l -378 1182 q -326 1049 -378 1100 q -178 997 -274 997 q -33 1047 -83 997 q 17 1182 17 1097 l 122 1182 z "},"ം":{"ha":597,"x_min":50,"x_max":567,"o":"m 308 -14 q 253 -14 308 -14 q 124 64 197 -14 q 50 258 50 142 q 124 450 50 374 q 309 526 197 526 q 494 450 421 526 q 567 258 567 374 q 493 64 567 142 q 308 -14 419 -14 m 197 378 q 176 355 197 378 q 156 256 156 331 q 198 133 156 181 q 308 86 240 86 q 418 133 376 86 q 460 256 460 181 q 417 378 460 331 q 306 426 375 426 q 197 378 238 426 z "},"ഃ":{"ha":456,"x_min":58,"x_max":397,"o":"m 228 -14 q 192 -14 228 -14 q 108 37 157 -14 q 58 165 58 88 q 107 293 58 243 q 228 343 156 343 q 349 293 300 343 q 397 165 397 243 q 348 37 397 88 q 228 -14 299 -14 m 228 264 q 208 264 228 264 q 166 237 189 264 q 143 164 143 210 q 167 91 143 118 q 228 64 190 64 q 290 91 267 64 q 313 164 313 118 q 290 237 313 210 q 228 264 267 264 m 228 457 q 192 457 228 457 q 108 508 157 457 q 58 637 58 560 q 108 764 58 714 q 228 814 157 814 q 349 764 300 814 q 397 637 397 714 q 348 508 397 560 q 228 457 299 457 m 166 708 q 155 694 166 708 q 143 635 143 681 q 167 562 143 589 q 228 535 190 535 q 290 562 267 535 q 313 635 313 589 q 290 709 313 682 q 228 736 267 736 q 166 708 189 736 z "},"അ":{"ha":2139,"x_min":74,"x_max":2076,"o":"m 1796 410 q 1762 410 1796 410 q 1683 362 1728 410 q 1638 244 1638 314 q 1681 128 1638 174 q 1792 82 1725 82 q 1908 128 1860 82 q 1956 244 1956 174 q 1910 363 1956 315 q 1796 410 1864 410 m 763 697 q 613 572 667 660 q 560 363 560 485 q 627 161 560 240 q 796 82 694 82 q 907 122 868 82 q 946 218 946 161 q 906 307 946 275 q 807 339 867 339 l 768 339 l 768 440 l 808 440 q 890 473 861 440 q 918 558 918 506 q 763 697 918 656 m 428 92 l 428 -14 q 170 99 267 -14 q 74 369 74 211 q 203 694 74 574 q 538 814 333 814 q 739 785 654 814 q 913 814 810 814 q 1119 756 1015 814 q 1271 590 1222 697 q 1416 751 1317 689 q 1635 814 1515 814 q 1953 675 1831 814 q 2076 325 2076 536 q 1997 81 2076 176 q 1797 -14 1918 -14 q 1603 63 1676 -14 q 1529 249 1529 139 q 1603 433 1529 358 q 1788 507 1678 507 q 1896 478 1846 507 q 1972 400 1946 450 q 1856 632 1951 546 q 1636 718 1760 718 q 1419 628 1513 718 q 1325 399 1325 539 l 1325 0 l 1218 0 l 1218 400 q 1126 635 1218 551 q 914 724 1033 719 q 1032 556 1032 651 q 910 394 1032 421 q 1018 338 976 381 q 1060 225 1060 294 q 991 52 1060 118 q 799 -14 922 -14 q 544 94 638 -14 q 450 369 450 201 q 495 567 450 476 q 619 719 540 658 q 538 721 593 721 q 284 629 381 721 q 188 369 188 538 q 257 170 188 249 q 428 92 326 92 z "},"ആ":{"ha":2194,"x_min":74,"x_max":2164,"o":"m 763 697 q 613 572 667 660 q 560 363 560 485 q 627 161 560 240 q 796 82 694 82 q 907 122 868 82 q 946 218 946 161 q 906 307 946 275 q 807 339 867 339 l 768 339 l 768 440 l 808 440 q 890 473 861 440 q 918 558 918 506 q 763 697 918 656 m 739 785 q 913 814 810 814 q 1119 756 1015 814 q 1271 590 1222 697 q 1413 751 1315 688 q 1633 814 1511 814 q 1949 681 1829 814 q 2072 368 2068 549 q 2164 106 2164 254 q 2047 -202 2164 -81 q 1747 -324 1931 -324 q 1600 -307 1688 -324 l 1600 -207 q 1746 -225 1681 -225 q 1969 -135 1882 -225 q 2057 117 2057 -44 q 2049 194 2057 158 q 1951 42 2018 97 q 1792 -14 1883 -14 q 1601 63 1675 -14 q 1528 249 1528 139 q 1604 432 1528 358 q 1794 506 1681 506 q 1953 467 1878 506 q 1835 650 1921 582 q 1631 718 1750 718 q 1418 630 1511 718 q 1325 400 1325 542 l 1325 0 l 1218 0 l 1218 400 q 1126 635 1218 551 q 914 724 1033 719 q 1032 556 1032 651 q 910 394 1032 421 q 1018 338 976 381 q 1060 225 1060 294 q 991 52 1060 118 q 799 -14 922 -14 q 544 94 638 -14 q 450 369 450 201 q 495 567 450 476 q 619 719 540 658 q 538 721 593 721 q 284 629 381 721 q 188 369 188 538 q 257 170 188 249 q 428 92 326 92 l 428 -14 q 170 99 267 -14 q 74 369 74 211 q 203 694 74 574 q 538 814 333 814 q 739 785 654 814 m 1640 244 q 1640 208 1640 244 q 1683 127 1640 172 q 1797 82 1725 82 q 1919 153 1869 82 q 1969 340 1969 224 l 1969 342 q 1796 408 1899 408 q 1684 363 1728 408 q 1640 244 1640 317 z "},"ഇ":{"ha":1269,"x_min":63,"x_max":1194,"o":"m 896 814 q 1106 724 1018 814 q 1194 476 1194 635 q 1070 164 1194 283 q 725 44 946 44 l 303 44 q 209 21 242 44 q 176 -44 176 -3 q 210 -110 176 -86 q 307 -133 243 -133 l 1168 -133 l 1168 -229 l 283 -229 q 119 -178 175 -229 q 63 -44 63 -128 q 122 90 63 39 q 288 140 182 140 l 683 140 q 980 225 879 140 q 1081 475 1081 310 q 1030 650 1081 582 q 893 718 979 718 q 753 654 807 718 q 699 500 699 590 l 699 353 l 592 353 l 592 472 q 519 648 592 578 q 359 718 447 718 q 224 672 271 718 q 176 555 176 626 q 219 442 176 483 q 417 407 290 378 l 417 303 q 333 296 378 296 q 138 361 214 296 q 63 543 63 426 q 139 737 63 660 q 349 814 215 814 q 643 643 543 814 q 736 767 671 721 q 896 814 801 814 z "},"ഈ":{"ha":2411,"x_min":63,"x_max":2336,"o":"m 2336 457 q 2228 142 2336 265 q 1946 19 2121 19 q 1807 43 1871 19 l 1807 144 q 1943 124 1878 124 q 2146 217 2069 124 q 2222 447 2222 310 q 2174 651 2222 585 q 2051 717 2125 717 q 1932 666 1976 717 q 1888 539 1888 615 l 1888 456 l 1775 456 l 1775 536 q 1727 669 1775 621 q 1613 717 1679 717 q 1502 666 1547 717 q 1457 541 1457 615 q 1490 385 1457 467 l 1376 385 q 1346 525 1346 446 q 1422 733 1346 651 q 1611 814 1497 814 q 1744 776 1686 814 q 1832 682 1801 739 q 1913 777 1860 740 q 2042 814 1967 814 q 2256 715 2176 814 q 2336 457 2336 615 m 1168 -229 l 283 -229 q 119 -178 175 -229 q 63 -44 63 -128 q 122 90 63 39 q 288 140 182 140 l 683 140 q 980 225 879 140 q 1081 475 1081 310 q 1030 650 1081 582 q 893 718 979 718 q 753 654 807 718 q 699 500 699 590 l 699 353 l 592 353 l 592 472 q 519 648 592 578 q 359 718 447 718 q 224 672 271 718 q 176 555 176 626 q 219 442 176 483 q 417 407 290 378 l 417 303 q 333 296 378 296 q 138 361 214 296 q 63 543 63 426 q 139 737 63 660 q 349 814 215 814 q 643 643 543 814 q 736 767 671 721 q 896 814 801 814 q 1106 724 1018 814 q 1194 476 1194 635 q 1070 164 1194 283 q 725 44 946 44 l 303 44 q 209 21 242 44 q 176 -44 176 -3 q 210 -110 176 -86 q 307 -133 243 -133 l 1168 -133 l 1168 -229 z "},"ഉ":{"ha":975,"x_min":63,"x_max":900,"o":"m 280 543 q 255 543 280 543 q 199 508 231 543 q 167 427 167 474 q 199 346 167 381 q 280 311 231 311 q 362 346 329 311 q 394 428 394 381 q 362 509 394 475 q 280 543 329 543 m 900 -237 l 297 -237 q 133 -187 189 -237 q 76 -52 76 -136 q 137 81 76 32 q 301 132 197 131 l 493 132 q 786 426 786 132 q 702 635 786 551 q 481 718 618 718 q 222 610 319 718 q 414 592 329 650 q 499 424 499 533 q 439 280 499 340 q 285 219 379 219 q 126 284 190 219 q 63 456 63 349 q 182 710 63 607 q 483 814 301 814 q 782 703 664 814 q 900 423 900 593 q 803 144 900 253 q 522 35 707 35 l 314 35 q 222 11 254 35 q 190 -54 190 -12 q 321 -140 190 -140 l 900 -140 l 900 -237 z "},"ഊ":{"ha":2093,"x_min":63,"x_max":2018,"o":"m 2018 457 q 1910 142 2018 265 q 1628 19 1803 19 q 1489 43 1553 19 l 1489 144 q 1625 124 1560 124 q 1828 217 1751 124 q 1904 447 1904 310 q 1856 651 1904 585 q 1733 717 1807 717 q 1614 666 1658 717 q 1569 539 1569 615 l 1569 456 l 1457 456 l 1457 536 q 1409 669 1457 621 q 1295 717 1361 717 q 1184 666 1229 717 q 1139 541 1139 615 q 1172 385 1139 467 l 1058 385 q 1028 525 1028 446 q 1103 733 1028 651 q 1293 814 1179 814 q 1426 776 1368 814 q 1514 682 1483 739 q 1595 777 1542 740 q 1724 814 1649 814 q 1938 715 1858 814 q 2018 457 2018 615 m 280 543 q 255 543 280 543 q 199 508 231 543 q 167 427 167 474 q 199 346 167 381 q 280 311 231 311 q 362 346 329 311 q 394 428 394 381 q 362 509 394 475 q 280 543 329 543 m 900 -237 l 297 -237 q 133 -187 189 -237 q 76 -52 76 -136 q 137 81 76 32 q 301 132 197 131 l 493 132 q 786 426 786 132 q 702 635 786 551 q 481 718 618 718 q 222 610 319 718 q 414 592 329 650 q 499 424 499 533 q 439 280 499 340 q 285 219 379 219 q 126 284 190 219 q 63 456 63 349 q 182 710 63 607 q 483 814 301 814 q 782 703 664 814 q 900 423 900 593 q 803 144 900 253 q 522 35 707 35 l 314 35 q 222 11 254 35 q 190 -54 190 -12 q 321 -140 190 -140 l 900 -140 l 900 -237 z "},"ഋ":{"ha":1231,"x_min":64,"x_max":1167,"o":"m 927 722 q 899 722 927 722 q 833 683 871 722 q 796 590 796 644 q 833 497 796 536 q 927 458 871 458 q 1019 497 983 458 q 1054 590 1054 535 q 1019 683 1054 644 q 927 722 983 722 m 303 722 q 275 722 303 722 q 212 683 247 722 q 176 590 176 644 q 212 497 176 535 q 303 458 247 458 q 397 497 360 458 q 433 590 433 535 q 397 683 433 644 q 303 722 360 722 m 204 -24 q 313 -144 204 -103 q 614 -186 422 -186 q 916 -144 806 -186 q 1026 -22 1026 -101 q 615 133 1026 133 q 204 -24 204 133 m 915 186 q 1076 115 1014 167 q 1139 -26 1139 64 q 1064 -174 1139 -115 q 614 -282 926 -282 q 167 -175 303 -282 q 92 -29 92 -115 q 317 186 92 143 q 138 324 213 232 q 64 538 64 415 q 133 737 64 660 q 306 814 203 814 q 476 747 410 814 q 543 586 543 681 q 479 431 543 492 q 337 371 415 371 q 210 406 258 371 q 368 266 265 304 q 615 228 471 228 q 863 266 758 228 q 1022 406 967 304 q 895 371 972 371 q 753 431 818 371 q 688 586 688 492 q 753 747 688 681 q 924 814 819 814 q 1097 737 1028 814 q 1167 538 1167 660 q 1093 324 1167 415 q 915 186 1019 232 z "},"ഌ":{"ha":1676,"x_min":64,"x_max":1613,"o":"m 1350 672 q 1249 532 1292 622 q 1206 331 1206 442 q 1244 153 1206 221 q 1352 85 1283 85 q 1460 153 1421 85 q 1499 333 1499 222 q 1456 534 1499 444 q 1350 672 1413 624 m 326 672 q 221 534 264 624 q 178 333 178 444 q 217 153 178 222 q 324 85 256 85 q 432 153 393 85 q 471 331 471 221 q 428 532 471 442 q 326 672 385 622 m 422 706 q 535 556 485 656 q 585 321 585 456 q 518 86 585 186 q 325 -14 451 -14 q 131 87 199 -14 q 64 339 64 188 q 188 678 64 543 q 497 814 311 814 q 703 753 613 814 q 839 599 794 692 q 972 752 882 690 q 1179 814 1063 814 q 1489 678 1365 814 q 1613 339 1613 543 q 1545 87 1613 188 q 1351 -14 1478 -14 q 1158 86 1225 -14 q 1092 321 1092 186 q 1142 556 1092 456 q 1254 706 1192 656 q 1179 718 1217 718 q 978 627 1063 717 q 893 403 893 538 l 893 0 l 783 0 l 783 403 q 699 628 783 539 q 497 718 615 717 q 422 706 460 718 z "},"എ":{"ha":1868,"x_min":57,"x_max":1783,"o":"m 1175 -178 q 1264 -76 1264 -178 l 1264 0 l 989 0 q 1067 -128 1013 -78 q 1175 -178 1122 -178 m 1368 -33 q 1175 -276 1368 -276 q 997 -205 1081 -276 q 874 0 914 -133 l 513 0 l 513 92 q 615 321 615 185 q 556 493 615 424 q 393 563 496 563 q 231 491 290 563 q 171 316 171 419 q 226 152 171 213 q 351 92 282 92 l 351 -14 q 136 86 215 -14 q 57 322 57 186 q 149 558 57 457 q 394 658 242 658 q 638 560 546 658 q 731 326 731 463 q 646 90 731 190 q 765 96 685 96 l 863 96 q 854 239 854 163 q 981 649 854 485 q 1322 814 1107 814 q 1572 735 1465 814 q 1731 531 1678 657 q 1783 269 1783 404 q 1747 -1 1783 135 q 1651 -249 1711 -137 l 1531 -249 q 1631 -8 1593 -139 q 1668 243 1668 124 q 1574 587 1668 456 q 1322 718 1481 718 q 1066 582 1164 718 q 968 242 968 446 q 976 96 968 168 l 1264 96 l 1264 515 l 1368 515 l 1368 -33 z "},"ഏ":{"ha":1928,"x_min":57,"x_max":1857,"o":"m 1175 -178 q 1264 -76 1264 -178 l 1264 0 l 989 0 q 1067 -128 1013 -78 q 1175 -178 1122 -178 m 1368 -33 q 1175 -276 1368 -276 q 997 -205 1081 -276 q 874 0 914 -133 l 513 0 l 513 92 q 615 321 615 185 q 556 493 615 424 q 393 563 496 563 q 231 491 290 563 q 171 316 171 419 q 226 152 171 213 q 351 92 282 92 l 351 -14 q 136 86 215 -14 q 57 322 57 186 q 149 558 57 457 q 394 658 242 658 q 638 560 546 658 q 731 326 731 463 q 646 90 731 189 q 765 96 683 96 l 860 96 q 854 215 854 129 q 1008 642 854 469 q 1396 814 1161 814 q 1706 719 1586 814 q 1826 476 1826 624 q 1787 331 1826 393 q 1679 246 1747 269 q 1806 168 1754 228 q 1857 19 1857 108 q 1783 -184 1857 -108 q 1571 -260 1708 -260 q 1458 -244 1511 -260 l 1458 -144 q 1581 -158 1513 -158 q 1695 -110 1649 -158 q 1742 20 1742 -62 q 1686 149 1742 103 q 1547 196 1631 196 l 1497 196 l 1497 296 l 1543 296 q 1669 345 1624 296 q 1714 476 1714 394 q 1624 656 1714 593 q 1396 718 1533 718 q 1092 581 1218 718 q 965 229 965 444 q 971 96 965 135 l 1264 96 l 1264 513 l 1368 513 l 1368 -33 z "},"ഐ":{"ha":2878,"x_min":69,"x_max":2793,"o":"m 2185 -178 q 2274 -76 2274 -178 l 2274 0 l 1999 0 q 2077 -128 2022 -78 q 2185 -178 2132 -178 m 2378 -33 q 2185 -276 2378 -276 q 2007 -205 2090 -276 q 1883 0 1924 -133 l 1522 0 l 1522 92 q 1625 321 1625 185 q 1565 493 1625 424 q 1403 563 1506 563 q 1240 491 1300 563 q 1181 316 1181 419 q 1236 152 1181 213 q 1361 92 1292 92 l 1361 -14 q 1146 86 1225 -14 q 1067 322 1067 186 q 1159 558 1067 457 q 1403 658 1251 658 q 1648 560 1556 658 q 1740 326 1740 463 q 1656 90 1740 190 q 1775 96 1694 96 l 1872 96 q 1864 239 1864 163 q 1990 649 1864 485 q 2332 814 2117 814 q 2581 735 2475 814 q 2740 531 2688 657 q 2793 269 2793 404 q 2757 -1 2793 135 q 2661 -249 2721 -137 l 2540 -249 q 2640 -8 2603 -139 q 2678 243 2678 124 q 2584 587 2678 456 q 2332 718 2490 718 q 2076 582 2174 718 q 1978 242 1978 446 q 1986 96 1978 168 l 2274 96 l 2274 515 l 2378 515 l 2378 -33 m 374 507 q 559 433 486 507 q 632 250 632 360 q 559 63 632 140 q 363 -14 486 -14 q 155 91 240 -14 q 69 357 69 196 q 193 679 69 544 q 506 814 317 814 q 819 688 694 814 q 944 389 944 561 q 917 188 944 276 q 836 0 890 100 l 710 0 q 802 194 772 108 q 832 389 832 281 q 733 629 832 542 q 512 717 635 717 q 295 635 389 717 q 178 401 201 553 q 259 478 203 449 q 374 507 315 507 m 253 362 q 230 339 253 362 q 207 244 207 315 q 255 128 207 174 q 370 82 303 82 q 480 127 438 82 q 522 244 522 172 q 478 362 522 315 q 366 408 433 408 q 253 362 299 408 z "},"ഒ":{"ha":1125,"x_min":69,"x_max":1054,"o":"m 236 360 q 213 336 236 360 q 189 246 189 311 q 235 133 189 181 q 351 85 282 85 q 464 131 419 85 q 508 246 508 178 q 464 362 508 314 q 351 410 419 410 q 236 360 283 410 m 611 814 q 901 742 793 814 q 1010 557 1010 671 q 983 457 1010 501 q 904 392 956 413 q 1014 330 974 378 q 1054 213 1054 282 q 987 51 1054 117 q 807 -14 919 -14 q 710 -3 761 -14 l 710 96 q 810 86 754 86 q 903 122 865 86 q 942 217 942 158 q 902 307 942 276 q 797 338 863 338 l 751 338 l 751 439 l 790 439 q 870 472 844 439 q 896 557 896 506 q 825 674 896 632 q 603 717 754 717 q 340 641 453 717 q 193 428 226 565 q 367 507 257 507 q 549 431 478 507 q 621 244 621 354 q 541 60 621 133 q 340 -14 461 -14 q 144 78 218 -14 q 69 311 69 171 q 221 672 69 531 q 611 814 372 814 z "},"ഓ":{"ha":1768,"x_min":69,"x_max":1703,"o":"m 1599 701 q 1651 645 1599 701 q 1703 401 1703 589 q 1599 101 1703 214 q 1335 -12 1496 -12 q 1150 26 1240 -12 l 1150 128 q 1332 83 1257 83 q 1515 170 1442 83 q 1588 403 1588 257 q 1515 633 1588 549 q 1332 718 1442 718 q 1150 675 1253 718 l 1150 776 q 1335 814 1236 814 q 1599 701 1496 814 m 236 360 q 213 336 236 360 q 189 246 189 311 q 235 133 189 181 q 351 85 282 85 q 464 131 419 85 q 508 246 508 178 q 464 362 508 314 q 351 410 419 410 q 236 360 283 410 m 611 814 q 901 742 793 814 q 1010 557 1010 671 q 983 457 1010 501 q 904 392 956 413 q 1014 330 974 378 q 1054 213 1054 282 q 987 51 1054 117 q 807 -14 919 -14 q 710 -3 761 -14 l 710 96 q 810 86 754 86 q 903 122 865 86 q 942 217 942 158 q 902 307 942 276 q 797 338 863 338 l 751 338 l 751 439 l 790 439 q 870 472 844 439 q 896 557 896 506 q 825 674 896 632 q 603 717 754 717 q 340 641 453 717 q 193 428 226 565 q 367 507 257 507 q 549 431 478 507 q 621 244 621 354 q 541 60 621 133 q 340 -14 461 -14 q 144 78 218 -14 q 69 311 69 171 q 221 672 69 531 q 611 814 372 814 z "},"ഔ":{"ha":2233,"x_min":69,"x_max":2160,"o":"m 236 360 q 213 336 236 360 q 189 246 189 311 q 235 133 189 181 q 351 85 282 85 q 464 131 419 85 q 508 246 508 178 q 464 362 508 314 q 351 410 419 410 q 236 360 283 410 m 611 814 q 901 742 793 814 q 1010 557 1010 671 q 983 457 1010 501 q 904 392 956 413 q 1014 330 974 378 q 1054 213 1054 282 q 987 51 1054 117 q 807 -14 919 -14 q 710 -3 761 -14 l 710 96 q 810 86 754 86 q 903 122 865 86 q 942 217 942 158 q 902 307 942 276 q 797 338 863 338 l 751 338 l 751 439 l 790 439 q 870 472 844 439 q 896 557 896 506 q 825 674 896 632 q 603 717 754 717 q 340 641 453 717 q 193 428 226 565 q 367 507 257 507 q 549 431 478 507 q 621 244 621 354 q 541 60 621 133 q 340 -14 461 -14 q 144 78 218 -14 q 69 311 69 171 q 221 672 69 531 q 611 814 372 814 m 2160 457 q 2052 142 2160 265 q 1769 19 1944 19 q 1631 43 1694 19 l 1631 144 q 1767 124 1701 124 q 1969 217 1893 124 q 2046 447 2046 310 q 1997 651 2046 585 q 1874 717 1947 717 q 1756 666 1800 717 q 1711 539 1711 615 l 1711 456 l 1599 456 l 1599 536 q 1551 669 1599 621 q 1437 717 1503 717 q 1326 666 1371 717 q 1281 541 1281 615 q 1314 385 1281 467 l 1200 385 q 1169 525 1169 446 q 1245 733 1169 651 q 1435 814 1321 814 q 1567 776 1510 814 q 1656 682 1625 739 q 1737 777 1683 740 q 1865 814 1790 814 q 2080 715 2000 814 q 2160 457 2160 615 z "},"ക":{"ha":1515,"x_min":69,"x_max":1446,"o":"m 556 394 q 608 164 556 249 q 771 79 661 79 q 933 163 881 79 q 985 394 985 247 l 985 400 l 556 401 l 556 394 m 978 494 q 770 721 946 721 q 563 494 594 721 l 978 494 m 1096 394 q 1012 97 1096 208 q 769 -14 928 -14 q 525 101 610 -14 q 447 18 497 50 q 328 -14 397 -14 q 144 58 219 -14 q 69 248 69 131 q 156 430 69 365 q 385 494 242 494 l 451 494 q 556 731 472 647 q 770 814 639 814 q 985 730 901 814 q 1089 494 1068 646 l 1106 494 q 1353 431 1261 494 q 1446 248 1446 367 q 1372 58 1446 129 q 1188 -12 1299 -12 q 1144 -11 1160 -12 l 1144 92 q 1335 247 1335 92 q 1103 400 1335 400 l 1096 400 l 1096 394 m 181 247 q 224 126 181 171 q 326 82 267 82 q 424 118 385 82 q 471 208 464 154 q 444 394 444 288 l 444 401 l 388 401 q 181 247 181 401 z "},"ഖ":{"ha":1408,"x_min":69,"x_max":1289,"o":"m 236 362 q 213 339 236 362 q 190 244 190 315 q 238 128 190 174 q 353 82 286 82 q 463 127 421 82 q 506 244 506 172 q 461 362 506 315 q 349 408 417 408 q 236 362 282 408 m 836 389 q 747 626 836 536 q 525 715 658 715 q 297 631 392 715 q 175 401 201 546 q 252 478 201 450 q 360 507 303 507 q 543 433 469 507 q 617 250 617 360 q 544 63 617 140 q 351 -14 471 -14 q 150 79 231 -14 q 69 340 69 172 q 197 674 69 535 q 518 814 324 814 q 832 694 713 814 q 951 393 951 574 q 832 101 951 213 l 1181 101 l 1181 811 l 1289 811 l 1289 0 l 681 0 l 681 100 q 795 223 754 147 q 836 389 836 299 z "},"ഗ":{"ha":1242,"x_min":74,"x_max":1169,"o":"m 671 308 q 396 -14 671 -14 q 164 94 254 -14 q 74 400 74 203 q 117 619 74 521 q 181 717 142 676 q 285 785 219 758 q 438 811 351 811 l 438 706 q 188 400 188 706 q 243 167 188 253 q 397 82 299 82 q 563 301 563 82 l 563 474 q 640 722 563 631 q 858 814 718 814 q 1084 702 999 814 q 1169 389 1169 590 q 1064 79 1169 185 q 958 15 1025 40 q 806 -11 892 -11 l 806 94 q 994 166 933 94 q 1054 388 1054 238 q 1001 628 1054 538 q 858 718 949 718 q 719 656 768 718 q 671 481 671 593 l 671 308 z "},"ഘ":{"ha":1742,"x_min":56,"x_max":1624,"o":"m 808 479 l 808 397 l 1194 397 l 1194 479 q 1148 653 1194 589 q 1003 718 1101 718 q 857 653 906 718 q 808 479 808 589 m 279 293 q 119 366 183 297 q 56 540 56 435 q 128 723 56 646 q 317 800 201 800 q 508 727 433 800 q 582 554 582 654 q 526 393 582 454 q 633 397 560 397 l 700 397 l 700 479 q 778 725 700 636 q 1003 814 856 814 q 1226 725 1150 814 q 1301 479 1301 636 l 1301 303 l 808 303 l 808 96 l 1515 96 l 1515 811 l 1624 811 l 1624 0 l 700 0 l 700 303 l 404 303 l 404 390 q 476 532 476 451 q 435 661 476 613 q 319 710 393 710 q 205 661 246 710 q 164 543 164 613 q 196 435 164 474 q 279 393 228 397 l 279 293 z "},"ങ":{"ha":1596,"x_min":75,"x_max":1525,"o":"m 351 406 q 318 406 351 406 q 240 360 285 406 q 194 244 194 314 q 242 128 194 174 q 357 82 290 82 q 465 126 424 82 q 507 242 507 171 q 463 360 507 314 q 351 406 418 406 m 361 504 q 544 431 471 504 q 618 247 618 357 q 546 62 618 138 q 351 -14 474 -14 q 152 85 229 -14 q 75 351 75 183 q 124 573 75 469 q 273 745 172 676 q 501 814 374 814 q 719 753 628 814 q 858 597 810 692 q 985 751 897 689 q 1192 814 1074 814 q 1394 756 1311 814 q 1476 592 1476 697 q 1438 468 1476 519 q 1335 406 1400 417 q 1473 347 1421 394 q 1525 222 1525 300 q 1440 45 1525 104 q 1214 -14 1356 -14 q 1097 -3 1149 -14 l 1097 100 q 1229 88 1154 88 q 1358 122 1304 88 q 1411 224 1411 157 q 1206 349 1411 349 l 1153 349 l 1153 450 l 1192 450 q 1315 487 1268 450 q 1363 587 1363 524 q 1316 683 1363 650 q 1188 717 1269 717 q 995 631 1078 717 q 913 389 913 546 l 913 0 l 804 0 l 804 389 q 718 632 804 547 q 508 717 632 717 q 294 633 383 717 q 181 400 206 549 q 256 476 207 449 q 361 504 304 504 z "},"ച":{"ha":1225,"x_min":11,"x_max":1107,"o":"m 167 371 q 244 576 167 492 q 447 661 321 661 q 650 579 572 661 q 728 372 728 497 q 683 213 728 289 q 569 96 638 136 l 999 96 l 999 811 l 1107 811 l 1107 0 l 11 0 l 11 96 l 282 96 q 527 180 442 96 q 613 360 613 264 q 569 510 613 456 q 446 564 525 564 q 323 507 367 564 q 279 378 279 450 q 308 249 279 307 l 192 249 q 167 371 167 311 z "},"ഛ":{"ha":1824,"x_min":11,"x_max":1751,"o":"m 1489 672 q 1387 532 1429 622 q 1344 331 1344 442 q 1383 152 1344 219 q 1490 85 1421 85 q 1598 153 1558 85 q 1638 337 1638 222 q 1595 537 1638 451 q 1489 672 1553 622 m 1751 339 q 1684 87 1751 188 q 1490 -14 1617 -14 q 1297 86 1364 -14 q 1229 321 1229 186 q 1279 556 1229 456 q 1393 706 1329 656 q 1307 718 1360 718 q 1083 622 1176 718 q 989 392 989 526 q 1026 220 989 289 q 1124 93 1063 151 l 1124 0 l 11 0 l 11 96 l 282 96 q 527 180 442 96 q 613 360 613 264 q 569 510 613 456 q 446 564 525 564 q 323 507 367 564 q 279 378 279 450 q 308 249 279 307 l 192 249 q 167 371 167 311 q 244 576 167 492 q 447 661 321 661 q 650 579 572 661 q 728 372 728 497 q 683 213 728 289 q 569 96 638 136 l 986 96 q 936 160 954 133 q 897 252 918 188 q 875 392 875 317 q 1000 690 875 565 q 1313 814 1125 814 q 1626 678 1501 814 q 1751 339 1751 542 z "},"ജ":{"ha":1115,"x_min":68,"x_max":1029,"o":"m 679 238 q 659 217 679 238 q 639 140 639 197 q 679 42 639 83 q 778 0 719 0 q 878 40 838 0 q 918 138 918 79 q 876 237 918 196 q 776 278 833 278 q 679 238 719 278 m 178 131 q 222 44 178 81 q 329 8 265 8 q 578 251 496 8 l 329 251 q 178 131 178 251 m 325 -93 q 139 -27 210 -93 q 68 134 68 39 q 138 287 68 229 q 333 344 208 344 l 603 344 q 826 401 743 344 q 908 558 908 458 q 867 676 908 633 q 757 718 826 718 q 640 667 688 718 q 593 539 593 617 l 593 436 l 492 436 l 492 535 q 443 670 492 618 q 310 722 394 722 q 217 690 254 722 q 179 607 179 657 q 322 494 179 494 q 350 496 339 494 l 350 401 q 317 400 342 400 q 139 452 207 400 q 71 598 71 504 q 137 753 71 692 q 308 814 203 814 q 539 676 476 814 q 761 814 607 814 q 947 742 875 814 q 1019 560 1019 671 q 987 425 1019 485 q 899 335 954 365 q 994 257 960 310 q 1029 133 1029 204 q 956 -29 1029 36 q 793 -94 882 -94 q 647 -56 704 -94 q 564 38 590 -18 q 469 -53 531 -14 q 325 -93 408 -93 z "},"ഝ":{"ha":2293,"x_min":74,"x_max":2219,"o":"m 732 672 q 626 534 669 624 q 582 333 582 444 q 622 153 582 222 q 730 85 661 85 q 837 152 799 85 q 875 331 875 219 q 833 532 875 442 q 732 672 790 622 m 1457 -15 q 1264 71 1329 -15 q 1199 306 1199 157 l 1199 424 q 1133 638 1199 554 q 939 721 1068 721 q 825 703 882 721 q 943 547 899 646 q 988 339 988 447 q 916 78 988 169 q 729 -14 844 -14 q 542 77 614 -14 q 471 336 471 168 q 515 544 471 443 q 626 703 558 644 q 499 721 561 721 q 277 624 367 721 q 188 393 188 528 q 249 175 188 258 q 415 92 311 92 l 415 -14 q 167 97 260 -14 q 74 387 74 207 q 198 690 74 567 q 496 814 322 814 q 719 763 614 814 q 935 814 815 814 q 1190 726 1083 814 q 1276 604 1244 682 q 1307 424 1307 526 l 1307 306 q 1347 142 1307 197 q 1458 86 1386 86 q 1567 141 1529 86 q 1606 306 1606 196 l 1606 811 l 1714 811 l 1714 306 q 1765 143 1714 200 q 1903 86 1815 86 q 2047 167 1990 86 q 2104 400 2104 249 q 2048 628 2104 551 q 1865 706 1992 706 l 1865 811 q 2128 701 2036 811 q 2219 396 2219 590 q 2128 93 2219 201 q 1896 -15 2038 -15 q 1757 20 1822 -15 q 1661 121 1692 56 q 1582 22 1636 58 q 1457 -15 1528 -15 z "},"ഞ":{"ha":2122,"x_min":75,"x_max":2049,"o":"m 1400 672 q 1297 533 1340 622 q 1254 332 1254 443 q 1292 153 1254 221 q 1400 85 1331 85 q 1508 153 1469 85 q 1547 332 1547 221 q 1505 533 1547 443 q 1400 672 1463 624 m 351 406 q 318 406 351 406 q 240 360 285 406 q 194 244 194 314 q 242 128 194 174 q 357 82 290 82 q 465 126 424 82 q 507 242 507 171 q 463 360 507 314 q 351 406 418 406 m 361 504 q 544 431 471 504 q 618 247 618 357 q 546 62 618 138 q 351 -14 474 -14 q 152 85 229 -14 q 75 359 75 183 q 196 674 75 535 q 515 814 317 814 q 735 749 636 814 q 875 589 833 685 q 1011 753 919 692 q 1207 814 1103 814 q 1411 764 1311 814 q 1622 814 1508 814 q 1923 690 1797 814 q 2049 386 2049 567 q 1957 96 2049 206 q 1710 -14 1865 -14 l 1710 92 q 1874 174 1813 92 q 1935 392 1935 257 q 1846 624 1935 528 q 1625 719 1757 719 q 1503 700 1561 719 q 1613 544 1568 643 q 1658 343 1658 446 q 1587 78 1658 171 q 1399 -14 1515 -14 q 1213 77 1283 -14 q 1142 338 1142 168 q 1188 547 1142 447 q 1308 701 1233 647 q 1208 719 1254 719 q 1008 627 1086 719 q 929 411 929 535 l 929 0 l 821 0 l 821 408 q 727 628 821 539 q 512 717 633 717 q 297 632 390 717 q 179 400 204 547 q 255 476 206 449 q 361 504 304 504 z "},"ട":{"ha":753,"x_min":61,"x_max":692,"o":"m 78 135 q 329 85 221 85 q 508 120 438 85 q 578 225 578 156 q 536 308 578 276 q 453 347 503 335 q 286 390 325 379 q 61 621 61 454 q 150 783 61 719 q 369 847 239 847 q 635 794 500 847 l 635 692 q 389 749 494 749 q 175 621 175 749 q 206 550 175 574 q 235 526 222 536 q 278 506 247 517 q 323 491 308 496 q 378 476 338 486 q 450 456 418 465 q 510 436 482 446 q 579 407 539 426 q 640 365 619 388 q 692 225 692 311 q 597 53 692 119 q 322 -14 501 -14 q 78 32 203 -14 l 78 135 z "},"ഠ":{"ha":847,"x_min":60,"x_max":789,"o":"m 238 628 q 206 583 238 628 q 174 400 174 538 q 241 172 174 263 q 427 81 308 81 q 610 170 546 81 q 674 399 674 260 q 607 628 674 538 q 422 718 540 718 q 238 628 303 718 m 424 814 q 511 814 424 814 q 693 699 597 814 q 789 402 789 585 q 692 102 789 219 q 424 -15 596 -15 q 156 102 253 -15 q 60 402 60 219 q 156 699 60 585 q 424 814 251 814 z "},"ഡ":{"ha":1697,"x_min":74,"x_max":1624,"o":"m 838 -14 q 648 76 713 -14 q 583 321 583 167 l 583 476 q 530 657 583 596 q 388 718 476 718 q 244 633 300 718 q 188 383 188 549 q 426 106 188 106 l 426 0 q 256 33 328 0 q 147 124 185 67 q 74 383 74 232 q 158 701 74 588 q 385 814 242 814 q 611 726 529 814 q 693 469 693 638 l 693 319 q 733 140 693 197 q 844 82 774 82 q 957 144 914 82 q 1000 304 1000 206 l 1000 811 l 1108 811 l 1108 304 q 1165 145 1108 208 q 1300 82 1222 82 q 1454 165 1399 82 q 1510 393 1510 249 q 1451 622 1510 538 q 1271 706 1393 706 l 1271 811 q 1421 783 1356 811 q 1524 712 1486 754 q 1585 611 1561 669 q 1624 394 1624 515 q 1536 91 1624 196 q 1300 -14 1449 -14 q 1151 29 1219 -14 q 1054 138 1083 72 q 971 28 1026 71 q 838 -14 915 -14 z "},"ഢ":{"ha":1886,"x_min":74,"x_max":1811,"o":"m 1531 718 q 1497 718 1531 718 q 1421 673 1464 718 q 1378 558 1378 628 q 1423 441 1378 488 q 1535 394 1468 394 q 1647 441 1601 394 q 1693 558 1693 488 q 1645 673 1693 628 q 1531 718 1597 718 m 832 -14 q 647 76 708 -14 q 585 319 585 165 l 583 476 q 530 657 583 596 q 388 718 476 718 q 244 633 300 718 q 188 383 188 549 q 426 106 188 106 l 426 0 q 256 33 328 0 q 147 124 185 67 q 74 383 74 232 q 158 701 74 588 q 385 814 242 814 q 611 726 529 814 q 693 469 693 638 l 693 319 q 839 82 693 82 q 949 145 908 82 q 990 315 990 208 l 990 811 l 1099 811 l 1099 351 q 1176 159 1099 233 q 1374 85 1254 85 q 1588 169 1494 85 q 1706 400 1681 253 q 1631 324 1679 351 q 1525 296 1582 296 q 1342 370 1415 296 q 1268 554 1268 444 q 1341 739 1268 664 q 1535 814 1414 814 q 1733 720 1656 814 q 1811 474 1811 626 q 1692 128 1811 269 q 1369 -14 1572 -14 q 1183 33 1267 -14 q 1057 167 1099 79 q 832 -14 1000 -14 z "},"ണ":{"ha":1946,"x_min":75,"x_max":1872,"o":"m 242 362 q 219 339 242 362 q 196 244 196 315 q 244 128 196 174 q 358 82 292 82 q 469 128 425 82 q 513 244 513 174 q 467 361 513 314 q 355 408 422 408 q 242 362 288 408 m 365 507 q 549 433 476 507 q 622 250 622 360 q 549 63 622 140 q 354 -14 476 -14 q 153 81 232 -14 q 75 332 75 176 q 196 674 75 535 q 517 814 317 814 q 721 767 628 814 q 863 636 814 721 q 950 766 889 718 q 1093 814 1011 814 q 1232 764 1175 814 q 1314 636 1289 714 q 1406 764 1339 714 q 1558 814 1472 814 q 1786 704 1700 814 q 1872 394 1872 594 q 1831 186 1872 281 q 1767 92 1806 132 q 1665 26 1729 51 q 1519 0 1601 0 l 1519 106 q 1697 181 1638 106 q 1757 399 1757 257 q 1703 630 1757 542 q 1560 718 1650 718 q 1419 646 1469 718 q 1368 449 1368 574 l 1368 0 l 1260 0 l 1260 449 q 1213 644 1260 571 q 1091 718 1167 718 q 970 649 1015 718 q 925 444 925 581 l 925 0 l 817 0 l 817 431 q 728 637 817 558 q 517 715 640 715 q 299 631 394 715 q 179 401 204 547 q 257 478 206 449 q 365 507 308 507 z "},"ത":{"ha":1410,"x_min":74,"x_max":1336,"o":"m 707 672 q 604 532 647 621 q 561 332 561 443 q 600 153 561 221 q 708 85 639 85 q 815 153 776 85 q 854 332 854 221 q 812 533 854 443 q 707 672 769 624 m 403 88 l 403 -14 q 160 94 246 -14 q 74 383 74 201 q 192 690 74 565 q 493 814 310 814 q 708 764 618 814 q 908 814 808 814 q 1214 689 1092 814 q 1336 383 1336 564 q 1249 94 1336 201 q 1007 -14 1163 -14 l 1007 88 q 1164 164 1107 88 q 1221 383 1221 240 q 1128 623 1221 526 q 908 719 1036 719 q 803 700 854 719 q 923 551 878 644 q 968 343 968 457 q 895 81 968 175 q 707 -14 822 -14 q 519 80 592 -14 q 446 340 446 174 q 492 548 446 453 q 607 700 538 643 q 493 719 556 719 q 277 624 365 719 q 189 384 189 528 q 246 164 189 240 q 403 88 303 88 z "},"ഥ":{"ha":1271,"x_min":119,"x_max":1151,"o":"m 228 96 l 553 96 l 553 456 q 628 719 553 625 q 851 814 703 814 q 1075 719 999 814 q 1151 456 1151 625 l 1151 0 l 119 0 l 119 811 l 228 811 l 228 96 m 1043 456 q 849 717 1043 717 q 660 456 660 717 l 660 96 l 1043 96 l 1043 456 z "},"ദ":{"ha":986,"x_min":76,"x_max":907,"o":"m 907 225 q 827 52 907 118 q 599 -14 747 -14 q 467 -1 529 -14 l 467 100 q 604 85 524 85 q 738 120 685 85 q 792 223 792 156 q 737 326 792 290 q 588 361 682 361 l 531 361 l 531 463 l 563 463 q 743 582 743 463 q 686 681 743 647 q 524 715 629 715 q 290 619 390 715 q 190 352 190 522 q 313 0 190 182 l 185 0 q 76 363 76 176 q 203 681 76 549 q 524 814 329 814 q 772 751 686 814 q 858 582 858 688 q 717 417 858 442 q 856 355 804 404 q 907 225 907 306 z "},"ധ":{"ha":1329,"x_min":74,"x_max":1257,"o":"m 421 -14 q 172 92 269 -14 q 74 394 74 199 q 188 711 74 588 q 296 783 228 756 q 449 811 364 811 l 449 706 q 255 623 322 706 q 188 396 188 540 q 253 167 188 251 q 412 82 319 82 q 558 144 504 82 q 611 304 611 206 l 611 811 l 719 811 l 719 304 q 773 144 719 206 q 908 82 826 82 q 1079 165 1017 82 q 1142 394 1142 249 q 1075 623 1142 540 q 882 706 1008 706 l 882 811 q 1035 783 967 811 q 1143 712 1103 756 q 1211 611 1183 668 q 1257 394 1257 514 q 1163 91 1257 196 q 908 -14 1068 -14 q 758 26 822 -14 q 664 135 694 67 q 421 -14 596 -14 z "},"ന":{"ha":1329,"x_min":74,"x_max":1257,"o":"m 74 406 q 172 708 74 601 q 421 814 269 814 q 664 665 596 814 q 758 774 694 733 q 908 814 822 814 q 1163 709 1068 814 q 1257 406 1257 604 q 1143 89 1257 213 q 1035 17 1103 44 q 882 -11 967 -11 l 882 94 q 1075 177 1008 94 q 1142 406 1142 260 q 1079 635 1142 551 q 908 718 1017 718 q 773 657 826 718 q 719 497 719 596 l 719 -11 l 611 -11 l 611 497 q 558 657 611 596 q 412 718 504 718 q 253 633 319 718 q 188 404 188 549 q 255 177 188 260 q 449 94 322 94 l 449 -11 q 296 17 364 -11 q 188 88 228 44 q 119 189 147 132 q 74 406 74 286 z "},"ഩ":{"ha":1511,"x_min":75,"x_max":1438,"o":"m 239 363 q 216 339 239 363 q 193 244 193 315 q 241 128 193 174 q 356 82 289 82 q 467 127 424 82 q 510 244 510 172 q 465 363 510 317 q 353 410 421 410 q 239 363 285 410 m 363 507 q 547 433 472 507 q 621 249 621 358 q 547 63 621 139 q 353 -14 474 -14 q 153 88 232 -14 q 75 361 75 190 q 128 582 75 479 q 283 749 181 685 q 508 814 385 814 q 719 761 631 814 q 853 621 808 708 q 953 760 881 708 q 1113 811 1026 811 q 1349 701 1261 811 q 1438 392 1438 592 q 1396 183 1438 279 q 1335 89 1372 129 q 1236 23 1299 49 q 1094 -3 1174 -3 l 1094 103 q 1264 179 1206 103 q 1322 397 1322 256 q 1267 627 1322 539 q 1117 715 1211 715 q 965 643 1022 715 q 910 450 908 571 l 910 0 l 803 0 l 803 428 q 719 639 803 560 q 513 718 635 718 q 294 633 390 718 q 176 400 199 547 q 253 478 203 450 q 363 507 304 507 z "},"പ":{"ha":1276,"x_min":57,"x_max":1156,"o":"m 350 -14 q 135 87 214 -12 q 57 321 57 186 q 150 557 57 456 q 395 658 243 658 q 640 560 547 658 q 733 326 733 463 q 649 90 733 189 q 769 96 686 96 l 1049 96 l 1049 811 l 1156 811 l 1156 0 l 513 0 l 513 92 q 619 321 619 182 q 558 493 619 424 q 394 563 497 563 q 231 491 292 563 q 171 316 171 419 q 226 153 171 213 q 350 92 281 93 l 350 -14 z "},"ഫ":{"ha":1651,"x_min":57,"x_max":1532,"o":"m 1040 485 l 1040 96 l 1424 96 l 1424 485 q 1369 656 1424 594 q 1229 717 1315 717 q 1092 656 1143 717 q 1040 485 1040 596 m 350 -14 q 135 87 214 -12 q 57 321 57 186 q 150 557 57 456 q 395 658 243 658 q 640 560 547 658 q 733 326 733 463 q 649 90 733 189 q 769 96 686 96 l 933 96 l 933 485 q 1010 728 933 643 q 1231 814 1088 814 q 1453 728 1374 814 q 1532 485 1532 643 l 1532 0 l 513 0 l 513 92 q 619 321 619 182 q 558 493 619 424 q 394 563 497 563 q 231 491 292 563 q 171 316 171 419 q 226 153 171 213 q 350 92 281 93 l 350 -14 z "},"ബ":{"ha":1958,"x_min":75,"x_max":1839,"o":"m 239 363 q 216 339 239 363 q 193 244 193 315 q 241 128 193 174 q 356 82 289 82 q 467 127 424 82 q 510 244 510 172 q 465 363 510 317 q 353 410 421 410 q 239 363 285 410 m 1176 94 q 1281 219 1239 138 q 1322 422 1322 301 q 1266 628 1322 542 q 1116 715 1210 715 q 965 643 1022 715 q 910 450 908 571 l 910 0 l 803 0 l 803 428 q 719 639 803 560 q 513 718 635 718 q 294 633 390 718 q 176 400 199 547 q 253 478 203 450 q 363 507 304 507 q 547 433 472 507 q 621 249 621 358 q 547 63 621 139 q 353 -14 474 -14 q 153 88 232 -14 q 75 361 75 190 q 128 582 75 479 q 283 749 181 685 q 514 814 385 814 q 853 610 740 814 q 953 758 881 704 q 1113 811 1025 811 q 1349 703 1261 811 q 1438 406 1438 596 q 1404 234 1438 319 q 1319 96 1371 149 l 1731 96 l 1731 811 l 1839 811 l 1839 0 l 1176 0 l 1176 94 z "},"ഭ":{"ha":940,"x_min":119,"x_max":878,"o":"m 661 458 l 579 461 q 478 390 478 461 q 517 331 478 350 q 653 311 557 311 q 878 154 878 311 q 803 25 878 71 q 602 -21 729 -21 q 385 18 475 -21 l 385 121 q 593 75 497 75 q 768 153 768 75 q 733 204 768 193 q 598 215 697 215 q 433 263 499 215 q 368 387 368 310 q 424 508 368 464 q 557 553 479 553 l 629 550 q 712 568 686 550 q 738 626 738 586 q 685 692 738 667 q 528 718 632 718 q 310 638 392 718 q 228 415 228 557 l 228 0 l 119 0 l 119 415 q 231 708 119 601 q 528 814 343 814 q 763 760 678 814 q 849 629 849 707 q 801 505 849 551 q 661 458 754 458 z "},"മ":{"ha":1051,"x_min":119,"x_max":932,"o":"m 119 0 l 119 404 q 233 706 119 597 q 526 814 346 814 q 819 706 707 814 q 932 404 932 599 l 932 0 l 119 0 m 826 404 q 775 599 826 517 q 626 708 724 681 q 661 569 660 651 q 647 496 663 538 q 622 426 632 454 q 578 354 611 399 q 531 288 546 310 q 472 218 515 265 q 358 93 411 149 l 826 93 l 826 404 m 225 404 l 225 94 q 447 342 393 268 q 519 722 621 569 q 303 631 381 721 q 225 404 225 542 z "},"യ":{"ha":1486,"x_min":58,"x_max":1413,"o":"m 531 85 q 661 107 599 85 q 510 375 561 204 q 485 464 499 411 q 463 547 471 517 q 440 615 454 578 q 411 672 426 653 q 324 718 375 718 q 213 652 251 718 q 174 486 174 586 q 277 201 174 317 q 531 85 381 85 m 761 160 q 880 303 838 217 q 922 488 922 389 q 877 653 922 588 q 755 718 832 718 q 630 664 678 718 q 581 524 582 610 q 617 400 607 435 q 761 160 663 242 m 1033 483 q 987 282 1033 383 q 856 107 940 181 q 981 85 913 85 q 1208 190 1119 85 q 1297 431 1297 294 q 1239 639 1297 568 q 1072 710 1181 710 l 1072 814 q 1322 715 1231 814 q 1413 435 1413 617 q 1292 119 1413 253 q 981 -14 1171 -14 q 754 39 854 -14 q 528 -14 651 -14 q 190 130 322 -14 q 58 479 58 274 q 131 719 58 624 q 319 814 203 814 q 443 779 396 814 q 526 671 490 744 q 617 774 553 733 q 750 814 681 814 q 956 721 879 814 q 1033 483 1033 628 z "},"ര":{"ha":1038,"x_min":75,"x_max":957,"o":"m 694 672 q 592 544 633 624 q 550 351 550 464 q 590 161 550 238 q 697 85 629 85 q 804 160 765 85 q 843 349 843 235 q 801 544 843 463 q 694 672 758 626 m 957 363 q 890 94 957 201 q 696 -14 822 -14 q 502 93 569 -14 q 435 360 435 200 q 485 564 435 469 q 599 706 535 658 q 513 718 561 718 q 283 619 376 718 q 189 351 189 519 q 310 0 189 183 l 183 0 q 75 360 75 176 q 196 679 75 544 q 508 814 317 814 q 828 686 700 814 q 957 363 957 558 z "},"റ":{"ha":875,"x_min":72,"x_max":803,"o":"m 356 0 q 144 115 215 0 q 72 410 72 231 q 172 701 72 589 q 439 814 272 814 q 704 703 606 814 q 803 412 803 592 q 731 116 803 232 q 519 0 660 0 l 519 106 q 643 185 597 106 q 689 408 689 264 q 620 635 689 553 q 436 717 551 717 q 253 633 321 717 q 186 406 186 550 q 232 184 186 263 q 356 106 278 106 l 356 0 z "},"ല":{"ha":1221,"x_min":119,"x_max":1103,"o":"m 228 508 l 228 440 l 613 440 l 613 507 q 559 663 613 607 q 419 718 506 718 q 280 663 332 718 q 228 508 228 608 m 119 475 q 195 724 119 633 q 419 814 271 814 q 643 724 568 814 q 718 475 718 635 l 718 344 l 228 344 l 228 96 l 994 96 l 994 811 l 1103 811 l 1103 0 l 119 0 l 119 475 z "},"ള":{"ha":1035,"x_min":64,"x_max":963,"o":"m 295 539 q 266 539 295 539 q 201 500 236 539 q 165 403 165 461 q 203 308 165 346 q 298 271 242 271 q 392 310 354 271 q 429 404 429 349 q 392 499 429 460 q 295 539 354 539 m 692 4 l 294 6 q 190 -69 190 6 q 226 -125 190 -107 q 311 -143 261 -143 l 940 -143 l 940 -239 l 272 -239 q 134 -194 190 -239 q 78 -68 78 -149 q 135 58 78 13 q 289 103 192 103 l 658 103 q 851 226 851 103 q 692 349 851 349 l 646 349 l 646 456 l 692 456 q 777 488 749 456 q 806 567 806 521 q 738 683 806 642 q 547 724 669 724 q 344 685 425 724 q 221 586 264 647 q 328 622 265 622 q 474 559 414 622 q 533 401 533 496 q 465 243 533 306 q 297 181 397 181 q 130 247 196 181 q 64 428 64 314 q 196 702 64 590 q 535 814 328 814 q 812 748 706 814 q 918 567 918 682 q 796 403 918 432 q 921 345 879 394 q 963 222 963 296 q 892 60 963 115 q 692 4 822 4 z "},"ഴ":{"ha":935,"x_min":64,"x_max":865,"o":"m 378 90 q 533 214 533 90 q 532 229 533 225 q 486 228 517 228 q 181 319 297 228 q 64 575 64 410 q 119 800 64 667 l 233 800 q 178 579 178 668 q 261 391 178 454 q 478 325 344 328 q 426 390 442 368 q 390 465 410 413 q 369 574 369 517 q 439 742 369 671 q 617 814 508 814 q 796 740 726 814 q 865 551 865 667 q 803 358 865 435 q 636 249 742 281 q 640 214 640 232 q 567 47 640 107 q 385 -14 494 -14 q 193 14 276 -14 l 193 124 q 378 90 303 90 m 618 718 q 585 718 618 718 q 518 676 553 718 q 483 587 483 633 q 489 513 483 540 q 509 456 494 485 q 531 415 524 428 q 563 372 539 403 q 590 336 588 340 q 753 550 753 379 q 718 669 753 619 q 618 718 683 718 z "},"വ":{"ha":1361,"x_min":68,"x_max":1243,"o":"m 400 0 q 244 38 311 0 q 139 136 176 75 q 68 392 68 253 q 171 693 68 572 q 453 814 274 814 q 736 697 633 814 q 839 397 839 579 q 725 96 839 215 l 1133 96 l 1133 811 l 1243 811 l 1243 0 l 592 0 l 592 94 q 725 392 725 214 q 651 627 725 536 q 453 718 578 718 q 255 624 328 718 q 182 391 182 531 q 250 178 182 251 q 400 104 318 104 l 400 0 z "},"ശ":{"ha":1425,"x_min":74,"x_max":1344,"o":"m 1086 672 q 983 532 1026 621 q 940 333 940 443 q 979 153 940 222 q 1087 85 1018 85 q 1194 153 1156 85 q 1233 332 1233 221 q 1191 533 1233 443 q 1086 672 1149 624 m 686 332 q 608 76 686 165 q 386 -14 529 -14 q 158 99 243 -14 q 74 398 74 211 q 159 698 74 585 q 426 811 244 811 l 426 706 q 250 636 313 706 q 188 408 188 567 q 246 165 188 249 q 389 82 304 82 q 526 144 474 82 q 578 325 578 206 l 578 457 q 672 713 578 611 q 913 814 767 814 q 1217 676 1090 814 q 1344 356 1344 538 q 1273 80 1344 174 q 1086 -14 1201 -14 q 900 78 971 -14 q 829 346 829 171 q 876 549 829 449 q 997 704 922 650 q 914 718 961 718 q 755 653 824 718 q 686 457 686 589 l 686 332 z "},"ഷ":{"ha":1871,"x_min":57,"x_max":1751,"o":"m 1303 96 l 1644 96 l 1644 351 q 1656 515 1644 450 q 1506 370 1606 429 q 1303 294 1407 311 l 1303 96 m 1072 718 q 974 672 1011 718 q 936 559 936 626 q 983 450 936 492 q 1194 388 1064 381 l 1194 553 q 1072 718 1194 718 m 347 92 l 347 -14 q 135 87 214 -14 q 57 322 57 188 q 150 557 57 456 q 394 658 243 658 q 638 560 544 658 q 731 328 731 463 q 642 89 731 194 q 760 94 676 94 l 1194 96 l 1194 286 l 1192 286 q 922 359 1018 286 q 826 550 826 432 q 894 741 826 668 q 1074 814 963 814 q 1244 746 1185 814 q 1303 557 1303 678 l 1303 397 q 1506 486 1410 411 q 1644 672 1601 561 l 1751 672 l 1751 0 l 511 0 l 511 92 q 615 321 615 182 q 556 493 615 424 q 393 563 496 563 q 231 491 290 563 q 171 317 171 419 q 226 153 171 214 q 347 92 281 92 z "},"സ":{"ha":1681,"x_min":74,"x_max":1607,"o":"m 1607 400 q 1524 98 1607 210 q 1299 -14 1440 -14 q 1080 78 1158 -14 q 1001 332 1001 171 l 1001 461 q 963 651 1001 585 q 853 718 925 718 q 738 657 781 718 q 694 497 694 596 l 694 0 l 586 0 l 586 497 q 533 656 586 594 q 399 718 479 718 q 244 630 300 718 q 188 400 188 542 q 247 182 188 258 q 415 106 307 106 l 415 0 q 274 26 336 0 q 176 92 213 51 q 115 186 139 132 q 74 394 74 282 q 162 704 74 594 q 399 814 250 814 q 546 773 481 814 q 640 665 611 732 q 724 773 668 732 q 854 814 779 814 q 1048 717 986 814 q 1110 460 1110 621 l 1110 325 q 1160 146 1110 210 q 1294 82 1210 82 q 1492 400 1492 82 q 1433 635 1492 564 q 1254 706 1375 706 l 1254 811 q 1406 785 1340 811 q 1508 717 1471 758 q 1569 619 1546 676 q 1607 400 1607 522 z "},"ഹ":{"ha":1679,"x_min":57,"x_max":1606,"o":"m 347 92 l 347 -14 q 135 87 214 -14 q 57 322 57 188 q 150 557 57 456 q 394 658 243 658 q 638 560 544 658 q 731 328 731 463 q 646 96 731 194 q 760 101 679 101 l 878 101 q 983 94 953 101 q 864 397 864 214 q 966 697 864 579 q 1235 814 1068 814 q 1503 699 1401 814 q 1606 403 1606 583 q 1526 105 1606 224 q 1299 -14 1446 -14 l 1299 92 q 1435 177 1379 94 q 1490 398 1490 260 q 1420 627 1490 536 q 1235 718 1350 718 q 1049 627 1119 718 q 979 392 979 536 q 1111 94 979 215 l 1111 0 l 511 0 l 511 96 q 615 321 615 186 q 556 493 615 424 q 393 563 496 563 q 231 491 290 563 q 171 317 171 419 q 226 153 171 214 q 347 92 281 92 z "},"ഺ":{"ha":814,"x_min":119,"x_max":842,"o":"m 119 0 l 119 811 l 228 811 l 228 96 l 842 96 l 842 0 l 633 0 l 633 -282 l 525 -282 l 525 0 l 119 0 z "},"ഽ":{"ha":590,"x_min":139,"x_max":550,"o":"m 401 -129 q 342 -332 401 -264 q 179 -400 283 -400 q 139 -399 151 -400 l 139 -296 q 179 -297 151 -297 q 263 -256 239 -297 q 288 -129 288 -215 l 288 851 q 347 1055 288 986 q 510 1124 406 1124 q 550 1122 538 1124 l 550 1019 q 510 1021 538 1021 q 426 979 450 1021 q 401 851 401 938 l 401 -129 z "},"ാ":{"ha":661,"x_min":42,"x_max":594,"o":"m 491 701 q 543 645 491 701 q 594 401 594 589 q 491 101 594 214 q 226 -12 388 -12 q 42 26 132 -12 l 42 128 q 224 83 149 83 q 406 170 333 83 q 479 403 479 257 q 406 633 479 549 q 224 718 333 718 q 42 675 144 718 l 42 776 q 226 814 128 814 q 491 701 388 814 z "},"ി":{"ha":368,"x_min":-231,"x_max":250,"o":"m 250 0 l 142 0 l 142 993 q 106 1097 142 1060 q 8 1133 69 1133 q -87 1097 -53 1133 q -122 993 -122 1061 l -122 968 l -231 968 l -231 996 q -165 1169 -231 1108 q 8 1229 -99 1229 q 183 1169 115 1229 q 250 996 250 1108 l 250 0 z "},"ീ":{"ha":368,"x_min":-361,"x_max":250,"o":"m -162 1150 q -185 1150 -162 1150 q -235 1120 -208 1150 q -262 1047 -262 1090 q -235 975 -262 1004 q -163 946 -207 946 q -90 975 -119 946 q -60 1047 -60 1004 q -88 1120 -60 1090 q -162 1150 -117 1150 m 250 0 l 142 0 l 142 882 q 101 1072 142 996 q -22 1160 61 1147 q 38 1042 38 1119 q -20 910 38 964 q -165 857 -78 857 q -306 911 -251 857 q -361 1051 -361 965 q -287 1200 -361 1138 q -92 1263 -214 1263 q 156 1167 61 1263 q 250 904 250 1071 l 250 0 z "},"ു":{"ha":463,"x_min":-35,"x_max":411,"o":"m 97 -152 q 81 -174 97 -152 q 65 -262 65 -196 q 99 -373 65 -329 q 190 -417 132 -417 q 279 -374 247 -417 q 311 -264 311 -331 q 278 -153 311 -197 q 186 -108 244 -108 q 97 -152 128 -108 m 258 -21 q 371 -107 331 -43 q 411 -272 411 -171 q 351 -443 411 -372 q 188 -514 290 -514 q 26 -443 86 -514 q -35 -268 -35 -372 q 13 -97 -35 -164 q 146 -15 61 -29 l 194 161 q 264 512 264 404 q 217 669 264 619 q 78 718 169 718 q 19 711 54 718 l 19 810 q 78 814 50 814 q 296 742 214 814 q 378 528 378 671 q 314 189 378 428 q 258 -21 314 185 z "},"ൂ":{"ha":465,"x_min":-31,"x_max":415,"o":"m 192 -429 q 321 -310 300 -429 l 65 -310 q 109 -397 76 -364 q 192 -429 142 -429 m 322 -224 q 278 -131 313 -167 q 191 -96 244 -96 q 105 -131 138 -96 q 64 -224 72 -165 l 322 -224 m 263 -21 q 375 -107 335 -43 q 415 -272 415 -171 q 355 -443 415 -372 q 192 -514 294 -514 q 30 -443 90 -514 q -31 -268 -31 -372 q 17 -97 -31 -164 q 150 -15 65 -29 l 199 161 q 268 512 268 404 q 221 669 268 619 q 82 718 174 718 q 24 711 58 718 l 24 810 q 82 814 56 814 q 300 742 218 814 q 382 528 382 671 q 318 189 382 428 q 263 -21 318 185 z "},"ൃ":{"ha":429,"x_min":-131,"x_max":440,"o":"m 60 -215 q 41 -215 60 -215 q -3 -243 22 -215 q -29 -308 -29 -271 q -3 -371 -29 -344 q 60 -397 22 -397 q 125 -371 99 -397 q 151 -308 151 -344 q 125 -243 151 -271 q 60 -215 99 -215 m 440 -156 q 347 -416 440 -319 q 131 -512 253 -512 q -60 -455 10 -512 q -131 -312 -131 -397 q -73 -172 -131 -226 q 64 -118 -15 -118 q 196 -169 143 -118 q 249 -296 249 -221 q 188 -419 249 -371 q 290 -328 253 -400 q 328 -176 328 -257 q 306 -31 328 -94 q 254 94 285 33 q 192 219 224 154 q 118 556 118 376 q 160 811 118 683 l 269 811 q 231 576 231 685 q 252 387 231 468 q 304 242 274 306 q 367 117 335 178 q 440 -156 440 -29 z "},"ൄ":{"ha":429,"x_min":-232,"x_max":440,"o":"m -112 -361 q -119 -320 -119 -343 q -100 -281 -119 -297 q -49 -264 -81 -264 q 11 -289 -17 -264 q 69 -264 36 -264 q 121 -281 101 -264 q 140 -320 140 -297 q 133 -361 140 -343 l 89 -361 q 97 -328 97 -347 q 69 -300 97 -300 q 41 -311 51 -300 q 31 -339 31 -322 l 31 -361 l -11 -361 l -11 -339 q -49 -300 -11 -300 q -76 -328 -76 -300 q -68 -361 -76 -347 l -112 -361 m 15 -206 q -24 -206 15 -206 q -108 -235 -62 -206 q -153 -318 -153 -265 q -108 -403 -153 -371 q 15 -435 -62 -435 q 133 -404 92 -435 q 175 -320 175 -374 q 133 -236 175 -267 q 15 -206 92 -206 m 440 -154 q 328 -415 440 -318 q 69 -511 217 -511 q -156 -460 -79 -511 q -232 -324 -232 -408 q -162 -187 -232 -240 q 15 -135 -93 -135 q 188 -185 124 -135 q 253 -308 253 -236 q 238 -382 253 -351 q 328 -154 328 -304 q 222 156 328 -26 q 151 333 183 225 q 118 562 118 440 q 160 811 118 683 l 269 811 q 231 576 231 685 q 252 387 231 468 q 304 242 274 306 q 367 118 335 179 q 440 -154 440 -28 z "},"െ":{"ha":1014,"x_min":69,"x_max":944,"o":"m 69 357 q 193 679 69 544 q 506 814 317 814 q 819 688 694 814 q 944 389 944 561 q 917 188 944 276 q 836 0 890 100 l 710 0 q 802 194 772 108 q 832 389 832 281 q 733 629 832 542 q 512 717 635 717 q 295 635 389 717 q 178 401 201 553 q 259 478 203 449 q 374 507 315 507 q 559 433 486 507 q 632 250 632 360 q 559 63 632 140 q 363 -14 486 -14 q 155 91 240 -14 q 69 357 69 196 m 253 362 q 230 339 253 362 q 207 244 207 315 q 255 128 207 174 q 370 82 303 82 q 480 127 438 82 q 522 244 522 172 q 478 362 522 315 q 366 408 433 408 q 253 362 299 408 z "},"േ":{"ha":864,"x_min":53,"x_max":801,"o":"m 606 713 q 585 713 606 713 q 538 684 564 713 q 513 613 513 656 q 538 543 513 571 q 606 515 564 515 q 675 544 647 515 q 703 613 703 572 q 675 683 703 654 q 606 713 647 713 m 539 258 q 526 243 539 258 q 513 188 513 229 q 538 117 513 146 q 606 89 564 89 q 675 117 647 89 q 703 188 703 146 q 675 258 703 229 q 606 286 647 286 q 539 258 565 286 m 612 372 q 657 372 612 372 q 752 319 703 372 q 801 183 801 265 q 725 44 801 101 q 506 -14 649 -14 q 179 106 306 -14 q 53 400 53 225 q 179 694 53 575 q 506 814 306 814 q 725 756 649 814 q 801 617 801 699 q 752 481 801 535 q 612 428 703 428 q 467 480 521 428 q 414 600 414 532 q 432 668 414 635 q 475 719 450 701 q 255 623 343 707 q 167 400 167 539 q 256 176 167 261 q 475 81 344 92 q 432 131 450 97 q 414 201 414 165 q 467 321 414 269 q 612 372 521 372 z "},"ൈ":{"ha":1981,"x_min":69,"x_max":1911,"o":"m 1036 357 q 1160 679 1036 544 q 1472 814 1283 814 q 1786 688 1661 814 q 1911 389 1911 561 q 1884 188 1911 276 q 1803 0 1857 100 l 1676 0 q 1769 194 1739 108 q 1799 389 1799 281 q 1700 629 1799 542 q 1478 717 1601 717 q 1262 635 1356 717 q 1144 401 1168 553 q 1226 478 1169 449 q 1340 507 1282 507 q 1526 433 1453 507 q 1599 250 1599 360 q 1526 63 1599 140 q 1330 -14 1453 -14 q 1122 91 1207 -14 q 1036 357 1036 196 m 1219 362 q 1197 339 1219 362 q 1174 244 1174 315 q 1222 128 1174 174 q 1337 82 1269 82 q 1447 127 1404 82 q 1489 244 1489 172 q 1444 362 1489 315 q 1333 408 1400 408 q 1219 362 1265 408 m 69 357 q 193 679 69 544 q 506 814 317 814 q 819 688 694 814 q 944 389 944 561 q 917 188 944 276 q 836 0 890 100 l 710 0 q 802 194 772 108 q 832 389 832 281 q 733 629 832 542 q 512 717 635 717 q 295 635 389 717 q 178 401 201 553 q 259 478 203 449 q 374 507 315 507 q 559 433 486 507 q 632 250 632 360 q 559 63 632 140 q 363 -14 486 -14 q 155 91 240 -14 q 69 357 69 196 m 253 362 q 230 339 253 362 q 207 244 207 315 q 255 128 207 174 q 370 82 303 82 q 480 127 438 82 q 522 244 522 172 q 478 362 522 315 q 366 408 433 408 q 253 362 299 408 z "},"ൊ":{"ha":2525,"x_min":69,"x_max":2458,"o":"m 2355 701 q 2407 645 2355 701 q 2458 401 2458 589 q 2355 101 2458 214 q 2090 -12 2251 -12 q 1906 26 1996 -12 l 1906 128 q 2088 83 2013 83 q 2270 170 2197 83 q 2343 403 2343 257 q 2270 633 2343 549 q 2088 718 2197 718 q 1906 675 2008 718 l 1906 776 q 2090 814 1992 814 q 2355 701 2251 814 m 1761 676 q 1768 669 1761 676 q 1775 643 1775 663 q 1761 610 1775 624 q 1727 596 1747 596 q 1693 610 1707 596 q 1679 643 1679 624 q 1693 676 1679 663 q 1727 690 1707 690 q 1761 676 1747 690 m 1631 771 q 1638 764 1631 771 q 1644 738 1644 757 q 1631 704 1644 718 q 1597 690 1617 690 q 1563 704 1576 690 q 1549 738 1549 718 q 1563 771 1549 757 q 1597 785 1576 785 q 1631 771 1617 785 m 1831 511 q 1838 504 1831 511 q 1844 478 1844 497 q 1831 444 1844 458 q 1797 431 1817 431 q 1763 444 1776 431 q 1749 478 1749 458 q 1763 511 1749 497 q 1797 525 1776 525 q 1831 511 1817 525 m 1454 790 q 1461 783 1454 790 q 1468 757 1468 776 q 1454 724 1468 738 q 1420 710 1440 710 q 1386 724 1400 710 q 1372 757 1372 738 q 1386 790 1372 776 q 1420 804 1400 804 q 1454 790 1440 804 m 1817 325 q 1824 318 1817 325 q 1831 292 1831 311 q 1817 258 1831 272 q 1783 244 1803 244 q 1749 258 1763 244 q 1735 292 1735 272 q 1749 325 1735 311 q 1783 339 1763 339 q 1817 325 1803 339 m 1290 731 q 1297 724 1290 731 q 1304 697 1304 717 q 1290 664 1304 678 q 1256 650 1276 650 q 1222 664 1236 650 q 1208 697 1208 678 q 1222 731 1208 717 q 1256 744 1236 744 q 1290 731 1276 744 m 1717 189 q 1724 182 1717 189 q 1731 156 1731 175 q 1717 122 1731 136 q 1683 108 1703 108 q 1649 122 1663 108 q 1635 156 1635 136 q 1649 189 1635 175 q 1683 203 1663 203 q 1717 189 1703 203 m 1179 578 q 1186 571 1179 578 q 1193 544 1193 564 q 1179 511 1193 525 q 1145 497 1165 497 q 1111 511 1125 497 q 1097 544 1097 525 q 1111 578 1097 564 q 1145 592 1125 592 q 1179 578 1165 592 m 1549 115 q 1556 108 1549 115 q 1563 82 1563 101 q 1549 49 1563 63 q 1515 35 1535 35 q 1481 49 1494 35 q 1467 82 1467 63 q 1481 115 1467 101 q 1515 129 1494 129 q 1549 115 1535 129 m 1160 404 q 1167 397 1160 404 q 1174 371 1174 390 q 1160 338 1174 351 q 1126 324 1146 324 q 1092 338 1106 324 q 1078 371 1078 351 q 1092 404 1078 390 q 1126 418 1106 418 q 1160 404 1146 418 m 1372 136 q 1379 129 1372 136 q 1386 103 1386 122 q 1372 69 1386 83 q 1338 56 1358 56 q 1304 69 1318 56 q 1290 103 1290 83 q 1304 136 1290 122 q 1338 150 1318 150 q 1372 136 1358 150 m 1231 242 q 1238 235 1231 242 q 1244 208 1244 228 q 1231 175 1244 189 q 1197 161 1217 161 q 1163 175 1176 161 q 1149 208 1149 189 q 1163 242 1149 228 q 1197 256 1176 256 q 1231 242 1217 256 m 253 362 q 230 339 253 362 q 207 244 207 315 q 255 128 207 174 q 370 82 303 82 q 480 127 438 82 q 522 244 522 172 q 478 362 522 315 q 366 408 433 408 q 253 362 299 408 m 374 507 q 559 433 486 507 q 632 250 632 360 q 559 63 632 140 q 363 -14 486 -14 q 155 90 240 -14 q 69 369 69 193 q 193 680 69 546 q 507 814 317 814 q 821 689 697 814 q 944 389 944 564 q 917 188 944 276 q 836 0 890 100 l 710 0 q 802 194 772 108 q 832 389 832 281 q 733 629 832 542 q 512 717 635 717 q 295 635 389 717 q 178 401 201 553 q 259 478 203 449 q 374 507 315 507 z "},"ോ":{"ha":2364,"x_min":53,"x_max":2297,"o":"m 2194 701 q 2245 645 2194 701 q 2297 401 2297 589 q 2194 101 2297 214 q 1929 -12 2090 -12 q 1744 26 1835 -12 l 1744 128 q 1926 83 1851 83 q 2109 170 2036 83 q 2182 403 2182 257 q 2109 633 2182 549 q 1926 718 2036 718 q 1744 675 1847 718 l 1744 776 q 1929 814 1831 814 q 2194 701 2090 814 m 1608 676 q 1615 669 1608 676 q 1622 643 1622 663 q 1608 610 1622 624 q 1574 596 1594 596 q 1540 610 1554 596 q 1526 643 1526 624 q 1540 676 1526 663 q 1574 690 1554 690 q 1608 676 1594 690 m 1478 771 q 1485 764 1478 771 q 1492 738 1492 757 q 1478 704 1492 718 q 1444 690 1464 690 q 1410 704 1424 690 q 1396 738 1396 718 q 1410 771 1396 757 q 1444 785 1424 785 q 1478 771 1464 785 m 1678 511 q 1685 504 1678 511 q 1692 478 1692 497 q 1678 444 1692 458 q 1644 431 1664 431 q 1610 444 1624 431 q 1596 478 1596 458 q 1610 511 1596 497 q 1644 525 1624 525 q 1678 511 1664 525 m 1301 790 q 1308 783 1301 790 q 1315 757 1315 776 q 1301 724 1315 738 q 1267 710 1288 710 q 1233 724 1247 710 q 1219 757 1219 738 q 1233 790 1219 776 q 1267 804 1247 804 q 1301 790 1288 804 m 1664 325 q 1671 318 1664 325 q 1678 292 1678 311 q 1664 258 1678 272 q 1630 244 1650 244 q 1596 258 1610 244 q 1582 292 1582 272 q 1596 325 1582 311 q 1630 339 1610 339 q 1664 325 1650 339 m 1138 731 q 1144 724 1138 731 q 1151 697 1151 717 q 1138 664 1151 678 q 1103 650 1124 650 q 1069 664 1083 650 q 1056 697 1056 678 q 1069 731 1056 717 q 1103 744 1083 744 q 1138 731 1124 744 m 1564 189 q 1571 182 1564 189 q 1578 156 1578 175 q 1564 122 1578 136 q 1530 108 1550 108 q 1496 122 1510 108 q 1482 156 1482 136 q 1496 189 1482 175 q 1530 203 1510 203 q 1564 189 1550 203 m 1026 578 q 1033 571 1026 578 q 1040 544 1040 564 q 1026 511 1040 525 q 992 497 1013 497 q 958 511 972 497 q 944 544 944 525 q 958 578 944 564 q 992 592 972 592 q 1026 578 1013 592 m 1396 115 q 1403 108 1396 115 q 1410 82 1410 101 q 1396 49 1410 63 q 1362 35 1382 35 q 1328 49 1342 35 q 1314 82 1314 63 q 1328 115 1314 101 q 1362 129 1342 129 q 1396 115 1382 129 m 1007 404 q 1014 397 1007 404 q 1021 371 1021 390 q 1007 338 1021 351 q 973 324 993 324 q 939 338 953 324 q 925 371 925 351 q 939 404 925 390 q 973 418 953 418 q 1007 404 993 418 m 1219 136 q 1226 129 1219 136 q 1233 103 1233 122 q 1219 69 1233 83 q 1185 56 1206 56 q 1151 69 1165 56 q 1138 103 1138 83 q 1151 136 1138 122 q 1185 150 1165 150 q 1219 136 1206 150 m 1078 242 q 1085 235 1078 242 q 1092 208 1092 228 q 1078 175 1092 189 q 1044 161 1064 161 q 1010 175 1024 161 q 996 208 996 189 q 1010 242 996 228 q 1044 256 1024 256 q 1078 242 1064 256 m 606 713 q 585 713 606 713 q 538 684 564 713 q 511 613 511 656 q 538 542 511 571 q 606 514 564 514 q 676 542 647 514 q 704 613 704 571 q 676 683 704 654 q 606 713 647 713 m 606 286 q 585 286 606 286 q 538 258 564 286 q 511 187 511 229 q 538 116 511 144 q 606 88 564 88 q 676 117 647 88 q 704 188 704 146 q 676 258 704 229 q 606 286 647 286 m 612 372 q 657 372 612 372 q 752 319 703 372 q 801 183 801 265 q 725 44 801 101 q 506 -14 649 -14 q 179 106 306 -14 q 53 400 53 225 q 179 694 53 575 q 506 814 306 814 q 725 756 649 814 q 801 617 801 699 q 752 481 801 535 q 612 428 703 428 q 467 480 521 428 q 414 600 414 532 q 432 668 414 635 q 475 719 450 701 q 256 623 344 707 q 168 401 168 539 q 256 177 168 263 q 475 81 344 92 q 432 131 450 97 q 414 201 414 165 q 467 321 414 269 q 612 372 521 372 z "},"ൌ":{"ha":2004,"x_min":74,"x_max":1929,"o":"m 757 674 q 764 667 757 674 q 771 640 771 660 q 757 607 771 621 q 723 593 743 593 q 689 607 703 593 q 675 640 675 621 q 689 674 675 660 q 723 688 703 688 q 757 674 743 688 m 626 768 q 633 761 626 768 q 640 735 640 754 q 626 701 640 715 q 592 688 613 688 q 558 701 572 688 q 544 735 544 715 q 558 768 544 754 q 592 782 572 782 q 626 768 613 782 m 826 508 q 833 501 826 508 q 840 475 840 494 q 826 442 840 456 q 792 428 813 428 q 758 442 772 428 q 744 475 744 456 q 758 508 744 494 q 792 522 772 522 q 826 508 813 522 m 450 788 q 457 781 450 788 q 464 754 464 774 q 450 721 464 735 q 416 707 436 707 q 382 721 396 707 q 368 754 368 735 q 382 788 368 774 q 416 801 396 801 q 450 788 436 801 m 813 322 q 819 315 813 322 q 826 289 826 308 q 813 256 826 269 q 778 242 799 242 q 744 256 758 242 q 731 289 731 269 q 744 322 731 308 q 778 336 758 336 q 813 322 799 336 m 286 728 q 293 721 286 728 q 300 694 300 714 q 286 661 300 675 q 252 647 272 647 q 218 661 232 647 q 204 694 204 675 q 218 728 204 714 q 252 742 232 742 q 286 728 272 742 m 713 186 q 719 179 713 186 q 726 153 726 172 q 713 119 726 133 q 678 106 699 106 q 644 119 658 106 q 631 153 631 133 q 644 186 631 172 q 678 200 658 200 q 713 186 699 200 m 175 575 q 182 568 175 575 q 189 542 189 561 q 175 508 189 522 q 141 494 161 494 q 107 508 121 494 q 93 542 93 522 q 107 575 93 561 q 141 589 121 589 q 175 575 161 589 m 544 113 q 551 106 544 113 q 558 79 558 99 q 544 46 558 60 q 510 32 531 32 q 476 46 490 32 q 463 79 463 60 q 476 113 463 99 q 510 126 490 126 q 544 113 531 126 m 156 401 q 163 394 156 401 q 169 368 169 388 q 156 335 169 349 q 122 321 142 321 q 88 335 101 321 q 74 368 74 349 q 88 401 74 388 q 122 415 101 415 q 156 401 142 415 m 368 133 q 375 126 368 133 q 382 100 382 119 q 368 67 382 81 q 334 53 354 53 q 300 67 314 53 q 286 100 286 81 q 300 133 286 119 q 334 147 314 147 q 368 133 354 147 m 226 239 q 233 232 226 239 q 240 206 240 225 q 226 172 240 186 q 192 158 213 158 q 158 172 172 158 q 144 206 144 186 q 158 239 144 225 q 192 253 172 253 q 226 239 213 253 m 1929 457 q 1822 142 1929 265 q 1539 19 1714 19 q 1400 43 1464 19 l 1400 144 q 1536 124 1471 124 q 1739 217 1663 124 q 1815 447 1815 310 q 1766 651 1815 585 q 1643 717 1717 717 q 1525 666 1569 717 q 1481 539 1481 615 l 1481 456 l 1368 456 l 1368 536 q 1320 669 1368 621 q 1206 717 1272 717 q 1095 666 1140 717 q 1050 541 1050 615 q 1083 385 1050 467 l 969 385 q 939 525 939 446 q 1015 733 939 651 q 1204 814 1090 814 q 1336 776 1279 814 q 1424 682 1393 739 q 1506 777 1451 740 q 1635 814 1560 814 q 1849 715 1769 814 q 1929 457 1929 615 z "},"്":{"ha":0,"x_min":-454,"x_max":104,"o":"m 104 1178 q 28 974 104 1049 q -175 899 -49 899 q -378 974 -301 899 q -454 1178 -454 1049 l -351 1178 q -304 1047 -351 1097 q -176 997 -257 997 q -48 1047 -94 997 q -1 1178 -1 1097 l 104 1178 z "},"ൎ":{"ha":0,"x_min":-261,"x_max":-90,"o":"m -175 1189 q -156 1189 -175 1189 q -113 1165 -136 1189 q -90 1103 -90 1142 q -112 1040 -90 1064 q -174 1017 -135 1017 q -237 1040 -214 1017 q -261 1103 -261 1064 q -237 1165 -261 1142 q -175 1189 -214 1189 z "},"ൗ":{"ha":1110,"x_min":44,"x_max":1035,"o":"m 1035 457 q 927 142 1035 265 q 644 19 819 19 q 506 43 569 19 l 506 144 q 642 124 576 124 q 844 217 768 124 q 921 447 921 310 q 872 651 921 585 q 749 717 824 717 q 631 666 675 717 q 586 539 586 615 l 586 456 l 474 456 l 474 536 q 426 669 474 621 q 312 717 378 717 q 201 666 246 717 q 156 541 156 615 q 189 385 156 467 l 75 385 q 44 525 44 446 q 120 733 44 651 q 310 814 196 814 q 442 776 385 814 q 531 682 500 739 q 612 777 558 740 q 740 814 665 814 q 955 715 875 814 q 1035 457 1035 615 z "},"ൠ":{"ha":1231,"x_min":64,"x_max":1167,"o":"m 926 722 q 898 722 926 722 q 833 684 869 722 q 796 590 796 646 q 833 496 796 535 q 926 457 869 457 q 1019 496 983 457 q 1054 590 1054 535 q 1019 684 1054 646 q 926 722 983 722 m 304 722 q 276 722 304 722 q 212 684 247 722 q 176 590 176 646 q 212 496 176 535 q 304 457 247 457 q 398 496 361 457 q 435 590 435 535 q 398 684 435 646 q 304 722 361 722 m 386 -110 q 371 -35 371 -79 q 408 42 371 10 q 507 74 444 74 q 615 25 569 74 q 724 74 661 74 q 823 42 786 74 q 860 -35 860 10 q 844 -110 860 -79 l 769 -110 q 786 -49 786 -79 q 769 -3 786 -19 q 723 13 753 13 q 672 -9 693 13 q 650 -68 650 -31 l 650 -110 l 581 -110 l 581 -68 q 559 -9 581 -31 q 508 13 538 13 q 461 -3 478 13 q 444 -49 444 -19 q 461 -110 444 -79 l 386 -110 m 615 135 q 513 135 615 135 q 306 97 411 135 q 201 -27 201 58 q 310 -156 201 -112 q 614 -199 419 -199 q 919 -156 808 -199 q 1029 -27 1029 -112 q 924 97 1029 58 q 615 135 819 135 m 1139 -33 q 1097 -153 1139 -101 q 981 -236 1056 -206 q 614 -294 835 -294 q 167 -185 304 -294 q 92 -35 92 -125 q 317 186 92 139 q 138 324 213 232 q 64 538 64 415 q 133 737 64 660 q 306 814 203 814 q 476 747 410 814 q 543 586 543 681 q 479 431 543 492 q 337 371 415 371 q 210 406 258 371 q 367 266 265 304 q 615 228 469 228 q 864 266 761 228 q 1022 406 967 304 q 895 371 972 371 q 753 431 818 371 q 688 586 688 492 q 753 747 688 681 q 924 814 819 814 q 1097 737 1028 814 q 1167 538 1167 660 q 1093 324 1167 415 q 915 186 1019 232 q 1076 112 1014 165 q 1139 -33 1139 58 z "},"ൡ":{"ha":1822,"x_min":75,"x_max":1769,"o":"m 242 362 q 219 339 242 362 q 196 244 196 315 q 244 128 196 174 q 359 82 292 82 q 469 127 426 82 q 511 244 511 172 q 467 362 511 315 q 355 408 422 408 q 242 362 288 408 m 1769 106 q 1653 -202 1769 -81 q 1354 -324 1538 -324 q 1207 -307 1294 -324 l 1207 -207 q 1353 -225 1286 -225 q 1575 -135 1486 -225 q 1664 117 1664 -46 q 1656 194 1664 158 q 1558 42 1625 97 q 1399 -14 1490 -14 q 1208 63 1282 -14 q 1135 249 1135 139 q 1211 432 1135 358 q 1401 506 1288 506 q 1560 465 1486 506 q 1442 650 1528 582 q 1238 718 1357 718 q 1026 630 1118 718 q 935 400 935 542 l 935 0 l 822 0 l 822 403 q 728 626 822 536 q 513 717 633 717 q 298 632 392 717 q 179 401 204 547 q 257 478 206 449 q 365 507 308 507 q 549 433 476 507 q 622 250 622 360 q 549 63 622 140 q 354 -14 476 -14 q 153 86 232 -14 q 75 363 75 186 q 197 676 75 539 q 515 814 319 814 q 736 750 638 814 q 878 590 835 686 q 1020 751 922 688 q 1245 814 1118 814 q 1474 749 1372 814 q 1626 583 1575 683 q 1679 367 1676 483 q 1769 106 1769 251 m 1246 244 q 1246 208 1246 244 q 1289 127 1246 172 q 1404 82 1332 82 q 1526 153 1476 82 q 1576 340 1576 224 l 1576 342 q 1403 408 1506 408 q 1290 363 1333 408 q 1246 244 1246 317 z "},"ൢ":{"ha":0,"x_min":-1101,"x_max":-119,"o":"m -364 -385 q -290 -529 -364 -529 q -215 -378 -215 -529 q -290 -210 -215 -271 q -364 -385 -364 -269 m -1004 -378 q -930 -529 -1004 -529 q -856 -385 -856 -529 q -929 -210 -856 -268 q -1004 -378 -1004 -271 m -758 -385 q -803 -549 -758 -489 q -929 -610 -849 -610 q -1056 -547 -1010 -610 q -1101 -370 -1101 -485 q -1023 -179 -1101 -256 q -828 -103 -944 -103 q -695 -137 -753 -103 q -610 -218 -637 -172 q -527 -137 -582 -171 q -396 -103 -472 -103 q -199 -179 -279 -103 q -119 -370 -119 -256 q -165 -547 -119 -485 q -291 -610 -211 -610 q -416 -549 -371 -610 q -461 -385 -461 -489 q -434 -269 -461 -324 q -364 -186 -407 -215 q -501 -222 -442 -175 q -561 -349 -561 -268 l -561 -601 l -658 -601 l -658 -349 q -718 -222 -658 -268 q -854 -186 -778 -175 q -785 -269 -812 -215 q -758 -385 -758 -324 z "},"ൣ":{"ha":0,"x_min":-1156,"x_max":-72,"o":"m -1028 -392 q -1041 -405 -1028 -392 q -1053 -450 -1053 -417 q -1028 -507 -1053 -483 q -967 -531 -1003 -531 q -909 -507 -932 -531 q -886 -450 -886 -483 q -910 -392 -886 -417 q -969 -368 -933 -368 q -1028 -392 -1004 -368 m -133 -376 q -72 -555 -72 -447 q -148 -735 -72 -662 q -347 -807 -224 -807 q -446 -796 -397 -807 l -446 -711 q -349 -725 -387 -725 q -212 -676 -264 -725 q -160 -524 -160 -626 l -160 -510 q -319 -610 -214 -610 q -442 -564 -393 -610 q -492 -449 -492 -518 q -441 -334 -492 -379 q -315 -289 -390 -289 q -232 -306 -272 -289 q -412 -182 -278 -182 q -542 -233 -489 -182 q -596 -369 -596 -283 l -596 -601 l -690 -601 l -690 -364 q -746 -235 -690 -285 q -872 -185 -801 -185 q -994 -226 -942 -185 q -1062 -340 -1046 -268 q -1017 -303 -1047 -318 q -956 -287 -987 -287 q -838 -333 -883 -287 q -793 -446 -793 -378 q -841 -562 -793 -514 q -971 -610 -889 -610 q -1104 -549 -1053 -610 q -1156 -381 -1156 -489 q -1078 -188 -1156 -272 q -875 -104 -1000 -104 q -733 -140 -797 -104 q -643 -232 -669 -176 q -551 -140 -612 -176 q -414 -104 -490 -104 q -213 -183 -287 -104 q -133 -376 -139 -262 m -399 -451 q -399 -468 -399 -451 q -375 -509 -399 -486 q -311 -532 -351 -532 q -244 -497 -271 -532 q -217 -404 -217 -462 q -306 -368 -260 -368 q -375 -392 -351 -368 q -399 -451 -399 -415 z "},"൦":{"ha":819,"x_min":60,"x_max":761,"o":"m 410 -15 q 327 -15 410 -15 q 151 102 243 -15 q 60 403 60 219 q 151 700 60 586 q 410 814 242 814 q 670 700 579 814 q 761 402 761 586 q 669 101 761 218 q 410 -15 578 -15 m 408 718 q 350 718 408 718 q 233 628 293 718 q 174 401 174 539 q 236 172 174 263 q 413 81 299 81 q 587 169 528 81 q 646 399 646 258 q 584 628 646 539 q 408 718 522 718 z "},"൧":{"ha":917,"x_min":-35,"x_max":797,"o":"m 304 456 l 304 96 l 689 96 l 689 456 q 494 717 689 717 q 304 456 304 717 m 444 -268 l 186 -268 q 22 -218 78 -268 q -35 -83 -35 -168 q 27 49 -35 1 q 197 97 89 97 l 197 456 q 273 719 197 625 q 497 814 349 814 q 721 719 644 814 q 797 456 797 625 l 797 0 l 203 0 q 79 -85 79 0 q 210 -172 79 -172 l 444 -172 l 444 -268 z "},"൨":{"ha":967,"x_min":74,"x_max":992,"o":"m 565 0 l 565 92 q 665 216 629 138 q 700 392 700 294 q 629 627 700 536 q 443 718 558 718 q 258 627 328 718 q 188 398 188 536 q 244 182 188 260 q 381 103 300 104 l 381 -3 q 153 112 232 -1 q 74 404 74 225 q 175 699 74 583 q 443 814 276 814 q 712 699 610 814 q 814 388 814 583 q 696 88 814 193 q 992 96 778 96 l 992 0 l 565 0 z "},"൩":{"ha":1400,"x_min":74,"x_max":1414,"o":"m 449 106 l 449 0 q 296 27 364 0 q 188 96 228 54 q 119 193 147 138 q 74 406 74 289 q 167 708 74 603 q 411 814 260 814 q 654 665 583 814 q 748 774 686 733 q 896 814 810 814 q 1138 698 1044 814 q 1232 388 1232 582 q 1121 89 1232 194 q 1414 96 1217 96 l 1414 0 l 983 0 l 983 92 q 1083 215 1047 136 q 1118 392 1118 294 q 1054 626 1118 533 q 903 718 990 718 q 763 657 815 718 q 710 497 710 596 l 710 0 l 600 0 l 600 497 q 547 657 600 596 q 402 718 494 718 q 249 634 310 718 q 188 409 188 550 q 256 187 188 268 q 449 106 324 106 z "},"൪":{"ha":1046,"x_min":81,"x_max":961,"o":"m 522 272 q 568 138 522 189 q 685 88 614 88 q 801 160 757 88 q 846 369 846 233 q 810 533 846 456 q 708 658 774 610 q 649 572 693 635 q 583 475 604 508 q 542 384 563 442 q 522 272 522 326 m 961 369 q 889 95 961 201 q 686 -11 817 -11 q 481 73 556 -11 q 407 272 407 157 q 430 406 407 339 q 476 510 453 472 q 547 615 500 549 q 610 706 594 682 q 521 718 568 718 q 289 619 383 718 q 194 364 194 519 q 224 179 194 264 q 319 0 254 94 l 192 0 q 81 360 81 175 q 202 679 81 544 q 522 814 324 814 q 656 793 593 814 q 676 894 676 846 q 617 1036 676 988 q 461 1085 558 1085 q 319 1058 396 1085 l 319 1158 q 461 1181 401 1181 q 699 1103 607 1181 q 792 894 792 1026 q 757 744 792 821 q 906 585 850 683 q 961 369 961 486 z "},"൫":{"ha":1424,"x_min":67,"x_max":1357,"o":"m 1081 108 q 969 -122 1081 -22 q 669 -222 858 -222 q 239 -49 411 -222 q 67 402 67 124 q 247 868 67 681 q 718 1054 426 1056 q 991 999 868 1053 q 1193 853 1114 944 q 1315 647 1272 763 q 1357 426 1357 531 q 1343 238 1357 322 q 1317 110 1329 153 q 1279 -12 1304 68 l 1156 -12 q 1243 403 1244 211 q 1094 802 1240 646 q 718 958 947 958 q 453 898 572 958 q 257 708 333 838 q 181 396 181 578 q 213 194 181 285 q 295 45 244 103 q 411 -53 346 -12 q 672 -125 532 -125 q 889 -56 811 -125 q 967 100 967 14 q 912 230 967 186 q 763 274 857 274 l 706 274 l 706 376 l 749 376 q 870 413 825 376 q 915 516 915 450 q 870 615 915 582 q 741 647 825 647 q 597 576 657 647 q 538 360 538 504 l 538 83 l 429 83 l 429 360 q 459 544 429 465 q 538 664 489 622 q 751 746 633 746 q 949 687 869 746 q 1029 517 1029 628 q 992 393 1029 444 q 890 331 954 342 q 1028 259 975 319 q 1081 108 1081 199 z "},"൬":{"ha":1722,"x_min":74,"x_max":1639,"o":"m 632 636 q 714 764 657 714 q 854 814 771 814 q 996 767 938 814 q 1081 636 1054 719 q 1172 765 1107 715 q 1325 814 1238 814 q 1553 704 1467 814 q 1639 394 1639 594 q 1564 36 1639 192 q 1461 -113 1522 -50 q 1303 -215 1400 -176 q 1088 -254 1207 -254 l 1088 -151 q 1414 -3 1304 -151 q 1524 394 1524 144 q 1470 630 1524 542 q 1326 718 1417 718 q 1186 644 1236 718 q 1136 444 1136 569 l 1136 0 l 1028 0 l 1028 444 q 981 649 1028 579 q 858 718 935 718 q 733 644 781 718 q 685 449 685 569 l 685 0 l 576 0 l 576 449 q 526 646 576 574 q 386 718 476 718 q 242 630 296 718 q 188 399 188 542 q 248 181 188 257 q 426 106 308 106 l 426 0 q 281 26 344 0 q 178 92 217 51 q 117 186 140 132 q 74 394 74 281 q 159 704 74 594 q 386 814 244 814 q 540 764 474 814 q 632 636 606 714 z "},"൭":{"ha":1038,"x_min":75,"x_max":957,"o":"m 353 431 q 320 431 353 431 q 240 383 286 431 q 194 266 194 336 q 242 150 194 196 q 357 104 290 104 q 467 150 424 104 q 511 266 511 196 q 466 383 511 336 q 353 431 421 431 m 811 707 q 917 565 876 654 q 957 359 957 475 q 925 144 957 243 q 828 -37 893 44 q 650 -165 763 -118 q 388 -215 538 -212 l 388 -114 q 728 15 613 -114 q 844 363 844 144 q 751 618 844 521 q 528 715 658 715 q 300 635 397 715 q 178 422 203 554 q 255 499 204 471 q 364 528 306 528 q 549 455 476 528 q 621 272 621 382 q 548 85 621 163 q 353 8 475 8 q 153 103 231 8 q 75 354 75 197 q 198 678 75 542 q 518 814 321 814 q 811 707 679 814 z "},"൮":{"ha":1361,"x_min":68,"x_max":1243,"o":"m 400 0 q 244 38 311 0 q 139 136 176 75 q 68 392 68 253 q 171 693 68 572 q 453 814 274 814 q 736 697 633 814 q 839 406 839 579 q 731 96 839 232 l 1133 96 l 1133 811 l 1243 811 l 1243 0 q 1142 -260 1243 -167 q 840 -367 1042 -354 l 840 -264 q 1136 0 1136 -244 l 592 0 l 592 94 q 725 392 725 215 q 651 627 725 536 q 453 718 578 718 q 255 624 328 718 q 182 391 182 531 q 250 178 182 251 q 400 104 318 104 l 400 0 z "},"൯":{"ha":1514,"x_min":74,"x_max":1431,"o":"m 990 269 q 1037 134 990 185 q 1154 83 1083 83 q 1270 158 1225 83 q 1315 369 1315 233 q 1278 532 1315 456 q 1176 657 1242 608 q 1116 570 1161 635 q 1051 472 1071 506 q 1010 381 1031 439 q 990 269 990 324 m 1431 369 q 1358 94 1431 203 q 1155 -14 1285 -14 q 951 70 1025 -14 q 876 269 876 154 q 899 403 876 336 q 946 508 922 469 q 1017 614 969 547 q 1079 706 1064 681 q 993 718 1039 718 q 797 640 885 718 q 710 431 710 563 l 710 0 l 600 0 l 600 497 q 547 657 600 596 q 402 718 494 718 q 249 634 310 718 q 188 409 188 550 q 256 187 188 268 q 449 106 324 106 l 449 0 q 296 27 364 0 q 188 96 228 54 q 119 193 147 138 q 74 406 74 289 q 167 708 74 603 q 411 814 260 814 q 565 767 497 814 q 667 647 632 719 q 801 767 713 721 q 997 814 890 814 q 1125 793 1064 814 q 1146 894 1146 846 q 1086 1036 1146 988 q 929 1085 1026 1085 q 788 1058 864 1085 l 788 1158 q 929 1181 869 1181 q 1167 1103 1075 1181 q 1260 894 1260 1026 q 1226 744 1260 824 q 1375 586 1319 685 q 1431 369 1431 488 z "},"൰":{"ha":1288,"x_min":119,"x_max":1214,"o":"m 401 0 q 228 72 300 0 l 228 -161 l 119 -161 l 119 814 l 228 814 l 228 260 q 296 137 249 178 q 401 96 343 96 q 529 157 481 96 q 578 318 578 218 l 578 814 l 686 814 l 686 318 q 740 158 686 219 q 885 96 793 96 q 1038 180 978 96 q 1099 405 1099 264 q 1031 628 1099 546 q 839 710 964 710 l 839 814 q 992 787 924 814 q 1100 718 1060 760 q 1167 621 1140 676 q 1214 408 1214 525 q 1121 106 1214 211 q 876 0 1028 0 q 633 149 704 0 q 401 0 565 0 z "},"൱":{"ha":1324,"x_min":74,"x_max":1236,"o":"m 1236 399 q 1124 -67 1236 138 q 965 -234 1067 -171 q 732 -297 864 -297 l 732 -192 q 1017 -28 913 -192 q 1122 399 1122 135 q 1061 629 1122 544 q 908 714 1000 714 q 763 654 815 714 q 710 497 710 594 l 710 0 l 600 0 l 600 497 q 547 657 600 596 q 402 718 494 718 q 249 634 310 718 q 188 409 188 550 q 256 187 188 268 q 449 106 324 106 l 449 0 q 296 27 364 0 q 188 96 228 54 q 119 193 147 138 q 74 406 74 289 q 167 708 74 603 q 411 814 260 814 q 654 665 582 814 q 753 772 689 733 q 900 810 817 810 q 1144 704 1051 810 q 1236 399 1236 599 z "},"൲":{"ha":1997,"x_min":74,"x_max":1975,"o":"m 1634 754 q 1615 735 1634 754 q 1596 656 1596 715 q 1634 556 1596 596 q 1730 515 1672 515 q 1826 555 1788 515 q 1864 655 1864 594 q 1825 754 1864 715 q 1729 793 1786 793 q 1634 754 1672 793 m 1149 82 q 1278 156 1233 82 q 1322 357 1322 229 q 1319 408 1322 375 l 1207 408 q 1050 362 1104 408 q 996 242 996 315 q 1040 125 996 168 q 1149 82 1083 82 m 1432 357 q 1353 86 1432 186 q 1153 -14 1275 -14 q 957 58 1031 -14 q 883 244 883 131 q 969 433 883 358 q 1206 507 1056 507 l 1296 507 q 1175 661 1258 606 q 982 717 1092 717 q 791 642 872 717 q 710 438 710 568 l 710 0 l 600 0 l 600 497 q 547 657 600 596 q 402 718 494 718 q 249 634 310 718 q 188 409 188 550 q 256 187 188 268 q 449 106 324 106 l 449 0 q 296 27 364 0 q 188 96 228 54 q 119 193 147 138 q 74 406 74 289 q 167 708 74 603 q 411 814 260 814 q 566 769 499 814 q 665 653 633 724 q 989 814 775 814 q 1254 728 1144 814 q 1408 507 1364 642 l 1544 507 q 1485 663 1485 569 q 1553 822 1485 756 q 1728 889 1621 889 q 1906 824 1836 889 q 1975 651 1975 760 q 1892 475 1975 542 q 1674 408 1810 408 l 1429 408 q 1432 357 1432 375 z "},"൳":{"ha":921,"x_min":68,"x_max":929,"o":"m 929 811 l 929 714 l 503 714 q 268 622 354 714 q 182 361 182 531 q 231 159 182 233 q 368 85 279 85 q 506 159 457 85 q 554 361 554 233 q 524 528 554 447 l 635 528 q 669 361 669 433 q 590 88 669 190 q 369 -14 510 -14 q 148 88 228 -14 q 68 361 68 190 q 186 690 68 569 q 504 811 304 811 l 929 811 z "},"൴":{"ha":1342,"x_min":75,"x_max":1257,"o":"m 247 362 q 224 339 247 362 q 201 244 201 315 q 249 128 201 174 q 364 82 297 82 q 474 128 431 82 q 518 244 518 174 q 473 361 518 314 q 360 408 428 408 q 247 362 293 408 m 815 274 q 815 231 815 274 q 862 138 815 189 q 980 88 908 88 q 1097 153 1051 88 q 1142 343 1142 219 q 988 635 1142 529 q 942 571 979 622 q 891 498 904 519 q 856 433 878 476 q 815 274 815 358 m 371 507 q 555 433 482 507 q 628 250 628 360 q 555 63 628 140 q 360 -14 482 -14 q 157 81 239 -14 q 75 325 75 175 q 230 679 75 544 q 671 814 385 814 q 939 767 817 814 q 971 894 971 833 q 911 1036 971 988 q 754 1085 851 1085 q 613 1058 689 1085 l 613 1158 q 754 1181 694 1181 q 993 1103 900 1181 q 1086 894 1086 1026 q 1039 718 1086 808 q 1199 556 1142 653 q 1257 343 1257 460 q 1184 88 1257 188 q 981 -11 1111 -11 q 776 73 850 -11 q 701 272 701 157 q 747 464 701 379 q 787 538 772 513 q 841 617 801 563 q 889 683 881 671 q 671 719 796 719 q 336 635 463 719 q 185 401 210 551 q 263 478 211 449 q 371 507 314 507 z "},"൵":{"ha":1728,"x_min":75,"x_max":1643,"o":"m 247 362 q 224 339 247 362 q 201 244 201 315 q 249 128 201 174 q 364 82 297 82 q 474 128 431 82 q 518 244 518 174 q 473 361 518 314 q 360 408 428 408 q 247 362 293 408 m 1204 272 q 1250 138 1204 189 q 1367 88 1296 88 q 1484 162 1439 88 q 1529 371 1529 236 q 1493 534 1529 457 q 1392 658 1457 611 q 1331 572 1376 635 q 1266 476 1286 510 q 1225 385 1246 442 q 1204 272 1204 328 m 371 507 q 555 433 482 507 q 628 250 628 360 q 555 63 628 140 q 360 -14 482 -14 q 157 81 239 -14 q 75 325 75 175 q 196 674 75 533 q 517 814 317 814 q 723 762 626 814 q 871 621 819 710 q 1010 763 919 711 q 1213 814 1101 814 q 1339 793 1278 814 q 1360 894 1360 849 q 1300 1036 1360 988 q 1143 1085 1240 1085 q 1001 1058 1078 1085 l 1001 1158 q 1143 1181 1083 1181 q 1381 1103 1289 1181 q 1474 894 1474 1026 q 1440 746 1474 819 q 1588 588 1533 686 q 1643 371 1643 489 q 1570 97 1643 204 q 1367 -11 1497 -11 q 1163 73 1238 -11 q 1089 272 1089 157 q 1112 406 1089 339 q 1158 510 1135 472 q 1230 616 1182 549 q 1293 707 1278 683 q 1208 718 1251 718 q 1010 638 1094 718 q 925 422 925 557 l 925 0 l 817 0 l 817 422 q 728 633 817 550 q 517 715 639 715 q 299 631 394 715 q 179 401 204 547 q 258 478 204 449 q 371 507 313 507 z "},"൹":{"ha":1693,"x_min":74,"x_max":1664,"o":"m 1149 82 q 1278 156 1233 82 q 1322 357 1322 229 q 1319 408 1322 375 l 1207 408 q 1050 362 1104 408 q 996 242 996 315 q 1040 125 996 168 q 1149 82 1083 82 m 1432 357 q 1353 86 1432 186 q 1153 -14 1275 -14 q 957 58 1031 -14 q 883 244 883 131 q 969 433 883 358 q 1206 507 1056 507 l 1296 507 q 1174 661 1257 606 q 981 717 1090 717 q 791 642 872 717 q 710 438 710 568 l 710 -3 l 600 -3 l 600 493 q 547 653 600 592 q 411 715 493 715 q 249 631 310 715 q 188 406 188 547 q 256 184 188 265 q 449 103 324 103 l 449 -3 q 296 24 364 -3 q 188 93 228 51 q 119 190 147 135 q 74 403 74 286 q 167 706 74 600 q 410 811 260 811 q 566 767 499 811 q 665 651 633 722 q 989 814 776 814 q 1253 728 1143 814 q 1408 507 1364 642 l 1664 507 l 1664 408 l 1429 408 q 1432 357 1432 375 z "},"ൺ":{"ha":2172,"x_min":75,"x_max":2088,"o":"m 242 362 q 219 339 242 362 q 196 244 196 315 q 244 128 196 174 q 358 82 292 82 q 469 128 425 82 q 513 244 513 174 q 467 361 513 314 q 355 408 422 408 q 242 362 288 408 m 1649 269 q 1694 134 1649 185 q 1811 83 1740 83 q 1927 158 1882 83 q 1972 368 1972 233 q 1937 529 1972 453 q 1838 656 1901 606 q 1776 564 1819 626 q 1711 465 1733 501 q 1669 374 1689 429 q 1649 269 1649 319 m 365 507 q 549 433 476 507 q 622 250 622 360 q 549 63 622 140 q 354 -14 476 -14 q 153 81 232 -14 q 75 332 75 176 q 196 674 75 535 q 517 814 317 814 q 721 767 628 814 q 863 636 814 721 q 950 766 889 718 q 1092 814 1011 814 q 1232 767 1172 814 q 1318 633 1292 719 q 1450 763 1363 711 q 1656 814 1538 814 q 1783 793 1721 814 q 1803 894 1803 844 q 1743 1036 1803 988 q 1586 1085 1683 1085 q 1444 1058 1521 1085 l 1444 1158 q 1586 1181 1526 1181 q 1825 1103 1732 1181 q 1918 894 1918 1026 q 1885 744 1918 818 q 2033 585 1978 683 q 2088 368 2088 486 q 2015 94 2088 201 q 1812 -14 1942 -14 q 1608 70 1682 -14 q 1533 269 1533 154 q 1556 395 1533 331 q 1605 501 1579 460 q 1675 608 1631 543 q 1739 706 1719 674 q 1651 718 1700 718 q 1456 640 1543 718 q 1368 431 1368 563 l 1368 0 l 1260 0 l 1260 449 q 1213 644 1260 571 q 1091 718 1167 718 q 970 649 1015 718 q 925 444 925 581 l 925 0 l 817 0 l 817 431 q 728 637 817 558 q 517 715 640 715 q 299 631 394 715 q 179 401 204 547 q 257 478 206 449 q 365 507 308 507 z "},"ൻ":{"ha":1511,"x_min":74,"x_max":1426,"o":"m 989 269 q 1035 134 989 185 q 1151 83 1081 83 q 1267 159 1222 83 q 1311 371 1311 235 q 1276 533 1311 457 q 1179 657 1242 608 q 1117 565 1161 628 q 1051 467 1074 503 q 1009 376 1029 431 q 989 269 989 321 m 411 814 q 572 765 506 814 q 667 644 639 717 q 795 766 713 718 q 993 814 878 814 q 1124 793 1061 814 q 1143 894 1143 844 q 1084 1036 1143 988 q 928 1085 1025 1085 q 786 1058 863 1085 l 786 1158 q 928 1181 868 1181 q 1166 1103 1074 1181 q 1258 894 1258 1026 q 1225 744 1258 819 q 1372 587 1318 685 q 1426 371 1426 489 q 1354 95 1426 204 q 1152 -14 1282 -14 q 948 70 1022 -14 q 874 269 874 154 q 897 395 874 331 q 945 501 919 460 q 1015 608 971 543 q 1079 706 1060 674 q 989 718 1038 718 q 795 642 881 718 q 710 428 710 565 l 710 0 l 600 0 l 600 497 q 547 657 600 596 q 402 718 494 718 q 249 634 310 718 q 188 409 188 550 q 256 187 188 268 q 449 106 324 106 l 449 0 q 296 27 364 0 q 188 96 228 54 q 119 193 147 138 q 74 406 74 289 q 167 708 74 603 q 411 814 260 814 z "},"ർ":{"ha":1044,"x_min":81,"x_max":960,"o":"m 522 269 q 568 134 522 185 q 685 83 614 83 q 800 158 756 83 q 844 369 844 233 q 810 531 844 456 q 711 656 775 607 q 650 565 693 626 q 585 467 607 503 q 542 375 563 431 q 522 269 522 319 m 960 369 q 888 94 960 203 q 685 -14 815 -14 q 481 70 556 -14 q 407 269 407 154 q 430 395 407 331 q 478 501 453 460 q 549 609 504 543 q 613 706 594 675 q 521 718 571 718 q 289 619 383 718 q 194 351 194 519 q 315 0 194 183 l 189 0 q 81 360 81 176 q 202 679 81 544 q 522 814 324 814 q 657 793 592 814 q 676 894 676 843 q 617 1036 676 988 q 461 1085 558 1085 q 319 1058 396 1085 l 319 1158 q 461 1181 401 1181 q 699 1103 607 1181 q 792 894 792 1026 q 758 743 792 818 q 906 583 851 682 q 960 369 960 485 z "},"ൽ":{"ha":1694,"x_min":78,"x_max":1611,"o":"m 1172 269 q 1218 134 1172 185 q 1335 83 1264 83 q 1451 151 1407 83 q 1496 344 1496 218 q 1347 632 1496 528 q 1290 548 1336 615 q 1227 452 1243 481 q 1192 370 1211 424 q 1172 269 1172 317 m 568 354 q 610 152 568 219 q 713 85 651 85 q 815 151 775 85 q 856 354 856 218 q 724 649 856 542 q 568 354 568 551 m 407 92 l 407 -14 q 164 94 250 -14 q 78 381 78 201 q 203 687 78 560 q 518 814 328 814 q 731 758 628 814 q 1017 814 861 814 q 1297 767 1172 814 q 1328 894 1328 835 q 1268 1036 1328 988 q 1111 1085 1208 1085 q 969 1058 1046 1085 l 969 1158 q 1111 1181 1051 1181 q 1350 1103 1257 1181 q 1443 894 1443 1026 q 1397 717 1443 806 q 1555 556 1499 653 q 1611 344 1611 460 q 1538 88 1611 189 q 1336 -14 1465 -14 q 1133 70 1207 -14 q 1058 269 1058 154 q 1080 390 1058 328 q 1122 488 1101 453 q 1190 593 1142 522 q 1250 683 1238 664 q 1031 719 1154 719 q 821 692 908 719 q 969 354 969 554 q 898 83 969 181 q 711 -14 826 -14 q 524 82 596 -14 q 453 351 453 178 q 498 544 453 454 q 629 700 543 635 q 515 719 575 719 q 286 625 381 719 q 192 386 192 531 q 249 167 192 242 q 407 92 307 92 z "},"ൾ":{"ha":1467,"x_min":74,"x_max":1382,"o":"m 943 269 q 989 134 943 185 q 1106 83 1035 83 q 1223 157 1178 83 q 1268 368 1268 231 q 1232 531 1268 454 q 1132 656 1196 607 q 1071 564 1114 626 q 1006 465 1028 501 q 963 374 983 429 q 943 269 943 319 m 686 332 q 608 76 686 165 q 386 -14 529 -14 q 158 99 243 -14 q 74 398 74 211 q 159 698 74 585 q 426 811 244 811 l 426 706 q 250 636 313 706 q 188 408 188 567 q 246 165 188 249 q 389 82 304 82 q 526 144 474 82 q 578 325 578 206 l 578 457 q 681 711 578 608 q 946 814 785 814 q 1078 792 1017 814 q 1099 894 1099 842 q 1039 1036 1099 988 q 882 1085 979 1085 q 740 1058 817 1085 l 740 1158 q 882 1181 822 1181 q 1120 1103 1028 1181 q 1213 894 1213 1026 q 1179 743 1213 818 q 1327 585 1272 683 q 1382 368 1382 486 q 1310 93 1382 200 q 1107 -14 1238 -14 q 902 70 976 -14 q 828 269 828 154 q 851 395 828 331 q 899 501 874 460 q 971 608 925 542 q 1035 706 1017 675 q 944 718 993 718 q 763 651 839 718 q 686 457 686 583 l 686 332 z "},"ൿ":{"ha":1804,"x_min":69,"x_max":1719,"o":"m 558 394 q 610 163 558 247 q 772 79 663 79 q 933 163 882 79 q 985 394 985 247 l 985 400 l 558 401 l 558 394 m 978 496 q 772 721 946 721 q 565 496 597 721 l 978 496 m 1099 394 q 1014 97 1099 208 q 770 -14 929 -14 q 526 100 611 -14 q 328 -14 464 -14 q 144 58 219 -14 q 69 249 69 131 q 156 431 69 367 q 385 496 242 496 l 451 496 q 556 731 472 647 q 771 814 640 814 q 985 731 901 814 q 1092 496 1069 647 l 1293 496 q 1342 576 1325 546 q 1374 658 1358 607 q 1389 760 1389 710 q 1341 883 1389 840 q 1217 925 1293 925 q 1064 899 1140 925 l 1064 999 q 1206 1021 1146 1021 q 1422 951 1340 1021 q 1503 762 1503 881 q 1417 494 1503 643 q 1638 424 1556 488 q 1719 244 1719 360 q 1644 58 1719 129 q 1452 -14 1568 -14 q 1265 52 1336 -14 q 1193 213 1193 118 q 1239 400 1193 308 l 1099 400 l 1099 394 m 1307 230 q 1307 194 1307 230 q 1349 121 1307 158 q 1458 83 1390 83 q 1565 131 1525 83 q 1606 247 1606 178 q 1376 400 1606 400 l 1361 400 q 1307 230 1307 301 m 182 250 q 182 211 182 250 q 226 128 182 172 q 327 83 269 83 q 424 119 385 83 q 471 210 464 156 q 444 394 444 289 l 444 401 l 388 401 q 238 365 294 401 q 182 250 182 328 z "},"‌":{"ha":0,"x_min":-33,"x_max":38,"o":"m -33 1103 l 38 1103 l 38 -481 l -33 -481 l -33 1103 z "},"‍":{"ha":0,"x_min":-207,"x_max":185,"o":"m 25 -481 l -46 -481 l -46 839 l -149 738 l -207 792 l -62 924 l -207 1057 l -150 1110 l -10 972 l 129 1110 l 185 1057 l 40 924 l 185 792 l 128 738 l 25 840 l 25 -481 z "},"–":{"ha":750,"x_min":79,"x_max":671,"o":"m 671 329 l 79 329 l 79 421 l 671 421 l 671 329 z "},"—":{"ha":1143,"x_min":79,"x_max":1064,"o":"m 1064 332 l 79 332 l 79 424 l 1064 424 l 1064 332 z "},"‘":{"ha":250,"x_min":15,"x_max":268,"o":"m 151 654 l 15 654 l 182 965 l 268 965 l 151 654 z "},"’":{"ha":251,"x_min":17,"x_max":269,"o":"m 103 654 l 17 654 l 133 965 l 269 965 l 103 654 z "},"‚":{"ha":251,"x_min":3,"x_max":254,"o":"m 89 -171 l 3 -171 l 118 140 l 254 140 l 89 -171 z "},"“":{"ha":450,"x_min":17,"x_max":468,"o":"m 353 654 l 221 654 l 383 965 l 468 965 l 353 654 m 151 654 l 17 654 l 183 965 l 268 965 l 151 654 z "},"”":{"ha":449,"x_min":17,"x_max":468,"o":"m 300 654 l 215 654 l 333 965 l 468 965 l 300 654 m 101 654 l 17 654 l 132 965 l 263 965 l 101 654 z "},"„":{"ha":449,"x_min":4,"x_max":454,"o":"m 288 -171 l 203 -171 l 319 140 l 454 140 l 288 -171 m 89 -171 l 4 -171 l 118 140 l 250 140 l 89 -171 z "},"†":{"ha":726,"x_min":58,"x_max":669,"o":"m 669 603 l 408 603 l 408 0 l 308 0 l 308 603 l 58 603 l 58 699 l 308 699 l 308 936 l 408 936 l 408 699 l 669 699 l 669 603 z "},"‡":{"ha":736,"x_min":63,"x_max":674,"o":"m 674 251 l 413 251 l 413 0 l 313 0 l 313 251 l 63 251 l 63 347 l 313 347 l 313 603 l 63 603 l 63 699 l 313 699 l 313 936 l 413 936 l 413 699 l 674 699 l 674 603 l 413 603 l 413 347 l 674 347 l 674 251 z "},"•":{"ha":624,"x_min":128,"x_max":496,"o":"m 442 626 q 469 599 442 626 q 496 494 496 572 q 443 363 496 417 q 312 310 390 310 q 181 363 233 310 q 128 494 128 415 q 180 626 128 574 q 310 679 232 679 q 442 626 389 679 z "},"…":{"ha":1000,"x_min":50,"x_max":950,"o":"m 926 129 q 938 117 926 129 q 950 71 950 106 q 926 13 950 36 q 868 -11 903 -11 q 810 13 833 -11 q 786 71 786 36 q 810 129 786 106 q 868 153 833 153 q 926 129 903 153 m 558 129 q 570 117 558 129 q 582 71 582 106 q 558 13 582 36 q 500 -11 535 -11 q 442 13 465 -11 q 418 71 418 36 q 442 129 418 106 q 500 153 465 153 q 558 129 535 153 m 190 129 q 202 117 190 129 q 214 71 214 106 q 190 13 214 36 q 132 -11 167 -11 q 74 13 97 -11 q 50 71 50 36 q 74 129 50 106 q 132 153 97 153 q 190 129 167 153 z "},"‰":{"ha":1683,"x_min":63,"x_max":1643,"o":"m 1335 298 q 1317 280 1335 298 q 1299 210 1299 261 q 1335 122 1299 158 q 1424 86 1372 86 q 1511 122 1475 86 q 1547 210 1547 158 q 1511 298 1547 261 q 1424 335 1475 335 q 1335 298 1372 335 m 1578 365 q 1611 333 1578 365 q 1643 210 1643 300 q 1578 55 1643 119 q 1423 -10 1514 -10 q 1267 55 1332 -10 q 1203 210 1203 119 q 1267 365 1203 300 q 1423 431 1332 431 q 1578 365 1514 431 m 796 298 q 778 280 796 298 q 760 210 760 261 q 796 122 760 158 q 883 86 832 86 q 972 122 935 86 q 1008 210 1008 158 q 972 298 1008 261 q 884 335 936 335 q 796 298 832 335 m 1038 365 q 1070 333 1038 365 q 1103 210 1103 300 q 1038 55 1103 119 q 883 -10 974 -10 q 728 55 792 -10 q 664 210 664 119 q 728 366 664 301 q 883 431 792 431 q 1038 365 974 431 m 194 803 q 176 785 194 803 q 158 715 158 767 q 194 627 158 664 q 282 590 231 590 q 370 627 333 590 q 407 715 407 664 q 370 803 407 767 q 282 839 333 839 q 194 803 231 839 m 282 935 q 327 935 282 935 q 438 870 372 935 q 503 715 503 806 q 438 559 503 624 q 282 494 372 494 q 127 559 192 494 q 63 715 63 624 q 127 870 63 806 q 282 935 192 935 m 385 -1 l 281 -1 l 776 924 l 883 924 l 385 -1 z "},"‹":{"ha":415,"x_min":40,"x_max":371,"o":"m 167 351 l 371 126 l 250 126 l 40 351 l 250 576 l 371 576 l 167 351 z "},"›":{"ha":413,"x_min":44,"x_max":375,"o":"m 375 351 l 167 126 l 44 126 l 249 351 l 44 576 l 167 576 l 375 351 z "},"⁄":{"ha":432,"x_min":-128,"x_max":597,"o":"m -29 0 l -128 0 l 497 989 l 597 989 l -29 0 z "},"€":{"ha":819,"x_min":72,"x_max":764,"o":"m 764 22 q 577 -11 701 -11 q 351 74 453 -11 q 214 307 249 160 l 72 307 l 72 386 l 200 386 q 197 458 197 428 q 201 526 197 489 l 72 526 l 72 606 l 215 606 q 356 835 253 753 q 597 917 458 917 q 764 885 704 917 l 764 776 q 610 811 708 811 q 439 758 511 811 q 335 606 367 704 l 611 606 l 611 526 l 317 526 q 313 454 313 492 q 317 386 313 417 l 611 386 l 611 307 l 332 307 q 436 149 364 204 q 606 93 508 93 q 764 131 703 93 l 764 22 z "},"₹":{"ha":751,"x_min":89,"x_max":685,"o":"m 232 354 l 219 354 l 503 0 l 364 0 l 89 354 l 89 447 l 225 447 q 440 604 422 447 l 89 604 l 89 697 l 435 697 q 224 842 400 842 l 89 842 l 89 936 l 685 936 l 685 842 l 460 842 q 547 697 528 789 l 685 697 l 685 604 l 551 604 q 457 422 542 489 q 232 354 372 354 z "},"₺":{"ha":806,"x_min":88,"x_max":744,"o":"m 289 0 l 213 0 l 213 386 l 88 321 l 88 421 l 213 486 l 213 604 l 88 539 l 88 638 l 213 703 l 213 910 l 322 910 l 322 760 l 475 840 l 475 740 l 322 661 l 322 543 l 475 622 l 475 524 l 322 443 l 322 97 q 551 231 464 114 q 639 504 639 349 l 744 504 q 617 142 744 285 q 289 0 489 0 z "},"₽":{"ha":811,"x_min":39,"x_max":751,"o":"m 581 122 l 296 122 l 296 0 l 183 0 l 183 122 l 39 122 l 39 213 l 183 213 l 183 350 l 39 350 l 39 440 l 183 440 l 183 910 l 404 910 q 660 833 569 910 q 751 626 751 756 q 663 424 751 497 q 415 350 574 350 l 296 350 l 296 213 l 581 213 l 581 122 m 406 815 l 296 815 l 296 440 l 415 440 q 582 487 524 440 q 640 624 640 533 q 580 765 640 714 q 406 815 519 815 z "},"ℓ":{"ha":696,"x_min":58,"x_max":632,"o":"m 632 38 q 456 -7 561 -7 q 285 60 351 -7 q 219 253 219 126 l 219 278 q 138 275 178 275 q 58 289 99 275 l 58 388 q 149 372 110 372 q 219 376 189 372 l 219 664 q 267 867 219 790 q 417 943 315 943 q 568 874 518 943 q 618 685 618 806 q 542 456 618 565 q 329 301 465 347 l 329 292 q 364 138 329 189 q 480 88 399 88 q 632 131 561 88 l 632 38 m 329 658 l 329 404 q 469 522 421 444 q 517 699 517 600 q 492 803 517 763 q 424 844 468 844 q 329 658 329 844 z "},"™":{"ha":964,"x_min":3,"x_max":922,"o":"m 207 458 l 124 458 l 124 861 l 3 861 l 3 936 l 325 936 l 325 861 l 207 861 l 207 458 m 453 460 l 369 460 l 407 936 l 515 936 l 594 711 l 642 564 q 778 936 672 657 l 888 936 l 922 460 l 839 460 l 825 675 l 819 836 q 685 469 800 775 l 600 469 l 474 836 q 453 460 474 818 z "},"Ω":{"ha":1085,"x_min":74,"x_max":1011,"o":"m 479 0 l 74 0 l 74 99 l 292 99 q 121 479 121 214 q 233 824 121 693 q 539 954 346 954 q 843 824 732 954 q 954 479 954 694 q 790 99 954 211 l 1011 99 l 1011 0 l 604 0 l 604 99 q 778 222 721 119 q 836 487 836 325 q 758 749 836 649 q 539 849 681 849 q 318 749 397 849 q 239 490 239 649 q 303 225 239 331 q 479 99 367 119 l 479 0 z "},"℮":{"ha":1158,"x_min":39,"x_max":1114,"o":"m 257 482 l 896 482 l 896 758 q 760 865 844 825 q 578 904 675 904 q 398 865 482 904 q 257 757 314 825 l 257 482 m 576 -14 q 196 125 353 -14 q 39 463 39 264 q 196 806 39 663 q 576 950 353 950 q 956 806 799 950 q 1114 461 1114 661 l 1114 439 l 257 439 l 257 178 q 578 28 382 28 q 908 185 775 28 l 1013 185 q 822 40 936 93 q 576 -14 708 -14 z "},"∂":{"ha":717,"x_min":54,"x_max":653,"o":"m 168 290 q 168 246 168 290 q 215 146 168 201 q 351 90 261 90 q 492 172 440 90 q 546 388 543 254 q 347 488 469 488 q 218 433 268 488 q 168 290 168 379 m 351 936 q 560 706 467 861 q 653 381 653 550 q 570 101 653 213 q 333 -11 488 -11 q 128 77 203 -11 q 54 294 54 165 q 140 504 54 424 q 342 585 226 585 q 532 507 457 585 q 400 755 497 638 q 196 936 303 872 l 351 936 z "},"∆":{"ha":858,"x_min":43,"x_max":815,"o":"m 432 850 q 164 96 386 728 l 694 96 l 432 850 m 43 0 l 43 92 l 354 936 l 510 936 l 815 92 l 815 0 l 43 0 z "},"∏":{"ha":825,"x_min":-54,"x_max":722,"o":"m 247 -6 q 35 -256 247 -256 q -54 -240 -17 -256 l -54 -136 q 21 -153 -18 -153 q 135 -18 135 -153 l 135 936 l 722 936 l 722 -250 l 610 -250 l 610 835 l 247 835 l 247 -6 z "},"∑":{"ha":613,"x_min":42,"x_max":665,"o":"m 665 -179 l 665 -278 l 42 -278 l 42 -179 l 290 339 l 42 838 l 42 936 l 665 936 l 665 838 l 168 838 l 415 339 l 168 -179 l 665 -179 z "},"−":{"ha":768,"x_min":79,"x_max":690,"o":"m 690 422 l 79 422 l 79 522 l 690 522 l 690 422 z "},"∕":{"ha":497,"x_min":-83,"x_max":642,"o":"m 15 0 l -83 0 l 543 989 l 642 989 l 15 0 z "},"∙":{"ha":336,"x_min":86,"x_max":250,"o":"m 226 526 q 238 515 226 526 q 250 468 250 503 q 226 410 250 433 q 168 386 203 386 q 110 410 133 386 q 86 468 86 433 q 110 526 86 503 q 168 550 133 550 q 226 526 203 550 z "},"√":{"ha":1049,"x_min":46,"x_max":1113,"o":"m 574 -183 q 608 -40 574 -169 q 671 179 643 89 l 997 1247 l 1113 1247 l 651 -275 l 497 -275 l 217 492 l 46 492 l 67 586 l 304 586 l 453 171 q 574 -183 574 -161 z "},"∞":{"ha":1160,"x_min":68,"x_max":1092,"o":"m 647 479 q 742 378 699 413 q 850 344 786 344 q 951 382 914 344 q 988 480 988 419 q 949 581 988 540 q 843 621 910 621 q 647 479 743 621 m 208 581 q 190 562 208 581 q 171 483 171 543 q 210 383 171 424 q 315 342 249 342 q 513 481 414 342 q 457 548 481 522 q 394 597 433 574 q 314 619 354 619 q 208 581 246 619 m 304 251 q 130 313 192 251 q 68 478 68 375 q 134 645 68 581 q 313 710 200 710 q 457 667 394 710 q 581 546 519 625 q 853 711 707 711 q 1028 650 965 711 q 1092 487 1092 589 q 1025 318 1092 385 q 847 251 958 251 q 701 293 763 251 q 578 413 640 335 q 453 294 517 338 q 304 251 389 251 z "},"∫":{"ha":436,"x_min":-1,"x_max":438,"o":"m 272 -8 q 218 -171 272 -111 q 65 -231 164 -231 q -1 -222 28 -231 l -1 -121 q 66 -133 28 -133 q 133 -103 104 -133 q 163 -8 163 -72 l 163 758 q 217 921 163 861 q 369 981 272 981 q 438 971 410 981 l 438 871 q 368 883 406 883 q 301 852 331 883 q 272 757 272 821 l 272 -8 z "},"≈":{"ha":857,"x_min":69,"x_max":786,"o":"m 299 335 q 140 240 206 335 l 69 303 q 282 432 164 432 q 448 381 356 432 q 583 331 540 331 q 707 413 661 331 l 786 356 q 592 233 708 233 q 432 284 528 233 q 299 335 336 335 m 299 613 q 140 518 206 613 l 69 581 q 282 710 164 710 q 448 659 356 710 q 583 608 540 608 q 707 690 660 608 l 786 633 q 592 511 708 511 q 432 562 528 511 q 299 613 336 613 z "},"≠":{"ha":768,"x_min":79,"x_max":690,"o":"m 690 285 l 339 285 l 285 163 l 207 163 l 261 285 l 79 285 l 79 379 l 304 379 l 386 565 l 79 565 l 79 660 l 429 660 l 483 782 l 561 782 l 507 660 l 690 660 l 690 565 l 464 565 l 382 379 l 690 379 l 690 285 z "},"≤":{"ha":761,"x_min":72,"x_max":683,"o":"m 683 167 l 72 167 l 72 261 l 683 261 l 683 167 m 683 674 l 118 561 l 683 447 l 683 346 l 72 481 l 72 640 l 683 776 l 683 674 z "},"≥":{"ha":761,"x_min":79,"x_max":690,"o":"m 690 167 l 79 167 l 79 261 l 690 261 l 690 167 m 690 640 l 690 481 l 79 346 l 79 447 l 646 561 l 79 674 l 79 776 l 690 640 z "},"◊":{"ha":783,"x_min":72,"x_max":711,"o":"m 456 0 l 322 0 l 72 468 l 322 936 l 456 936 l 711 468 l 456 0 m 194 468 l 390 92 q 528 351 433 179 l 589 468 l 390 844 q 194 468 363 789 z "},"◌":{"ha":917,"x_min":61,"x_max":856,"o":"m 374 733 q 366 742 374 733 q 357 778 357 750 q 374 822 357 806 q 418 839 392 839 q 462 822 444 839 q 479 778 479 806 q 462 733 479 750 q 418 717 444 717 q 374 733 392 717 m 594 696 q 581 696 594 696 q 550 714 568 696 q 532 758 532 732 q 549 801 532 783 q 594 819 567 819 q 638 802 621 819 q 654 758 654 785 q 637 714 654 732 q 594 696 619 696 m 681 619 q 673 627 681 619 q 664 663 664 636 q 681 707 664 689 q 725 725 699 725 q 769 708 751 725 q 786 663 786 690 q 769 619 786 636 q 725 601 751 601 q 681 619 699 601 m 750 455 q 742 464 750 455 q 733 499 733 472 q 750 542 733 525 q 794 560 767 560 q 838 542 821 560 q 856 499 856 525 q 838 455 856 472 q 794 438 821 438 q 750 455 767 438 m 738 269 q 728 277 738 269 q 719 313 719 286 q 738 357 719 339 q 781 375 756 375 q 824 357 807 375 q 842 313 842 339 q 824 269 842 286 q 781 251 807 251 q 738 269 756 251 m 635 133 q 627 141 635 133 q 618 176 618 150 q 635 220 618 203 q 679 238 653 238 q 724 220 706 238 q 742 176 742 203 q 724 133 742 150 q 679 115 706 115 q 635 133 653 115 m 467 58 q 458 67 467 58 q 450 103 450 75 q 467 147 450 131 q 511 164 483 164 q 556 147 539 164 q 574 103 574 129 q 556 59 574 76 q 511 42 539 42 q 467 58 483 42 m 336 61 q 323 61 336 61 q 292 79 310 61 q 274 124 274 97 q 292 168 274 150 q 336 186 310 186 q 380 168 363 186 q 397 124 397 150 q 380 79 397 97 q 336 61 363 61 m 150 185 q 142 194 150 185 q 133 229 133 203 q 151 273 133 256 q 194 290 168 290 q 238 273 221 290 q 256 229 256 256 q 238 185 256 203 q 194 168 221 168 q 150 185 167 168 m 78 347 q 70 356 78 347 q 61 390 61 364 q 78 435 61 417 q 122 453 96 453 q 166 435 149 453 q 183 391 183 418 q 166 347 183 364 q 122 331 149 331 q 78 347 96 331 m 97 522 q 88 530 97 522 q 79 565 79 539 q 97 609 79 592 q 142 626 115 626 q 186 609 168 626 q 204 565 204 592 q 186 522 204 539 q 142 504 168 504 q 97 522 115 504 m 254 656 q 241 656 254 656 q 210 673 228 656 q 193 717 193 690 q 210 762 193 744 q 254 779 228 779 q 298 762 281 779 q 315 717 315 744 q 298 673 315 690 q 254 656 281 656 z "},"ﬁ":{"ha":714,"x_min":42,"x_max":618,"o":"m 272 0 l 163 0 l 163 615 l 42 615 l 42 704 l 163 704 l 163 769 q 218 932 163 872 q 374 992 274 992 q 568 944 474 992 l 568 843 q 379 893 471 893 q 272 768 272 893 l 272 704 l 618 704 l 618 0 l 508 0 l 508 615 l 272 615 l 272 0 z "},"ﬂ":{"ha":708,"x_min":42,"x_max":607,"o":"m 428 615 l 272 615 l 272 0 l 163 0 l 163 615 l 42 615 l 42 704 l 163 704 l 163 769 q 217 932 163 872 q 382 992 272 992 q 607 924 492 992 l 607 0 l 499 0 l 499 871 q 386 893 440 893 q 272 768 272 893 l 272 704 l 428 704 l 428 615 z "}}}
